<?xml version="1.0" encoding="UTF-8"?>
<svg xmlns="http://www.w3.org/2000/svg" xmlns:xlink="http://www.w3.org/1999/xlink" width="156px" height="28px" viewBox="0 0 155 28" version="1.1">
<g id="surface1">
<path style=" stroke:none;fill-rule:nonzero;fill:rgb(0%,0%,0%);fill-opacity:1;" d="M 78.742188 2.164062 C 79.226562 2.371094 79.703125 2.589844 80.175781 2.820312 C 82.285156 3.527344 84.339844 3.292969 86.382812 2.449219 C 86.726562 2.796875 86.726562 2.796875 87.078125 3.148438 C 87.539062 3.148438 88 3.148438 88.472656 3.148438 C 88.585938 2.917969 88.703125 2.6875 88.820312 2.449219 C 91.65625 2.671875 94.488281 2.894531 97.324219 3.117188 C 98.640625 3.21875 99.957031 3.324219 101.273438 3.425781 C 102.546875 3.527344 103.820312 3.625 105.09375 3.726562 C 105.578125 3.761719 106.058594 3.800781 106.542969 3.839844 C 107.652344 3.925781 108.765625 4.011719 109.875 4.105469 C 110.703125 4.167969 111.53125 4.226562 112.359375 4.277344 C 112.738281 4.304688 113.117188 4.332031 113.511719 4.355469 C 114.015625 4.386719 114.015625 4.386719 114.53125 4.417969 C 114.90625 4.484375 114.90625 4.484375 115.292969 4.550781 C 115.40625 4.78125 115.523438 5.011719 115.640625 5.25 C 91.15625 5.25 66.675781 5.25 41.449219 5.25 C 41.5625 5.019531 41.679688 4.789062 41.796875 4.550781 C 42.796875 4.386719 42.796875 4.386719 44.15625 4.277344 C 44.402344 4.257812 44.648438 4.238281 44.902344 4.214844 C 45.71875 4.148438 46.539062 4.085938 47.355469 4.023438 C 47.925781 3.976562 48.492188 3.929688 49.058594 3.882812 C 50.554688 3.761719 52.050781 3.644531 53.546875 3.527344 C 54.769531 3.433594 55.988281 3.332031 57.210938 3.234375 C 59.734375 3.03125 62.253906 2.828125 64.777344 2.632812 C 65.226562 2.597656 65.675781 2.5625 66.136719 2.523438 C 66.847656 2.476562 67.558594 2.449219 68.269531 2.449219 C 68.441406 2.796875 68.441406 2.796875 68.617188 3.148438 C 68.875 3.09375 69.136719 3.035156 69.402344 2.976562 C 70.660156 2.746094 71.582031 2.742188 72.796875 3.148438 C 75.011719 3.371094 76.835938 1.992188 78.742188 2.164062 Z M 78.742188 2.164062 "/>
<path style=" stroke:none;fill-rule:nonzero;fill:rgb(0%,0%,0%);fill-opacity:1;" d="M 41.449219 23.449219 C 65.933594 23.449219 90.414062 23.449219 115.640625 23.449219 C 115.640625 23.566406 115.640625 23.679688 115.640625 23.800781 C 112.355469 24.082031 109.070312 24.363281 105.785156 24.640625 C 104.257812 24.769531 102.734375 24.898438 101.207031 25.027344 C 99.734375 25.15625 98.261719 25.28125 96.789062 25.402344 C 96.230469 25.449219 95.667969 25.5 95.105469 25.546875 C 94.320312 25.617188 93.53125 25.683594 92.746094 25.746094 C 92.296875 25.785156 91.851562 25.824219 91.386719 25.863281 C 90.066406 25.90625 89 25.726562 87.753906 25.308594 C 87.050781 25.125 87.050781 25.125 86.402344 25.570312 C 86.167969 25.679688 85.929688 25.789062 85.683594 25.898438 C 85.101562 25.671875 84.523438 25.4375 83.945312 25.199219 C 81.886719 25.035156 80.910156 25.28125 79.066406 26.25 C 78.222656 26.171875 77.675781 25.902344 76.914062 25.527344 C 75.363281 25.007812 73.570312 24.824219 72.070312 25.554688 C 71.851562 25.667969 71.628906 25.78125 71.40625 25.898438 C 71.058594 25.898438 70.714844 25.898438 70.359375 25.898438 C 70.359375 25.667969 70.359375 25.4375 70.359375 25.199219 C 69.785156 25.199219 69.210938 25.199219 68.617188 25.199219 C 68.503906 25.429688 68.386719 25.660156 68.269531 25.898438 C 59.324219 25.257812 50.382812 24.570312 41.449219 23.800781 C 41.449219 23.683594 41.449219 23.570312 41.449219 23.449219 Z M 41.449219 23.449219 "/>
<path style=" stroke:none;fill-rule:nonzero;fill:rgb(0%,0%,0%);fill-opacity:1;" d="M 78.371094 8.75 C 79.457031 9.84375 79.464844 11.101562 79.765625 12.601562 C 81.144531 12.601562 82.523438 12.601562 83.945312 12.601562 C 83.945312 12.832031 83.945312 13.0625 83.945312 13.300781 C 83.335938 13.828125 83.335938 13.828125 82.550781 14.394531 C 82.292969 14.582031 82.035156 14.769531 81.765625 14.964844 C 81.566406 15.109375 81.363281 15.253906 81.15625 15.398438 C 81.28125 15.773438 81.402344 16.152344 81.527344 16.539062 C 81.835938 17.777344 81.863281 18.113281 81.503906 19.25 C 81.347656 19.121094 81.1875 18.988281 81.019531 18.855469 C 80.808594 18.6875 80.59375 18.523438 80.375 18.351562 C 80.164062 18.1875 79.953125 18.019531 79.738281 17.847656 C 79.089844 17.433594 79.089844 17.433594 78.371094 17.578125 C 77.65625 17.855469 77.023438 18.179688 76.367188 18.570312 C 75.996094 18.796875 75.621094 19.019531 75.234375 19.25 C 75.410156 17.945312 75.597656 16.671875 75.933594 15.398438 C 75.730469 15.257812 75.53125 15.113281 75.324219 14.964844 C 75.0625 14.777344 74.804688 14.589844 74.539062 14.394531 C 74.28125 14.207031 74.023438 14.019531 73.753906 13.828125 C 73.453125 13.566406 73.453125 13.566406 73.144531 13.300781 C 73.144531 13.070312 73.144531 12.839844 73.144531 12.601562 C 74.527344 12.601562 75.90625 12.601562 77.324219 12.601562 C 77.433594 12.09375 77.542969 11.589844 77.652344 11.070312 C 77.832031 10.222656 77.984375 9.523438 78.371094 8.75 Z M 78.371094 8.75 "/>
<path style=" stroke:none;fill-rule:nonzero;fill:rgb(0%,0%,0%);fill-opacity:1;" d="M 136.191406 10.5 C 137.457031 10.5 138.71875 10.5 140.023438 10.5 C 139.503906 11.019531 139.503906 11.019531 138.976562 11.550781 C 138.722656 12.636719 138.722656 12.636719 138.628906 13.648438 C 139.894531 13.648438 141.15625 13.648438 142.460938 13.648438 C 142.460938 12.839844 142.460938 12.03125 142.460938 11.199219 C 142.117188 11.085938 141.769531 10.96875 141.414062 10.851562 C 141.414062 10.734375 141.414062 10.617188 141.414062 10.5 C 142.679688 10.5 143.945312 10.5 145.246094 10.5 C 144.902344 10.847656 144.558594 11.191406 144.203125 11.550781 C 144.125 12.535156 144.105469 13.4375 144.136719 14.414062 C 144.140625 14.679688 144.144531 14.941406 144.152344 15.210938 C 144.164062 15.855469 144.183594 16.503906 144.203125 17.148438 C 144.546875 17.265625 144.890625 17.382812 145.246094 17.5 C 145.246094 17.730469 145.246094 17.960938 145.246094 18.199219 C 143.984375 18.199219 142.71875 18.199219 141.414062 18.199219 C 141.414062 17.96875 141.414062 17.738281 141.414062 17.5 C 141.761719 17.5 142.105469 17.5 142.460938 17.5 C 142.460938 16.460938 142.460938 15.421875 142.460938 14.351562 C 141.195312 14.351562 139.933594 14.351562 138.628906 14.351562 C 138.746094 15.390625 138.859375 16.429688 138.976562 17.5 C 139.324219 17.5 139.667969 17.5 140.023438 17.5 C 140.023438 17.730469 140.023438 17.960938 140.023438 18.199219 C 138.757812 18.199219 137.492188 18.199219 136.191406 18.199219 C 136.191406 17.96875 136.191406 17.738281 136.191406 17.5 C 136.535156 17.5 136.878906 17.5 137.234375 17.5 C 137.265625 16.59375 137.285156 15.691406 137.300781 14.789062 C 137.308594 14.53125 137.320312 14.277344 137.328125 14.015625 C 137.351562 12.324219 137.25 11.917969 136.191406 10.5 Z M 136.191406 10.5 "/>
<path style=" stroke:none;fill-rule:nonzero;fill:rgb(0%,0%,0%);fill-opacity:1;" d="M 65.484375 10.148438 C 66.441406 10.609375 66.441406 10.609375 67.226562 11.199219 C 67.425781 11.335938 67.628906 11.472656 67.835938 11.617188 C 68.554688 12.667969 68.65625 13.804688 68.617188 15.050781 C 68.101562 16.5 67.550781 17.472656 66.179688 18.199219 C 64.214844 18.722656 63.082031 18.460938 61.304688 17.5 C 60.425781 16.792969 60.277344 16.503906 59.910156 15.398438 C 59.78125 13.660156 59.824219 12.5625 60.953125 11.199219 C 62.480469 10.1875 63.667969 9.953125 65.484375 10.148438 Z M 62.347656 11.550781 C 61.503906 12.945312 61.257812 13.6875 61.5 15.3125 C 62.117188 16.742188 62.117188 16.742188 63.394531 17.5 C 64.675781 17.476562 65.496094 17.421875 66.507812 16.601562 C 67.035156 15.378906 67.109375 14.246094 66.875 12.949219 C 66.28125 11.945312 65.859375 11.382812 64.808594 10.871094 C 63.769531 10.839844 63.242188 11 62.347656 11.550781 Z M 62.347656 11.550781 "/>
<path style=" stroke:none;fill-rule:nonzero;fill:rgb(0%,0%,0%);fill-opacity:1;" d="M 88.472656 10.5 C 89.320312 10.472656 90.167969 10.449219 91.019531 10.433594 C 91.378906 10.421875 91.378906 10.421875 91.746094 10.40625 C 93.519531 10.382812 93.519531 10.382812 94.375 10.953125 C 95.003906 11.976562 94.886719 12.835938 94.742188 14 C 94.046875 14.679688 94.046875 14.679688 93.347656 15.050781 C 94.179688 16.183594 94.8125 16.976562 96.136719 17.5 C 96.136719 17.730469 96.136719 17.960938 96.136719 18.199219 C 95.046875 18.375 95.046875 18.375 93.695312 18.199219 C 93.035156 17.53125 92.554688 16.835938 92.046875 16.046875 C 91.648438 15.351562 91.648438 15.351562 90.910156 15.050781 C 91.023438 15.859375 91.140625 16.667969 91.257812 17.5 C 91.601562 17.5 91.949219 17.5 92.304688 17.5 C 92.304688 17.730469 92.304688 17.960938 92.304688 18.199219 C 91.039062 18.199219 89.773438 18.199219 88.472656 18.199219 C 88.472656 17.96875 88.472656 17.738281 88.472656 17.5 C 88.816406 17.5 89.160156 17.5 89.515625 17.5 C 89.546875 16.53125 89.566406 15.5625 89.582031 14.589844 C 89.589844 14.316406 89.601562 14.039062 89.609375 13.757812 C 89.613281 13.492188 89.617188 13.226562 89.617188 12.953125 C 89.625 12.710938 89.628906 12.464844 89.636719 12.214844 C 89.484375 11.359375 89.121094 11.050781 88.472656 10.5 Z M 90.910156 11.199219 C 90.910156 12.125 90.910156 13.046875 90.910156 14 C 91.75 14.058594 91.75 14.058594 92.652344 14 C 92.882812 13.769531 93.113281 13.539062 93.347656 13.300781 C 93.246094 12.144531 93.246094 12.144531 92.652344 11.199219 C 92.070312 11.1875 91.492188 11.183594 90.910156 11.199219 Z M 90.910156 11.199219 "/>
<path style=" stroke:none;fill-rule:nonzero;fill:rgb(0%,0%,0%);fill-opacity:1;" d="M 112.15625 10.5 C 113.074219 10.359375 113.074219 10.359375 114.246094 10.5 C 115.0625 11.152344 115.664062 11.945312 116.292969 12.773438 C 116.46875 12.992188 116.640625 13.210938 116.820312 13.433594 C 117.246094 13.96875 117.664062 14.507812 118.078125 15.050781 C 118.195312 13.78125 118.308594 12.507812 118.425781 11.199219 C 118.082031 11.085938 117.738281 10.96875 117.382812 10.851562 C 117.382812 10.734375 117.382812 10.617188 117.382812 10.5 C 118.417969 10.5 119.449219 10.5 120.515625 10.5 C 120.265625 10.742188 120.265625 10.742188 120.007812 10.988281 C 119.195312 12.371094 119.273438 13.730469 119.234375 15.3125 C 119.21875 15.625 119.207031 15.933594 119.195312 16.253906 C 119.167969 17.019531 119.144531 17.785156 119.125 18.550781 C 117.777344 17.539062 116.753906 16.457031 115.707031 15.136719 C 115.429688 14.792969 115.15625 14.449219 114.871094 14.09375 C 114.664062 13.832031 114.460938 13.570312 114.246094 13.300781 C 114.246094 14.570312 114.246094 15.839844 114.246094 17.148438 C 114.59375 17.265625 114.9375 17.382812 115.292969 17.5 C 115.292969 17.730469 115.292969 17.960938 115.292969 18.199219 C 114.257812 18.199219 113.222656 18.199219 112.15625 18.199219 C 112.15625 17.96875 112.15625 17.738281 112.15625 17.5 C 112.386719 17.382812 112.617188 17.269531 112.855469 17.148438 C 112.96875 15.1875 113.082031 13.222656 113.203125 11.199219 C 112.855469 11.085938 112.511719 10.96875 112.15625 10.851562 C 112.15625 10.734375 112.15625 10.617188 112.15625 10.5 Z M 112.15625 10.5 "/>
<path style=" stroke:none;fill-rule:nonzero;fill:rgb(0%,0%,0%);fill-opacity:1;" d="M 131.664062 10.5 C 131.664062 11.539062 131.664062 12.578125 131.664062 13.648438 C 131.433594 13.648438 131.203125 13.648438 130.964844 13.648438 C 130.78125 13.304688 130.59375 12.957031 130.398438 12.601562 C 129.714844 11.496094 129.714844 11.496094 128.863281 11.410156 C 128 11.410156 128 11.410156 126.785156 11.550781 C 126.316406 12.960938 126.277344 14.273438 126.4375 15.75 C 126.898438 16.632812 126.898438 16.632812 127.484375 17.148438 C 128.667969 17.113281 128.667969 17.113281 129.921875 16.800781 C 130.5625 15.9375 130.5625 15.9375 130.964844 15.050781 C 131.195312 15.050781 131.425781 15.050781 131.664062 15.050781 C 131.664062 16.089844 131.664062 17.128906 131.664062 18.199219 C 131.316406 18.085938 130.972656 17.96875 130.617188 17.851562 C 130.351562 17.964844 130.085938 18.082031 129.8125 18.199219 C 128.621094 18.644531 128 18.554688 126.785156 18.199219 C 125.445312 17.34375 124.703125 16.625 124.347656 15.050781 C 124.292969 13.414062 124.488281 12.5 125.546875 11.222656 C 127.445312 9.6875 129.355469 10.046875 131.664062 10.5 Z M 131.664062 10.5 "/>
<path style=" stroke:none;fill-rule:nonzero;fill:rgb(0%,0%,0%);fill-opacity:1;" d="M 44.234375 10.148438 C 45.28125 10.5 45.28125 10.5 45.640625 11.144531 C 45.742188 11.417969 45.847656 11.695312 45.957031 11.976562 C 46.074219 12.273438 46.191406 12.570312 46.3125 12.878906 C 46.554688 13.507812 46.792969 14.140625 47.035156 14.773438 C 47.152344 15.070312 47.269531 15.367188 47.390625 15.671875 C 47.496094 15.949219 47.601562 16.222656 47.710938 16.503906 C 48.039062 17.273438 48.039062 17.273438 49.113281 17.5 C 49.113281 17.730469 49.113281 17.960938 49.113281 18.199219 C 47.847656 18.199219 46.582031 18.199219 45.28125 18.199219 C 45.28125 17.96875 45.28125 17.738281 45.28125 17.5 C 45.625 17.5 45.96875 17.5 46.324219 17.5 C 46.152344 16.632812 46.152344 16.632812 45.976562 15.75 C 44.941406 15.75 43.910156 15.75 42.84375 15.75 C 42.726562 16.328125 42.613281 16.90625 42.496094 17.5 C 42.839844 17.5 43.183594 17.5 43.539062 17.5 C 43.539062 17.730469 43.539062 17.960938 43.539062 18.199219 C 42.390625 18.199219 41.242188 18.199219 40.054688 18.199219 C 40.054688 17.96875 40.054688 17.738281 40.054688 17.5 C 40.402344 17.382812 40.746094 17.269531 41.101562 17.148438 C 41.535156 16.453125 41.535156 16.453125 41.890625 15.585938 C 42.027344 15.269531 42.164062 14.957031 42.308594 14.632812 C 42.449219 14.300781 42.589844 13.96875 42.734375 13.628906 C 42.949219 13.128906 42.949219 13.128906 43.171875 12.621094 C 43.53125 11.800781 43.882812 10.976562 44.234375 10.148438 Z M 44.234375 12.601562 C 44.007812 13.292969 43.777344 13.984375 43.539062 14.699219 C 44.113281 14.699219 44.6875 14.699219 45.28125 14.699219 C 45.050781 14.007812 44.820312 13.3125 44.585938 12.601562 C 44.46875 12.601562 44.355469 12.601562 44.234375 12.601562 Z M 44.234375 12.601562 "/>
<path style=" stroke:none;fill-rule:nonzero;fill:rgb(0%,0%,0%);fill-opacity:1;" d="M 14.628906 10.148438 C 15.675781 10.5 15.675781 10.5 16.03125 11.144531 C 16.136719 11.417969 16.242188 11.695312 16.347656 11.976562 C 16.464844 12.273438 16.585938 12.570312 16.707031 12.878906 C 16.945312 13.507812 17.1875 14.140625 17.429688 14.773438 C 17.546875 15.070312 17.664062 15.367188 17.785156 15.671875 C 17.890625 15.949219 17.996094 16.222656 18.101562 16.503906 C 18.433594 17.273438 18.433594 17.273438 19.503906 17.5 C 19.503906 17.730469 19.503906 17.960938 19.503906 18.199219 C 18.242188 18.199219 16.976562 18.199219 15.675781 18.199219 C 15.675781 17.96875 15.675781 17.738281 15.675781 17.5 C 16.019531 17.5 16.363281 17.5 16.71875 17.5 C 16.546875 16.632812 16.546875 16.632812 16.371094 15.75 C 15.335938 15.75 14.300781 15.75 13.234375 15.75 C 13.121094 16.328125 13.007812 16.90625 12.886719 17.5 C 13.234375 17.5 13.578125 17.5 13.933594 17.5 C 13.933594 17.730469 13.933594 17.960938 13.933594 18.199219 C 12.78125 18.199219 11.632812 18.199219 10.449219 18.199219 C 10.449219 17.96875 10.449219 17.738281 10.449219 17.5 C 10.792969 17.382812 11.140625 17.269531 11.496094 17.148438 C 11.929688 16.453125 11.929688 16.453125 12.28125 15.585938 C 12.421875 15.269531 12.558594 14.957031 12.699219 14.632812 C 12.839844 14.300781 12.980469 13.96875 13.128906 13.628906 C 13.34375 13.128906 13.34375 13.128906 13.566406 12.621094 C 13.921875 11.800781 14.277344 10.976562 14.628906 10.148438 Z M 14.628906 12.601562 C 14.398438 13.292969 14.167969 13.984375 13.933594 14.699219 C 14.507812 14.699219 15.082031 14.699219 15.675781 14.699219 C 15.445312 14.007812 15.214844 13.3125 14.976562 12.601562 C 14.863281 12.601562 14.746094 12.601562 14.628906 12.601562 Z M 14.628906 12.601562 "/>
<path style=" stroke:none;fill-rule:nonzero;fill:rgb(0%,0%,0%);fill-opacity:1;" d="M 54.75 10.085938 C 55.066406 10.09375 55.378906 10.101562 55.703125 10.113281 C 56.0625 10.132812 56.0625 10.132812 56.425781 10.148438 C 56.425781 11.191406 56.425781 12.230469 56.425781 13.300781 C 56.195312 13.300781 55.96875 13.300781 55.730469 13.300781 C 55.5 12.722656 55.269531 12.144531 55.035156 11.550781 C 54.460938 11.550781 53.882812 11.550781 53.292969 11.550781 C 53.78125 12.765625 54.257812 13.199219 55.402344 13.804688 C 56.722656 14.59375 56.722656 14.59375 57.1875 15.574219 C 57.101562 16.746094 56.84375 17.308594 56.078125 18.199219 C 54.769531 18.59375 53.886719 18.558594 52.59375 18.199219 C 52.25 18.316406 51.90625 18.429688 51.550781 18.550781 C 51.550781 17.511719 51.550781 16.472656 51.550781 15.398438 C 51.78125 15.398438 52.011719 15.398438 52.246094 15.398438 C 52.355469 15.734375 52.355469 15.734375 52.464844 16.078125 C 52.90625 16.921875 52.90625 16.921875 54.03125 17.0625 C 54.363281 17.089844 54.691406 17.121094 55.035156 17.148438 C 55.148438 16.6875 55.261719 16.226562 55.382812 15.75 C 55.046875 15.574219 55.046875 15.574219 54.707031 15.390625 C 54.421875 15.234375 54.132812 15.078125 53.835938 14.917969 C 53.40625 14.6875 53.40625 14.6875 52.96875 14.453125 C 52.246094 14 52.246094 14 51.898438 13.300781 C 51.738281 11.425781 51.738281 11.425781 52.3125 10.613281 C 53.160156 9.988281 53.710938 10.042969 54.75 10.085938 Z M 54.75 10.085938 "/>
<path style=" stroke:none;fill-rule:nonzero;fill:rgb(0%,0%,0%);fill-opacity:1;" d="M 103.796875 10.148438 C 104.589844 10.878906 105.054688 11.515625 105.476562 12.503906 C 105.585938 12.75 105.691406 12.996094 105.800781 13.25 C 105.910156 13.503906 106.015625 13.757812 106.128906 14.023438 C 106.238281 14.277344 106.351562 14.535156 106.464844 14.800781 C 107.28125 16.703125 107.28125 16.703125 107.28125 17.5 C 107.625 17.5 107.96875 17.5 108.324219 17.5 C 108.324219 17.730469 108.324219 17.960938 108.324219 18.199219 C 107.0625 18.199219 105.796875 18.199219 104.496094 18.199219 C 104.496094 17.96875 104.496094 17.738281 104.496094 17.5 C 104.839844 17.5 105.183594 17.5 105.539062 17.5 C 105.367188 16.632812 105.367188 16.632812 105.191406 15.75 C 103.78125 15.835938 103.78125 15.835938 102.40625 16.101562 C 101.851562 16.773438 101.851562 16.773438 101.707031 17.5 C 102.050781 17.5 102.398438 17.5 102.753906 17.5 C 102.753906 17.730469 102.753906 17.960938 102.753906 18.199219 C 101.71875 18.199219 100.683594 18.199219 99.617188 18.199219 C 99.617188 17.96875 99.617188 17.738281 99.617188 17.5 C 99.960938 17.5 100.308594 17.5 100.664062 17.5 C 100.792969 17.066406 100.921875 16.632812 101.054688 16.1875 C 101.75 14.070312 102.769531 12.121094 103.796875 10.148438 Z M 103.449219 12.601562 C 103.21875 13.292969 102.988281 13.984375 102.753906 14.699219 C 103.328125 14.699219 103.902344 14.699219 104.496094 14.699219 C 104.265625 14.007812 104.035156 13.3125 103.796875 12.601562 C 103.683594 12.601562 103.566406 12.601562 103.449219 12.601562 Z M 103.449219 12.601562 "/>
<path style=" stroke:none;fill-rule:nonzero;fill:rgb(0%,0%,0%);fill-opacity:1;" d="M 31.347656 10.5 C 32.613281 10.5 33.878906 10.5 35.179688 10.5 C 34.664062 11.019531 34.664062 11.019531 34.136719 11.550781 C 34.050781 12.472656 34.019531 13.300781 34.046875 14.21875 C 34.050781 14.460938 34.050781 14.703125 34.054688 14.953125 C 33.972656 16.152344 33.972656 16.152344 34.484375 17.148438 C 35.6875 17.265625 35.6875 17.265625 36.921875 17.148438 C 37.152344 16.804688 37.382812 16.457031 37.617188 16.101562 C 37.847656 16.101562 38.078125 16.101562 38.316406 16.101562 C 38.316406 16.792969 38.316406 17.484375 38.316406 18.199219 C 36.015625 18.199219 33.71875 18.199219 31.347656 18.199219 C 31.347656 17.96875 31.347656 17.738281 31.347656 17.5 C 31.691406 17.5 32.039062 17.5 32.394531 17.5 C 32.394531 15.421875 32.394531 13.34375 32.394531 11.199219 C 32.046875 11.085938 31.703125 10.96875 31.347656 10.851562 C 31.347656 10.734375 31.347656 10.617188 31.347656 10.5 Z M 31.347656 10.5 "/>
<path style=" stroke:none;fill-rule:nonzero;fill:rgb(0%,0%,0%);fill-opacity:1;" d="M 21.59375 10.5 C 22.859375 10.5 24.125 10.5 25.425781 10.5 C 25.195312 10.730469 24.96875 10.960938 24.730469 11.199219 C 24.679688 12.21875 24.664062 13.203125 24.6875 14.21875 C 24.691406 14.640625 24.691406 14.640625 24.695312 15.070312 C 24.703125 15.761719 24.71875 16.457031 24.730469 17.148438 C 25.765625 17.148438 26.800781 17.148438 27.863281 17.148438 C 27.863281 16.804688 27.863281 16.457031 27.863281 16.101562 C 28.09375 16.101562 28.324219 16.101562 28.5625 16.101562 C 28.5625 16.792969 28.5625 17.484375 28.5625 18.199219 C 26.261719 18.199219 23.964844 18.199219 21.59375 18.199219 C 21.59375 17.96875 21.59375 17.738281 21.59375 17.5 C 21.941406 17.382812 22.285156 17.269531 22.640625 17.148438 C 22.667969 16.238281 22.6875 15.328125 22.707031 14.414062 C 22.714844 14.15625 22.722656 13.898438 22.730469 13.632812 C 22.753906 12.78125 22.753906 12.78125 22.640625 11.550781 C 22.296875 11.203125 21.949219 10.855469 21.59375 10.5 Z M 21.59375 10.5 "/>
</g>
</svg>