<svg xmlns="http://www.w3.org/2000/svg" xmlns:xlink="http://www.w3.org/1999/xlink" width="28px" height="28px" viewBox="0 0 28 28" version="1.1">
<g id="surface1">
<path style="fill:none;stroke-width:2;stroke-linecap:butt;stroke-linejoin:miter;stroke:rgb(50.196078%,81.568627%,93.72549%);stroke-opacity:1;stroke-miterlimit:4;" d="M 369.28125 576.607422 C 368.294922 577.199219 367.900391 577.001953 368.294922 575.818359 C 368.492188 574.634766 368.886719 573.648438 369.083984 573.056641 C 386.048828 534.392578 401.435547 495.333984 415.441406 455.880859 C 421.556641 438.126953 426.882812 422.345703 431.025391 408.339844 C 432.40625 404.197266 433.195312 401.041016 433.589844 399.068359 C 434.773438 393.544922 430.236328 392.558594 426.09375 392.558594 C 391.572266 392.558594 372.240234 392.558594 368.294922 392.558594 C 367.308594 392.558594 366.519531 392.558594 365.927734 392.361328 C 364.941406 392.164062 364.349609 392.558594 364.349609 393.742188 L 364.349609 403.408203 C 364.349609 404.197266 364.941406 404.986328 365.730469 404.986328 C 373.621094 405.775391 377.763672 406.169922 377.960938 406.169922 C 382.695312 406.564453 390.585938 407.945312 390.191406 414.060547 C 389.994141 417.019531 389.599609 420.175781 388.613281 423.529297 C 386.246094 432.011719 383.681641 440.099609 381.117188 447.595703 C 374.212891 467.125 364.546875 494.347656 352.119141 529.263672 C 349.751953 535.970703 347.384766 542.283203 345.214844 548.003906 C 331.800781 584.103516 318.978516 617.835938 306.945312 649.201172 C 299.84375 667.349609 294.912109 681.158203 292.150391 690.232422 C 291.164062 693.388672 290.572266 697.333984 293.53125 698.912109 C 295.306641 699.898438 297.279297 700.490234 299.646484 700.490234 C 306.748047 701.082031 313.257812 700.6875 319.373047 699.306641 C 321.345703 698.912109 324.699219 697.136719 325.291016 695.361328 C 338.310547 654.330078 358.234375 616.257812 385.0625 581.341797 C 393.742188 570.097656 403.210938 560.037109 413.271484 551.357422 C 419.978516 545.439453 426.882812 541.296875 433.787109 538.929688 C 437.140625 537.746094 441.085938 537.548828 445.425781 538.337891 C 450.357422 539.126953 453.316406 542.085938 453.908203 546.623047 C 454.302734 550.371094 454.302734 553.132812 454.105469 554.513672 C 453.316406 559.839844 452.330078 564.574219 451.146484 568.716797 C 447.595703 580.158203 443.058594 592.191406 437.535156 604.619141 C 425.896484 630.460938 419.386719 644.861328 418.203125 647.623047 C 414.455078 655.908203 411.298828 664.193359 408.142578 672.675781 C 406.761719 677.015625 405.578125 680.960938 404.986328 684.90625 C 403.013672 695.361328 406.169922 706.605469 418.992188 706.408203 C 438.126953 706.013672 454.697266 695.361328 468.308594 682.144531 C 477.777344 672.873047 486.851562 662.8125 495.728516 651.765625 C 496.123047 651.173828 496.123047 650.582031 495.728516 650.1875 L 489.021484 641.705078 C 488.824219 641.507812 488.429688 641.310547 488.232422 641.310547 C 487.837891 641.310547 487.443359 641.507812 487.246094 641.705078 C 479.947266 649.398438 472.253906 656.697266 464.166016 663.601562 C 460.8125 666.363281 457.853516 668.533203 455.289062 669.914062 C 454.105469 670.703125 452.724609 670.900391 451.34375 670.703125 C 450.357422 670.505859 449.962891 670.111328 449.765625 669.125 C 449.371094 666.560547 449.765625 664.193359 450.554688 661.826172 C 452.724609 656.302734 455.486328 649.595703 458.839844 642.099609 C 463.771484 630.263672 469.294922 616.257812 475.410156 599.490234 C 481.328125 583.708984 486.457031 566.546875 489.021484 549.582031 C 490.796875 537.351562 490.205078 521.175781 481.328125 511.3125 C 476.001953 505.591797 468.900391 502.830078 460.023438 502.830078 C 440.888672 503.027344 423.726562 513.285156 410.115234 526.304688 C 400.646484 535.181641 391.769531 545.636719 383.484375 557.078125 C 383.089844 557.472656 378.947266 563.390625 370.464844 575.226562 C 370.070312 575.818359 369.675781 576.212891 369.28125 576.607422 " transform="matrix(0.019802,0,0,0.019802,0,0)"/>
<path style="fill:none;stroke-width:2;stroke-linecap:butt;stroke-linejoin:miter;stroke:rgb(50.196078%,81.568627%,93.72549%);stroke-opacity:1;stroke-miterlimit:4;" d="M 906.830078 673.267578 C 898.939453 675.4375 898.742188 667.941406 899.925781 662.8125 C 901.898438 654.527344 904.265625 646.439453 907.027344 638.154297 C 916.298828 610.142578 926.951172 580.552734 938.787109 549.582031 C 957.724609 499.476562 974.886719 454.5 990.273438 414.849609 C 992.443359 408.931641 994.21875 404 995.599609 400.251953 C 996.783203 396.503906 995.205078 393.742188 991.457031 393.347656 C 990.865234 393.347656 990.273438 393.347656 989.287109 393.347656 C 983.566406 392.953125 963.445312 392.953125 928.726562 393.150391 C 927.9375 393.150391 927.345703 393.742188 927.345703 394.53125 L 927.345703 404.789062 C 927.345703 405.578125 927.9375 406.169922 928.529297 406.169922 C 932.080078 406.367188 935.630859 406.761719 939.181641 406.958984 C 942.535156 407.353516 946.283203 408.142578 949.044922 409.720703 C 952.003906 411.496094 953.1875 414.257812 952.398438 417.808594 C 951.609375 421.162109 949.833984 426.882812 946.677734 434.970703 C 939.181641 455.683594 930.501953 477.974609 921.033203 501.84375 C 909 531.828125 898.150391 559.248047 888.681641 583.90625 C 879.015625 609.15625 869.744141 634.011719 862.248047 660.050781 C 860.669922 665.574219 859.486328 670.703125 858.894531 675.634766 C 857.316406 686.287109 860.078125 700.095703 870.927734 704.435547 C 881.777344 708.775391 894.007812 705.619141 903.871094 699.109375 C 911.564453 694.177734 918.666016 687.865234 925.373047 680.566406 C 932.080078 673.267578 938.589844 665.574219 944.705078 657.683594 C 946.283203 655.908203 948.255859 654.132812 950.03125 652.160156 C 950.623047 651.568359 950.623047 650.976562 950.03125 650.1875 L 943.324219 641.705078 C 943.126953 641.507812 942.732422 641.310547 942.337891 641.310547 C 941.943359 641.310547 941.548828 641.310547 941.351562 641.705078 C 940.5625 642.494141 935.630859 647.820312 926.556641 657.683594 C 922.019531 662.417969 917.876953 666.363281 913.931641 669.519531 C 911.564453 671.294922 909.394531 672.478516 906.830078 673.267578 " transform="matrix(0.019802,0,0,0.019802,0,0)"/>
<path style="fill:none;stroke-width:2;stroke-linecap:butt;stroke-linejoin:miter;stroke:rgb(50.196078%,81.568627%,93.72549%);stroke-opacity:1;stroke-miterlimit:4;" d="M 621.978516 638.548828 C 624.345703 636.576172 624.9375 636.970703 623.753906 639.929688 C 621.978516 644.269531 619.808594 649.595703 616.849609 656.105469 C 615.46875 659.261719 613.890625 664.193359 612.3125 670.703125 C 609.945312 679.382812 608.761719 691.021484 613.496094 698.320312 C 616.652344 703.646484 621.978516 705.816406 629.474609 705.224609 C 639.929688 704.435547 650.1875 699.306641 658.275391 692.994141 C 667.546875 685.498047 676.226562 676.423828 684.117188 665.771484 C 688.259766 660.445312 691.810547 655.316406 694.769531 650.582031 C 694.966797 650.384766 695.164062 649.990234 694.966797 649.792969 L 687.865234 641.705078 C 687.076172 640.521484 686.089844 640.521484 685.300781 641.507812 C 677.607422 651.371094 670.505859 659.65625 664.193359 666.363281 C 661.431641 669.322266 658.669922 671.689453 655.710938 673.464844 C 653.34375 674.845703 651.173828 675.042969 648.806641 674.056641 C 646.044922 672.873047 647.228516 666.757812 647.623047 664.390625 C 648.609375 660.248047 650.779297 653.34375 653.935547 644.072266 C 657.486328 634.208984 661.037109 624.542969 664.587891 614.876953 C 671.689453 595.939453 681.947266 568.716797 695.558594 533.208984 C 696.544922 530.447266 698.517578 524.332031 701.476562 515.257812 C 702.265625 512.890625 701.673828 510.128906 699.898438 508.945312 C 695.953125 506.380859 691.21875 503.224609 685.695312 499.476562 C 681.75 496.714844 677.607422 502.041016 675.832031 505 C 672.873047 509.734375 670.703125 510.128906 665.179688 509.142578 C 659.853516 508.353516 653.738281 506.775391 648.214844 506.380859 C 606.394531 503.816406 572.070312 529.066406 548.792969 561.615234 C 531.828125 585.484375 519.597656 611.720703 512.496094 639.929688 C 509.339844 652.554688 507.761719 665.96875 510.523438 678.988281 C 513.482422 692.402344 522.753906 703.646484 537.351562 704.632812 C 553.921875 705.619141 569.900391 698.714844 583.117188 687.470703 C 597.517578 675.240234 610.339844 658.078125 620.597656 640.71875 C 621.189453 639.337891 621.78125 638.746094 621.978516 638.548828 " transform="matrix(0.019802,0,0,0.019802,0,0)"/>
<path style="fill:none;stroke-width:2;stroke-linecap:butt;stroke-linejoin:miter;stroke:rgb(50.196078%,81.568627%,93.72549%);stroke-opacity:1;stroke-miterlimit:4;" d="M 786.695312 593.177734 C 786.695312 591.402344 787.287109 588.837891 788.076172 585.287109 C 792.416016 567.730469 795.966797 551.751953 799.123047 537.351562 C 800.503906 530.052734 801.490234 524.529297 801.884766 520.386719 C 802.476562 513.679688 800.898438 507.169922 794.388672 504.210938 C 779.988281 497.701172 760.064453 514.074219 750.201172 523.345703 C 739.943359 533.011719 730.671875 543.861328 722.978516 555.894531 C 722.78125 556.289062 722.78125 556.486328 723.175781 556.880859 L 729.882812 563.587891 C 730.080078 563.785156 730.474609 563.982422 730.869141 563.982422 C 731.263672 563.982422 731.658203 563.785156 731.855469 563.390625 C 737.378906 555.894531 742.902344 548.990234 748.623047 542.875 C 752.371094 538.929688 765.390625 525.318359 769.730469 535.378906 C 771.703125 540.113281 770.914062 547.017578 769.927734 551.751953 C 768.349609 560.234375 766.376953 568.322266 763.8125 576.607422 C 752.568359 613.693359 736.589844 655.119141 726.332031 685.300781 C 725.148438 689.246094 721.794922 696.939453 726.332031 699.109375 C 727.121094 699.503906 728.107422 699.503906 729.685547 699.503906 C 734.419922 699.701172 739.943359 699.701172 745.861328 699.503906 C 747.636719 699.503906 748.820312 699.306641 749.806641 698.517578 C 750.990234 697.53125 751.976562 696.544922 752.568359 695.164062 C 757.302734 683.328125 761.445312 674.056641 764.601562 667.152344 C 770.519531 654.724609 780.974609 633.617188 795.966797 604.027344 C 805.041016 586.273438 814.115234 570.294922 823.386719 555.894531 C 829.699219 546.228516 837.195312 538.140625 845.875 531.630859 C 848.044922 529.855469 850.412109 528.474609 852.582031 527.685547 C 857.119141 525.712891 861.064453 526.699219 864.417969 530.447266 C 866.785156 533.40625 868.757812 535.378906 870.335938 536.957031 C 873.689453 539.916016 877.240234 540.705078 881.580078 539.521484 C 890.851562 536.759766 894.007812 526.107422 893.613281 517.230469 C 893.21875 510.128906 890.457031 505.197266 885.130859 502.435547 C 881.777344 500.660156 877.4375 500.265625 872.111328 500.857422 C 855.541016 503.224609 841.929688 512.496094 830.882812 525.121094 C 826.345703 530.052734 822.794922 534.392578 820.230469 537.943359 C 808.591797 554.513672 798.136719 572.662109 788.865234 592.585938 C 788.273438 593.572266 787.878906 593.966797 787.089844 593.769531 C 786.892578 593.769531 786.695312 593.572266 786.695312 593.177734 " transform="matrix(0.019802,0,0,0.019802,0,0)"/>
<path style="fill:none;stroke-width:2;stroke-linecap:butt;stroke-linejoin:miter;stroke:rgb(50.196078%,81.568627%,93.72549%);stroke-opacity:1;stroke-miterlimit:4;" d="M 1196.21875 643.875 C 1202.136719 653.146484 1203.517578 663.009766 1197.205078 672.28125 C 1190.892578 681.552734 1178.464844 685.695312 1167.220703 683.919922 C 1160.710938 682.933594 1154.201172 679.777344 1147.691406 674.648438 C 1146.902344 673.859375 1142.759766 670.308594 1134.869141 663.404297 C 1132.699219 661.628906 1130.332031 660.248047 1127.373047 659.458984 C 1117.707031 656.5 1116.128906 669.519531 1115.142578 675.634766 C 1114.748047 678.988281 1114.748047 681.552734 1115.339844 683.328125 C 1116.326172 686.287109 1117.707031 688.654297 1119.679688 690.429688 C 1129.148438 699.898438 1140.589844 704.830078 1153.609375 705.224609 C 1159.724609 705.421875 1166.234375 704.435547 1172.941406 702.462891 C 1188.328125 697.728516 1202.53125 688.654297 1213.183594 676.621094 C 1223.046875 665.574219 1229.753906 651.371094 1228.175781 636.773438 C 1226.992188 623.753906 1220.876953 611.523438 1213.578125 600.871094 C 1207.857422 592.585938 1203.123047 586.076172 1199.572266 581.341797 C 1198.191406 579.566406 1196.21875 576.410156 1193.654297 571.675781 C 1190.498047 566.152344 1188.919922 560.431641 1188.919922 554.710938 C 1189.117188 534.984375 1204.701172 524.134766 1223.244141 532.025391 C 1226.794922 533.40625 1231.529297 535.378906 1237.447266 537.548828 C 1239.617188 538.337891 1242.181641 538.929688 1245.535156 539.324219 C 1249.875 539.916016 1254.017578 538.929688 1257.371094 536.365234 C 1262.5 532.814453 1266.642578 526.699219 1266.248047 520.386719 C 1265.65625 512.496094 1258.554688 506.183594 1251.453125 503.816406 C 1245.929688 502.041016 1240.40625 501.251953 1234.488281 501.84375 C 1218.509766 503.224609 1204.109375 511.3125 1192.667969 522.359375 C 1178.662109 535.773438 1167.615234 554.316406 1164.65625 573.253906 C 1162.880859 585.681641 1165.050781 597.320312 1171.560547 608.564453 C 1174.716797 614.087891 1177.873047 619.019531 1181.226562 623.162109 C 1187.736328 631.447266 1192.667969 638.351562 1196.21875 643.875 " transform="matrix(0.019802,0,0,0.019802,0,0)"/>
<path style="fill:none;stroke-width:2;stroke-linecap:butt;stroke-linejoin:miter;stroke:rgb(50.196078%,81.568627%,93.72549%);stroke-opacity:1;stroke-miterlimit:4;" d="M 270.845703 520.978516 C 278.933594 520.583984 285.837891 525.515625 291.164062 531.433594 C 292.742188 533.208984 296.095703 536.957031 301.224609 542.875 C 304.183594 546.425781 309.3125 550.173828 314.441406 550.371094 C 316.414062 550.371094 318.583984 549.779297 320.951172 548.398438 C 331.800781 542.480469 328.447266 527.488281 322.726562 519.203125 C 315.230469 508.353516 302.802734 503.027344 289.783203 502.830078 C 264.730469 502.435547 239.875 512.693359 219.162109 526.501953 C 177.144531 554.316406 143.609375 601.068359 148.738281 653.146484 C 149.330078 660.839844 151.302734 668.138672 154.65625 675.4375 C 162.349609 692.205078 176.552734 702.660156 194.898438 704.830078 C 206.339844 706.210938 217.583984 704.632812 228.630859 700.490234 C 248.357422 692.796875 265.125 680.566406 278.933594 663.798828 C 279.722656 662.8125 280.511719 661.431641 281.498047 659.65625 C 281.892578 658.867188 281.892578 657.880859 281.103516 657.289062 L 274.396484 650.384766 C 274.001953 650.1875 273.607422 650.1875 273.410156 650.384766 C 269.662109 653.738281 265.322266 657.289062 260.587891 661.234375 C 244.806641 673.662109 217.386719 691.21875 198.646484 678.199219 C 187.205078 670.308594 183.457031 655.710938 184.443359 642.296875 C 185.232422 633.419922 187.402344 624.542969 190.755859 615.271484 C 200.816406 588.443359 216.005859 564.179688 236.324219 542.480469 C 240.664062 537.943359 245.792969 533.40625 251.710938 529.066406 C 257.037109 525.121094 264.138672 521.175781 270.845703 520.978516 " transform="matrix(0.019802,0,0,0.019802,0,0)"/>
<path style="fill:none;stroke-width:2;stroke-linecap:butt;stroke-linejoin:miter;stroke:rgb(50.196078%,81.568627%,93.72549%);stroke-opacity:1;stroke-miterlimit:4;" d="M 1027.753906 587.0625 C 1036.236328 587.259766 1045.902344 587.851562 1053.201172 587.457031 C 1075.492188 586.470703 1095.810547 581.539062 1114.15625 572.267578 C 1122.046875 568.322266 1128.556641 563.390625 1133.882812 557.472656 C 1141.970703 548.398438 1145.916016 534.787109 1140.589844 523.740234 C 1130.529297 502.041016 1103.306641 499.871094 1083.185547 505.394531 C 1073.519531 508.15625 1065.037109 511.707031 1057.541016 515.849609 C 1032.291016 529.855469 1011.183594 548.990234 994.021484 573.056641 C 979.423828 593.769531 969.166016 617.244141 966.798828 642.494141 C 966.009766 651.568359 966.798828 660.445312 969.166016 668.533203 C 977.845703 698.517578 1006.646484 710.945312 1035.447266 702.857422 C 1045.310547 700.095703 1054.976562 695.755859 1064.445312 689.837891 C 1077.267578 682.144531 1088.117188 673.267578 1097.191406 663.404297 C 1098.769531 661.826172 1099.953125 660.445312 1101.136719 659.064453 C 1101.333984 658.867188 1101.136719 658.472656 1100.939453 658.275391 L 1094.824219 650.384766 C 1094.429688 649.792969 1093.837891 649.792969 1093.443359 649.990234 C 1092.654297 650.384766 1090.878906 651.765625 1088.117188 653.738281 C 1077.464844 661.431641 1069.96875 666.560547 1065.431641 669.322266 C 1060.894531 671.886719 1055.962891 674.451172 1050.439453 676.621094 C 1044.521484 678.988281 1038.40625 679.777344 1032.488281 678.988281 C 1014.537109 676.818359 1005.068359 663.404297 1005.068359 646.044922 C 1005.068359 624.345703 1013.945312 606 1026.964844 587.457031 C 1027.162109 587.259766 1027.359375 587.0625 1027.753906 587.0625 " transform="matrix(0.019802,0,0,0.019802,0,0)"/>
<path style="fill:none;stroke-width:2;stroke-linecap:butt;stroke-linejoin:miter;stroke:rgb(50.196078%,81.568627%,93.72549%);stroke-opacity:1;stroke-miterlimit:4;" d="M 150.119141 910.578125 L 141.044922 913.931641 C 140.847656 914.128906 140.847656 914.128906 140.847656 914.326172 C 143.017578 928.332031 145.384766 941.746094 148.146484 954.371094 C 148.34375 954.962891 148.738281 956.34375 149.330078 958.119141 C 149.330078 958.513672 149.527344 958.710938 149.921875 958.908203 C 159.982422 962.853516 167.873047 965.417969 173.001953 966.996094 C 187.796875 970.941406 202.394531 970.941406 217.189453 967.193359 C 243.820312 960.289062 260.982422 938.589844 260.587891 911.169922 C 260.587891 895.191406 254.472656 881.974609 242.242188 871.716797 C 236.71875 866.785156 230.800781 862.839844 224.488281 859.683594 C 220.740234 857.908203 213.835938 854.554688 203.972656 849.623047 C 189.375 842.71875 175.566406 831.869141 177.144531 813.720703 C 178.722656 797.939453 189.177734 787.681641 204.958984 787.287109 C 228.039062 786.695312 237.902344 804.646484 243.820312 823.583984 C 243.820312 823.978516 244.214844 823.978516 244.412109 823.978516 L 253.683594 822.400391 C 253.880859 822.400391 254.078125 822.203125 254.078125 822.005859 C 251.513672 808.394531 249.738281 795.572266 248.160156 783.341797 C 248.160156 782.947266 247.962891 782.75 247.765625 782.552734 C 237.705078 779.396484 231.787109 777.423828 230.011719 777.029297 C 223.107422 775.253906 214.625 774.662109 204.761719 775.056641 C 173.791016 776.240234 149.132812 795.966797 148.146484 828.318359 C 147.554688 858.5 174.382812 874.873047 198.054688 886.314453 C 211.271484 892.824219 226.263672 901.503906 229.419922 917.285156 C 234.548828 943.324219 214.822266 964.826172 188.191406 955.357422 C 181.484375 952.990234 175.566406 949.242188 170.634766 943.916016 C 161.560547 934.447266 154.853516 923.400391 150.513672 910.775391 C 150.316406 910.775391 150.316406 910.578125 150.119141 910.578125 " transform="matrix(0.019802,0,0,0.019802,0,0)"/>
<path style="fill:none;stroke-width:2;stroke-linecap:butt;stroke-linejoin:miter;stroke:rgb(50.196078%,81.568627%,93.72549%);stroke-opacity:1;stroke-miterlimit:4;" d="M 456.078125 912.15625 L 448.1875 910.775391 C 447.792969 910.578125 447.595703 910.775391 447.398438 911.169922 C 441.677734 923.400391 433.984375 936.222656 424.515625 944.705078 C 418.992188 949.636719 413.074219 952.990234 406.564453 954.962891 C 398.279297 957.330078 389.796875 958.119141 381.314453 957.330078 C 365.533203 955.554688 352.316406 948.847656 342.058594 936.814453 C 335.943359 929.712891 331.208984 922.019531 328.052734 913.734375 C 319.767578 891.246094 317.794922 867.771484 322.726562 843.507812 C 324.699219 834.433594 327.855469 825.753906 332.589844 817.666016 C 347.384766 792.613281 372.634766 784.130859 400.449219 788.273438 C 415.244141 790.443359 426.09375 797.939453 433.195312 810.564453 C 436.351562 816.285156 438.916016 822.400391 440.494141 829.107422 C 440.494141 829.501953 440.888672 829.501953 441.085938 829.501953 L 448.976562 828.712891 C 449.568359 828.712891 449.765625 828.515625 449.568359 827.923828 C 448.582031 816.087891 446.806641 801.095703 444.636719 782.947266 C 444.636719 782.552734 444.439453 782.355469 444.044922 782.158203 C 435.759766 780.382812 429.052734 778.804688 423.726562 777.818359 C 397.095703 772.886719 369.478516 773.478516 344.228516 783.341797 C 316.414062 794.388672 294.714844 816.285156 286.626953 845.085938 C 271.634766 896.375 296.095703 948.847656 348.962891 964.037109 C 366.519531 969.166016 384.470703 970.546875 403.210938 968.376953 C 415.244141 966.996094 427.671875 964.628906 440.691406 961.275391 C 441.480469 961.078125 442.072266 960.486328 442.269531 959.894531 C 447.792969 945.296875 452.527344 929.515625 456.472656 912.748047 C 456.472656 912.550781 456.275391 912.353516 456.078125 912.15625 " transform="matrix(0.019802,0,0,0.019802,0,0)"/>
<path style="fill:none;stroke-width:2;stroke-linecap:butt;stroke-linejoin:miter;stroke:rgb(50.196078%,81.568627%,93.72549%);stroke-opacity:1;stroke-miterlimit:4;" d="M 1033.474609 900.320312 C 1038.998047 914.326172 1043.929688 927.740234 1048.466797 940.167969 C 1049.255859 942.140625 1051.623047 950.228516 1049.453125 952.201172 C 1047.875 953.779297 1045.705078 954.765625 1043.140625 954.962891 C 1037.419922 955.751953 1033.869141 956.146484 1032.488281 956.34375 C 1032.291016 956.34375 1032.291016 956.34375 1032.291016 956.541016 L 1032.291016 965.220703 C 1032.291016 965.417969 1032.291016 965.417969 1032.488281 965.417969 L 1107.054688 965.417969 C 1108.041016 965.417969 1108.632812 965.023438 1108.632812 963.839844 L 1108.632812 957.724609 C 1108.632812 956.738281 1108.041016 956.146484 1107.054688 956.146484 C 1105.871094 956.146484 1104.095703 956.146484 1101.728516 955.751953 C 1094.824219 954.765625 1089.498047 951.214844 1086.144531 945.494141 C 1083.185547 940.759766 1080.423828 934.25 1077.464844 926.359375 C 1057.146484 869.152344 1038.998047 819.441406 1023.414062 777.029297 C 1023.216797 776.634766 1023.019531 776.4375 1022.625 776.634766 L 1011.183594 777.621094 C 1010.986328 777.621094 1010.591797 777.818359 1010.591797 778.212891 C 972.914062 875.070312 953.384766 925.175781 952.003906 928.726562 C 949.833984 934.644531 947.269531 939.773438 944.705078 944.705078 C 939.576172 953.976562 931.882812 955.554688 921.625 956.34375 C 921.427734 956.34375 921.427734 956.541016 921.427734 956.738281 L 921.427734 965.220703 C 921.427734 965.417969 921.427734 965.417969 921.625 965.417969 L 985.539062 965.417969 C 985.736328 965.417969 985.736328 965.417969 985.736328 965.220703 L 985.736328 956.738281 C 985.736328 956.541016 985.736328 956.34375 985.539062 956.34375 C 979.029297 955.554688 975.675781 955.160156 975.478516 955.160156 C 971.533203 954.371094 969.166016 953.582031 968.376953 953.1875 C 966.798828 951.806641 966.009766 950.623047 965.8125 949.242188 C 965.220703 945.691406 965.8125 941.943359 967.193359 937.998047 C 973.900391 918.46875 977.451172 907.619141 980.607422 900.123047 C 980.804688 899.925781 981.001953 899.728516 981.199219 899.728516 L 1032.882812 899.728516 C 1033.080078 899.728516 1033.277344 899.925781 1033.474609 900.320312 " transform="matrix(0.019802,0,0,0.019802,0,0)"/>
<path style="fill:none;stroke-width:2;stroke-linecap:butt;stroke-linejoin:miter;stroke:rgb(50.196078%,81.568627%,93.72549%);stroke-opacity:1;stroke-miterlimit:4;" d="M 1223.835938 862.248047 C 1222.455078 862.248047 1222.455078 861.853516 1223.835938 861.65625 C 1242.970703 857.119141 1261.316406 842.916016 1261.710938 821.611328 C 1262.105469 809.775391 1258.554688 800.109375 1251.255859 792.810547 C 1245.337891 786.695312 1236.460938 782.158203 1227.978516 780.382812 C 1220.482422 779.001953 1212 778.212891 1202.925781 778.410156 C 1201.939453 778.410156 1200.755859 777.621094 1199.572266 777.621094 C 1168.798828 777.621094 1143.351562 777.621094 1123.033203 777.621094 C 1121.849609 777.621094 1121.257812 778.212891 1121.455078 779.396484 C 1121.652344 780.580078 1121.652344 782.552734 1121.652344 785.314453 C 1121.455078 786.498047 1122.046875 787.089844 1123.230469 787.089844 C 1124.216797 786.892578 1126.189453 787.089844 1128.951172 787.484375 C 1136.052734 788.273438 1141.378906 790.443359 1143.154297 798.136719 C 1144.140625 802.476562 1144.732422 807.013672 1144.732422 811.748047 C 1144.732422 846.861328 1144.732422 885.130859 1144.732422 926.951172 C 1144.732422 930.501953 1144.535156 933.855469 1144.337891 936.617188 C 1143.548828 943.521484 1142.5625 949.242188 1137.433594 952.398438 C 1134.474609 954.371094 1128.753906 955.357422 1120.074219 955.751953 C 1119.876953 955.751953 1119.876953 955.751953 1119.876953 955.949219 L 1119.876953 964.628906 C 1119.876953 964.826172 1120.074219 964.826172 1120.271484 964.826172 C 1130.134766 964.826172 1154.003906 964.826172 1192.076172 964.826172 C 1202.925781 964.826172 1213.183594 963.839844 1223.244141 961.867188 C 1232.121094 960.289062 1239.814453 957.330078 1246.324219 953.582031 C 1253.623047 949.439453 1259.34375 944.310547 1263.486328 938.787109 C 1271.179688 927.9375 1273.941406 915.904297 1271.96875 902.292969 C 1269.798828 889.470703 1263.289062 879.410156 1252.242188 872.505859 C 1243.5625 866.982422 1234.09375 863.628906 1223.835938 862.248047 " transform="matrix(0.019802,0,0,0.019802,0,0)"/>
<path style="fill:none;stroke-width:2;stroke-linecap:butt;stroke-linejoin:miter;stroke:rgb(50.196078%,81.568627%,93.72549%);stroke-opacity:1;stroke-miterlimit:4;" d="M 612.509766 859.683594 L 526.896484 859.683594 C 526.699219 859.683594 526.501953 859.486328 526.501953 859.289062 C 526.501953 844.888672 526.501953 829.699219 526.699219 813.720703 C 526.699219 809.972656 527.09375 805.632812 527.685547 800.701172 C 528.869141 793.599609 533.011719 789.457031 540.507812 788.470703 C 544.058594 787.878906 547.214844 787.484375 550.173828 787.484375 C 550.173828 787.484375 550.371094 787.287109 550.371094 787.089844 L 550.371094 778.607422 C 550.371094 778.410156 550.173828 778.212891 549.976562 778.212891 L 467.914062 778.212891 C 467.716797 778.212891 467.716797 778.410156 467.716797 778.607422 L 467.716797 787.089844 C 467.716797 787.287109 467.716797 787.287109 467.914062 787.287109 C 469.492188 787.484375 472.451172 787.681641 476.988281 788.076172 C 481.525391 788.667969 487.443359 789.851562 490.007812 793.402344 C 491.585938 795.375 492.572266 797.544922 492.966797 799.517578 C 494.544922 808 494.347656 816.876953 494.347656 825.951172 C 494.347656 870.138672 494.347656 905.449219 494.347656 931.882812 C 494.150391 936.419922 493.755859 940.759766 492.769531 944.902344 C 491.191406 951.412109 486.259766 954.173828 480.341797 955.160156 C 476.396484 955.751953 472.648438 956.146484 469.097656 956.34375 C 468.900391 956.541016 468.900391 956.541016 468.900391 956.738281 L 468.900391 965.220703 C 468.900391 965.417969 468.900391 965.417969 469.097656 965.417969 L 551.160156 965.417969 C 551.357422 965.417969 551.554688 965.417969 551.554688 965.220703 L 551.554688 956.738281 C 551.554688 956.541016 551.357422 956.34375 551.160156 956.34375 C 548.595703 956.146484 545.833984 955.949219 543.072266 955.554688 C 535.576172 954.765625 529.658203 952.201172 528.080078 944.113281 C 527.09375 939.378906 526.699219 933.855469 526.699219 927.740234 C 526.501953 905.449219 526.501953 887.695312 526.501953 874.083984 C 526.501953 873.886719 526.699219 873.886719 526.896484 873.886719 L 612.115234 873.886719 C 612.3125 873.886719 612.509766 873.886719 612.509766 874.083984 C 612.509766 881.185547 612.509766 897.953125 612.509766 924.583984 C 612.509766 931.488281 612.3125 937.603516 611.523438 942.732422 C 610.142578 951.412109 604.816406 954.371094 596.53125 955.357422 C 592.783203 955.949219 589.232422 956.34375 586.273438 956.34375 C 586.076172 956.34375 585.878906 956.541016 585.878906 956.738281 L 585.878906 965.220703 C 585.878906 965.417969 586.076172 965.417969 586.273438 965.417969 L 669.519531 965.417969 C 669.519531 965.417969 669.716797 965.417969 669.716797 965.220703 L 669.716797 956.541016 C 669.716797 956.541016 669.519531 956.34375 669.322266 956.34375 C 668.335938 956.34375 665.574219 956.146484 661.431641 955.751953 C 656.105469 955.160156 650.976562 953.779297 648.214844 949.439453 C 646.833984 947.269531 646.044922 944.705078 645.847656 941.746094 C 645.058594 934.841797 644.664062 927.740234 644.664062 920.244141 C 644.861328 851.595703 644.861328 815.693359 645.058594 812.537109 C 645.058594 808.197266 645.453125 803.857422 646.044922 799.517578 C 646.833984 794.783203 649.398438 791.626953 653.541016 789.851562 C 656.5 788.667969 661.826172 787.878906 669.322266 787.287109 C 669.519531 787.287109 669.716797 787.287109 669.716797 787.089844 L 670.308594 778.410156 C 670.308594 778.410156 670.308594 778.410156 670.111328 778.410156 C 670.111328 778.212891 670.111328 778.212891 669.914062 778.212891 L 589.035156 778.212891 C 588.837891 778.212891 588.837891 778.410156 588.837891 778.410156 L 588.837891 787.089844 C 588.837891 787.287109 589.035156 787.287109 589.232422 787.287109 C 590.21875 787.287109 592.980469 787.681641 597.320312 788.076172 C 601.265625 788.470703 604.619141 789.654297 606.986328 791.232422 C 612.707031 795.177734 612.904297 807.210938 612.904297 813.128906 C 613.101562 828.318359 613.298828 843.507812 613.101562 859.091797 C 613.101562 859.486328 612.904297 859.683594 612.509766 859.683594 " transform="matrix(0.019802,0,0,0.019802,0,0)"/>
<path style="fill:none;stroke-width:2;stroke-linecap:butt;stroke-linejoin:miter;stroke:rgb(50.196078%,81.568627%,93.72549%);stroke-opacity:1;stroke-miterlimit:4;" d="M 776.832031 915.707031 C 765.982422 879.804688 755.527344 844.888672 745.269531 810.958984 C 743.888672 806.224609 742.310547 801.6875 742.113281 797.150391 C 741.71875 790.837891 747.242188 789.0625 752.173828 788.470703 C 753.357422 788.470703 756.316406 788.273438 761.445312 787.878906 C 761.642578 787.878906 761.839844 787.878906 761.839844 787.484375 L 761.839844 779.001953 C 761.839844 779.001953 761.839844 778.804688 761.642578 778.804688 L 685.103516 778.804688 C 684.117188 778.804688 683.722656 779.199219 683.722656 780.185547 L 683.722656 786.695312 C 683.722656 787.681641 684.314453 788.076172 685.300781 788.076172 C 685.695312 788.076172 687.273438 788.273438 690.035156 788.667969 C 697.53125 789.654297 703.054688 793.599609 706.210938 800.306641 C 708.578125 805.830078 710.550781 810.564453 711.931641 814.904297 C 722.78125 850.609375 738.5625 901.503906 758.880859 967.982422 C 759.078125 968.179688 759.275391 968.376953 759.472656 968.376953 L 772.097656 968.376953 C 772.294922 968.376953 772.689453 968.179688 772.689453 967.785156 C 782.947266 937.40625 795.375 900.123047 809.972656 855.935547 C 812.339844 848.636719 814.509766 841.929688 816.285156 836.011719 C 816.482422 835.222656 816.876953 835.222656 817.074219 836.011719 L 865.601562 967.982422 C 865.798828 968.179688 865.996094 968.376953 866.193359 968.376953 L 878.226562 968.376953 C 878.621094 968.376953 878.818359 968.179688 879.015625 967.785156 C 893.613281 918.863281 909.591797 868.757812 926.753906 817.46875 C 929.121094 810.564453 931.685547 804.449219 934.644531 798.728516 C 937.603516 792.810547 942.535156 789.654297 949.044922 788.667969 C 952.990234 788.273438 955.554688 788.076172 956.738281 787.878906 C 956.935547 787.878906 956.935547 787.878906 956.935547 787.681641 L 956.935547 778.410156 C 956.935547 778.410156 956.935547 778.212891 956.738281 778.212891 L 891.048828 778.212891 C 890.851562 778.212891 890.851562 778.410156 890.851562 778.410156 L 890.851562 787.089844 C 890.851562 787.287109 890.851562 787.287109 891.048828 787.287109 C 893.021484 787.484375 895.388672 787.484375 898.544922 787.681641 C 902.884766 787.878906 907.619141 788.470703 910.380859 790.837891 C 912.945312 793.205078 912.353516 796.558594 912.15625 800.503906 C 911.958984 802.476562 911.564453 804.646484 911.169922 806.619141 C 901.898438 842.71875 892.232422 879.015625 881.777344 915.3125 C 881.382812 916.496094 880.988281 916.496094 880.59375 915.509766 L 831.277344 781.566406 C 831.277344 781.171875 831.080078 781.171875 830.882812 781.171875 L 820.625 781.171875 C 820.230469 781.171875 820.033203 781.369141 820.033203 781.566406 L 777.423828 915.707031 C 777.226562 916.298828 777.029297 916.298828 776.832031 915.707031 " transform="matrix(0.019802,0,0,0.019802,0,0)"/>
<path style="fill:none;stroke-width:2;stroke-linecap:butt;stroke-linejoin:miter;stroke:rgb(50.196078%,81.568627%,93.72549%);stroke-opacity:1;stroke-miterlimit:4;" d="M 547.017578 623.359375 C 544.255859 634.998047 542.875 646.636719 543.072266 658.275391 C 543.072266 664.982422 544.255859 673.464844 552.541016 674.451172 C 558.261719 675.240234 564.179688 674.056641 570.097656 670.703125 C 575.423828 667.744141 579.960938 664.587891 583.708984 661.234375 C 592.783203 653.146484 601.068359 644.072266 608.958984 634.011719 C 624.542969 613.496094 637.759766 591.796875 648.412109 568.914062 C 650.779297 563.982422 652.949219 558.064453 655.119141 551.554688 C 657.091797 545.636719 657.289062 539.916016 655.710938 534.589844 C 652.751953 524.726562 645.847656 519.597656 634.998047 519.203125 C 617.638672 518.611328 601.462891 529.658203 589.824219 541.888672 C 568.716797 564.376953 554.316406 593.572266 547.017578 623.359375 " transform="matrix(0.019802,0,0,0.019802,0,0)"/>
<path style="fill:none;stroke-width:2;stroke-linecap:butt;stroke-linejoin:miter;stroke:rgb(50.196078%,81.568627%,93.72549%);stroke-opacity:1;stroke-miterlimit:4;" d="M 1037.025391 570.886719 C 1036.828125 571.083984 1037.025391 571.28125 1037.222656 571.28125 C 1050.439453 571.083984 1063.064453 569.703125 1074.703125 566.941406 C 1087.722656 563.982422 1102.912109 557.669922 1109.421875 546.03125 C 1115.142578 535.970703 1115.142578 522.556641 1103.503906 516.835938 C 1094.232422 512.298828 1082.001953 518.216797 1074.703125 523.9375 C 1067.009766 529.855469 1059.710938 537.548828 1052.806641 546.623047 C 1046.691406 554.710938 1041.365234 562.798828 1037.025391 570.886719 " transform="matrix(0.019802,0,0,0.019802,0,0)"/>
<path style="fill:none;stroke-width:2;stroke-linecap:butt;stroke-linejoin:miter;stroke:rgb(50.196078%,81.568627%,93.72549%);stroke-opacity:1;stroke-miterlimit:4;" d="M 983.763672 884.736328 C 983.763672 884.736328 983.763672 884.933594 983.960938 884.933594 C 983.960938 885.130859 983.960938 885.130859 984.158203 885.130859 L 1027.162109 885.130859 C 1027.359375 885.130859 1027.359375 885.130859 1027.556641 885.130859 C 1027.556641 884.933594 1027.556641 884.933594 1027.556641 884.736328 L 1006.054688 824.373047 C 1006.054688 824.175781 1005.857422 824.175781 1005.857422 824.175781 C 1005.660156 824.175781 1005.462891 824.175781 1005.462891 824.373047 L 983.763672 884.736328 " transform="matrix(0.019802,0,0,0.019802,0,0)"/>
<path style="fill:none;stroke-width:2;stroke-linecap:butt;stroke-linejoin:miter;stroke:rgb(50.196078%,81.568627%,93.72549%);stroke-opacity:1;stroke-miterlimit:4;" d="M 1178.070312 791.824219 C 1176.294922 793.994141 1176.492188 798.53125 1176.492188 803.068359 C 1176.492188 822.794922 1176.492188 841.535156 1176.294922 859.289062 C 1176.294922 859.486328 1176.492188 859.683594 1176.689453 859.683594 C 1183.396484 859.880859 1189.511719 859.683594 1195.035156 859.289062 C 1206.476562 858.302734 1218.3125 852.976562 1223.441406 842.521484 C 1227.978516 833.25 1228.570312 822.992188 1225.611328 812.142578 C 1221.46875 797.544922 1207.068359 790.443359 1193.0625 790.246094 C 1186.552734 790.246094 1182.015625 790.443359 1179.648438 791.035156 C 1178.859375 791.232422 1178.267578 791.626953 1178.070312 791.824219 " transform="matrix(0.019802,0,0,0.019802,0,0)"/>
<path style="fill:none;stroke-width:2;stroke-linecap:butt;stroke-linejoin:miter;stroke:rgb(50.196078%,81.568627%,93.72549%);stroke-opacity:1;stroke-miterlimit:4;" d="M 1177.675781 871.125 C 1177.28125 871.125 1177.083984 871.322266 1177.083984 871.716797 C 1176.886719 901.701172 1176.886719 918.271484 1176.886719 921.427734 C 1176.886719 926.951172 1177.28125 932.277344 1178.070312 937.603516 C 1179.056641 945.296875 1181.818359 951.412109 1190.498047 952.398438 C 1212.394531 955.357422 1231.332031 946.085938 1235.671875 923.005859 C 1237.052734 915.3125 1236.658203 908.013672 1234.882812 901.109375 C 1231.529297 888.287109 1223.441406 879.410156 1210.816406 874.873047 C 1206.673828 873.294922 1202.728516 872.308594 1199.177734 871.914062 C 1192.667969 871.125 1185.566406 870.730469 1177.675781 871.125 " transform="matrix(0.019802,0,0,0.019802,0,0)"/>
<path style=" stroke:none;fill-rule:nonzero;fill:rgb(0%,62.745098%,87.45098%);fill-opacity:1;" d="M 28 0 L 28 28 L 0 28 L 0 0 Z M 7.3125 11.417969 C 7.292969 11.429688 7.285156 11.425781 7.292969 11.402344 C 7.296875 11.378906 7.304688 11.359375 7.308594 11.347656 C 7.644531 10.582031 7.949219 9.808594 8.226562 9.027344 C 8.347656 8.675781 8.453125 8.363281 8.535156 8.085938 C 8.5625 8.003906 8.578125 7.941406 8.585938 7.902344 C 8.609375 7.792969 8.519531 7.773438 8.4375 7.773438 C 7.753906 7.773438 7.371094 7.773438 7.292969 7.773438 C 7.273438 7.773438 7.257812 7.773438 7.246094 7.769531 C 7.226562 7.765625 7.214844 7.773438 7.214844 7.796875 L 7.214844 7.988281 C 7.214844 8.003906 7.226562 8.019531 7.242188 8.019531 C 7.398438 8.035156 7.480469 8.042969 7.484375 8.042969 C 7.578125 8.050781 7.734375 8.078125 7.726562 8.199219 C 7.722656 8.257812 7.714844 8.320312 7.695312 8.386719 C 7.648438 8.554688 7.597656 8.714844 7.546875 8.863281 C 7.410156 9.25 7.21875 9.789062 6.972656 10.480469 C 6.925781 10.613281 6.878906 10.738281 6.835938 10.851562 C 6.570312 11.566406 6.316406 12.234375 6.078125 12.855469 C 5.9375 13.214844 5.839844 13.488281 5.785156 13.667969 C 5.765625 13.730469 5.753906 13.808594 5.8125 13.839844 C 5.847656 13.859375 5.886719 13.871094 5.933594 13.871094 C 6.074219 13.882812 6.203125 13.875 6.324219 13.847656 C 6.363281 13.839844 6.429688 13.804688 6.441406 13.769531 C 6.699219 12.957031 7.09375 12.203125 7.625 11.511719 C 7.796875 11.289062 7.984375 11.089844 8.183594 10.917969 C 8.316406 10.800781 8.453125 10.71875 8.589844 10.671875 C 8.65625 10.648438 8.734375 10.644531 8.820312 10.660156 C 8.917969 10.675781 8.976562 10.734375 8.988281 10.824219 C 8.996094 10.898438 8.996094 10.953125 8.992188 10.980469 C 8.976562 11.085938 8.957031 11.179688 8.933594 11.261719 C 8.863281 11.488281 8.773438 11.726562 8.664062 11.972656 C 8.433594 12.484375 8.304688 12.769531 8.28125 12.824219 C 8.207031 12.988281 8.144531 13.152344 8.082031 13.320312 C 8.054688 13.40625 8.03125 13.484375 8.019531 13.5625 C 7.980469 13.769531 8.042969 13.992188 8.296875 13.988281 C 8.675781 13.980469 9.003906 13.769531 9.273438 13.507812 C 9.460938 13.324219 9.640625 13.125 9.816406 12.90625 C 9.824219 12.894531 9.824219 12.882812 9.816406 12.875 L 9.683594 12.707031 C 9.679688 12.703125 9.671875 12.699219 9.667969 12.699219 C 9.660156 12.699219 9.652344 12.703125 9.648438 12.707031 C 9.503906 12.859375 9.351562 13.003906 9.191406 13.140625 C 9.125 13.195312 9.066406 13.238281 9.015625 13.265625 C 8.992188 13.28125 8.964844 13.285156 8.9375 13.28125 C 8.917969 13.277344 8.910156 13.269531 8.90625 13.25 C 8.898438 13.199219 8.90625 13.152344 8.921875 13.105469 C 8.964844 12.996094 9.019531 12.863281 9.085938 12.714844 C 9.183594 12.480469 9.292969 12.203125 9.414062 11.871094 C 9.53125 11.558594 9.632812 11.21875 9.683594 10.882812 C 9.71875 10.640625 9.707031 10.320312 9.53125 10.125 C 9.425781 10.011719 9.285156 9.957031 9.109375 9.957031 C 8.730469 9.960938 8.390625 10.164062 8.121094 10.421875 C 7.933594 10.597656 7.757812 10.804688 7.59375 11.03125 C 7.585938 11.039062 7.503906 11.15625 7.335938 11.390625 C 7.328125 11.402344 7.320312 11.410156 7.3125 11.417969 Z M 17.957031 13.332031 C 17.800781 13.375 17.796875 13.226562 17.820312 13.125 C 17.859375 12.960938 17.90625 12.800781 17.960938 12.636719 C 18.144531 12.082031 18.355469 11.496094 18.589844 10.882812 C 18.964844 9.890625 19.304688 9 19.609375 8.214844 C 19.652344 8.097656 19.6875 8 19.714844 7.925781 C 19.738281 7.851562 19.707031 7.796875 19.632812 7.789062 C 19.621094 7.789062 19.609375 7.789062 19.589844 7.789062 C 19.476562 7.78125 19.078125 7.78125 18.390625 7.785156 C 18.375 7.785156 18.363281 7.796875 18.363281 7.8125 L 18.363281 8.015625 C 18.363281 8.03125 18.375 8.042969 18.386719 8.042969 C 18.457031 8.046875 18.527344 8.054688 18.597656 8.058594 C 18.664062 8.066406 18.738281 8.082031 18.792969 8.113281 C 18.851562 8.148438 18.875 8.203125 18.859375 8.273438 C 18.84375 8.339844 18.808594 8.453125 18.746094 8.613281 C 18.597656 9.023438 18.425781 9.464844 18.238281 9.9375 C 18 10.53125 17.785156 11.074219 17.597656 11.5625 C 17.40625 12.0625 17.222656 12.554688 17.074219 13.070312 C 17.042969 13.179688 17.019531 13.28125 17.007812 13.378906 C 16.976562 13.589844 17.03125 13.863281 17.246094 13.949219 C 17.460938 14.035156 17.703125 13.972656 17.898438 13.84375 C 18.050781 13.746094 18.191406 13.621094 18.324219 13.476562 C 18.457031 13.332031 18.585938 13.179688 18.707031 13.023438 C 18.738281 12.988281 18.777344 12.953125 18.8125 12.914062 C 18.824219 12.902344 18.824219 12.890625 18.8125 12.875 L 18.679688 12.707031 C 18.675781 12.703125 18.667969 12.699219 18.660156 12.699219 C 18.652344 12.699219 18.644531 12.699219 18.640625 12.707031 C 18.625 12.722656 18.527344 12.828125 18.347656 13.023438 C 18.257812 13.117188 18.175781 13.195312 18.097656 13.257812 C 18.050781 13.292969 18.007812 13.316406 17.957031 13.332031 Z M 12.316406 12.644531 C 12.363281 12.605469 12.375 12.613281 12.351562 12.671875 C 12.316406 12.757812 12.273438 12.863281 12.214844 12.992188 C 12.1875 13.054688 12.15625 13.152344 12.125 13.28125 C 12.078125 13.453125 12.054688 13.683594 12.148438 13.828125 C 12.210938 13.933594 12.316406 13.976562 12.464844 13.964844 C 12.671875 13.949219 12.875 13.847656 13.035156 13.722656 C 13.21875 13.574219 13.390625 13.394531 13.546875 13.183594 C 13.628906 13.078125 13.699219 12.976562 13.757812 12.882812 C 13.761719 12.878906 13.765625 12.871094 13.761719 12.867188 L 13.621094 12.707031 C 13.605469 12.683594 13.585938 12.683594 13.570312 12.703125 C 13.417969 12.898438 13.277344 13.0625 13.152344 13.195312 C 13.097656 13.253906 13.042969 13.300781 12.984375 13.335938 C 12.9375 13.363281 12.894531 13.367188 12.847656 13.347656 C 12.792969 13.324219 12.816406 13.203125 12.824219 13.15625 C 12.84375 13.074219 12.886719 12.9375 12.949219 12.753906 C 13.019531 12.558594 13.089844 12.367188 13.160156 12.175781 C 13.300781 11.800781 13.503906 11.261719 13.773438 10.558594 C 13.792969 10.503906 13.832031 10.382812 13.890625 10.203125 C 13.90625 10.15625 13.894531 10.101562 13.859375 10.078125 C 13.78125 10.027344 13.6875 9.964844 13.578125 9.890625 C 13.5 9.835938 13.417969 9.941406 13.382812 10 C 13.324219 10.09375 13.28125 10.101562 13.171875 10.082031 C 13.066406 10.066406 12.945312 10.035156 12.835938 10.027344 C 12.007812 9.976562 11.328125 10.476562 10.867188 11.121094 C 10.53125 11.59375 10.289062 12.113281 10.148438 12.671875 C 10.085938 12.921875 10.054688 13.1875 10.109375 13.445312 C 10.167969 13.710938 10.351562 13.933594 10.640625 13.953125 C 10.96875 13.972656 11.285156 13.835938 11.546875 13.613281 C 11.832031 13.371094 12.085938 13.03125 12.289062 12.6875 C 12.300781 12.660156 12.3125 12.648438 12.316406 12.644531 Z M 15.578125 11.746094 C 15.578125 11.710938 15.589844 11.660156 15.605469 11.589844 C 15.691406 11.242188 15.761719 10.925781 15.824219 10.640625 C 15.851562 10.496094 15.871094 10.386719 15.878906 10.304688 C 15.890625 10.171875 15.859375 10.042969 15.730469 9.984375 C 15.445312 9.855469 15.050781 10.179688 14.855469 10.363281 C 14.652344 10.554688 14.46875 10.769531 14.316406 11.007812 C 14.3125 11.015625 14.3125 11.019531 14.320312 11.027344 L 14.453125 11.160156 C 14.457031 11.164062 14.464844 11.167969 14.472656 11.167969 C 14.480469 11.167969 14.488281 11.164062 14.492188 11.15625 C 14.601562 11.007812 14.710938 10.871094 14.824219 10.75 C 14.898438 10.671875 15.15625 10.402344 15.242188 10.601562 C 15.28125 10.695312 15.265625 10.832031 15.246094 10.925781 C 15.214844 11.09375 15.175781 11.253906 15.125 11.417969 C 14.902344 12.152344 14.585938 12.972656 14.382812 13.570312 C 14.359375 13.648438 14.292969 13.800781 14.382812 13.84375 C 14.398438 13.851562 14.417969 13.851562 14.449219 13.851562 C 14.542969 13.855469 14.652344 13.855469 14.769531 13.851562 C 14.804688 13.851562 14.828125 13.847656 14.847656 13.832031 C 14.871094 13.8125 14.890625 13.792969 14.902344 13.765625 C 14.996094 13.53125 15.078125 13.347656 15.140625 13.210938 C 15.257812 12.964844 15.464844 12.546875 15.761719 11.960938 C 15.941406 11.609375 16.121094 11.292969 16.304688 11.007812 C 16.429688 10.816406 16.578125 10.65625 16.75 10.527344 C 16.792969 10.492188 16.839844 10.464844 16.882812 10.449219 C 16.972656 10.410156 17.050781 10.429688 17.117188 10.503906 C 17.164062 10.5625 17.203125 10.601562 17.234375 10.632812 C 17.300781 10.691406 17.371094 10.707031 17.457031 10.683594 C 17.640625 10.628906 17.703125 10.417969 17.695312 10.242188 C 17.6875 10.101562 17.632812 10.003906 17.527344 9.949219 C 17.460938 9.914062 17.375 9.90625 17.269531 9.917969 C 16.941406 9.964844 16.671875 10.148438 16.453125 10.398438 C 16.363281 10.496094 16.292969 10.582031 16.242188 10.652344 C 16.011719 10.980469 15.804688 11.339844 15.621094 11.734375 C 15.609375 11.753906 15.601562 11.761719 15.585938 11.757812 C 15.582031 11.757812 15.578125 11.753906 15.578125 11.746094 Z M 23.6875 12.75 C 23.804688 12.933594 23.832031 13.128906 23.707031 13.3125 C 23.582031 13.496094 23.335938 13.578125 23.113281 13.542969 C 22.984375 13.523438 22.855469 13.460938 22.726562 13.359375 C 22.710938 13.34375 22.628906 13.273438 22.472656 13.136719 C 22.429688 13.101562 22.382812 13.074219 22.324219 13.058594 C 22.132812 13 22.101562 13.257812 22.082031 13.378906 C 22.074219 13.445312 22.074219 13.496094 22.085938 13.53125 C 22.105469 13.589844 22.132812 13.636719 22.171875 13.671875 C 22.359375 13.859375 22.585938 13.957031 22.84375 13.964844 C 22.964844 13.96875 23.09375 13.949219 23.226562 13.910156 C 23.53125 13.816406 23.8125 13.636719 24.023438 13.398438 C 24.21875 13.179688 24.351562 12.898438 24.320312 12.609375 C 24.296875 12.351562 24.175781 12.109375 24.03125 11.898438 C 23.917969 11.734375 23.824219 11.605469 23.753906 11.511719 C 23.726562 11.476562 23.6875 11.414062 23.636719 11.320312 C 23.574219 11.210938 23.542969 11.097656 23.542969 10.984375 C 23.546875 10.59375 23.855469 10.378906 24.222656 10.535156 C 24.292969 10.5625 24.386719 10.601562 24.503906 10.644531 C 24.546875 10.660156 24.597656 10.671875 24.664062 10.679688 C 24.75 10.691406 24.832031 10.671875 24.898438 10.621094 C 25 10.550781 25.082031 10.429688 25.074219 10.304688 C 25.0625 10.148438 24.921875 10.023438 24.78125 9.976562 C 24.671875 9.941406 24.5625 9.925781 24.445312 9.9375 C 24.128906 9.964844 23.84375 10.125 23.617188 10.34375 C 23.339844 10.609375 23.121094 10.976562 23.0625 11.351562 C 23.027344 11.597656 23.070312 11.828125 23.199219 12.050781 C 23.261719 12.160156 23.324219 12.257812 23.390625 12.339844 C 23.519531 12.503906 23.617188 12.640625 23.6875 12.75 Z M 5.363281 10.316406 C 5.523438 10.308594 5.660156 10.40625 5.765625 10.523438 C 5.796875 10.558594 5.863281 10.632812 5.964844 10.75 C 6.023438 10.820312 6.125 10.894531 6.226562 10.898438 C 6.265625 10.898438 6.308594 10.886719 6.355469 10.859375 C 6.570312 10.742188 6.503906 10.445312 6.390625 10.28125 C 6.242188 10.066406 5.996094 9.960938 5.738281 9.957031 C 5.242188 9.949219 4.75 10.152344 4.339844 10.425781 C 3.507812 10.976562 2.84375 11.902344 2.945312 12.933594 C 2.957031 13.085938 2.996094 13.230469 3.0625 13.375 C 3.214844 13.707031 3.496094 13.914062 3.859375 13.957031 C 4.085938 13.984375 4.308594 13.953125 4.527344 13.871094 C 4.917969 13.71875 5.25 13.476562 5.523438 13.144531 C 5.539062 13.125 5.554688 13.097656 5.574219 13.0625 C 5.582031 13.046875 5.582031 13.027344 5.566406 13.015625 L 5.433594 12.878906 C 5.425781 12.875 5.417969 12.875 5.414062 12.878906 C 5.339844 12.945312 5.253906 13.015625 5.160156 13.09375 C 4.847656 13.339844 4.304688 13.6875 3.933594 13.429688 C 3.707031 13.273438 3.632812 12.984375 3.652344 12.71875 C 3.667969 12.542969 3.710938 12.367188 3.777344 12.183594 C 3.976562 11.652344 4.277344 11.171875 4.679688 10.742188 C 4.765625 10.652344 4.867188 10.5625 4.984375 10.476562 C 5.089844 10.398438 5.230469 10.320312 5.363281 10.316406 Z M 20.351562 11.625 C 20.519531 11.628906 20.710938 11.640625 20.855469 11.632812 C 21.296875 11.613281 21.699219 11.515625 22.0625 11.332031 C 22.21875 11.253906 22.347656 11.15625 22.453125 11.039062 C 22.613281 10.859375 22.691406 10.589844 22.585938 10.371094 C 22.386719 9.941406 21.847656 9.898438 21.449219 10.007812 C 21.257812 10.0625 21.089844 10.132812 20.941406 10.214844 C 20.441406 10.492188 20.023438 10.871094 19.683594 11.347656 C 19.394531 11.757812 19.191406 12.222656 19.144531 12.722656 C 19.128906 12.902344 19.144531 13.078125 19.191406 13.238281 C 19.363281 13.832031 19.933594 14.078125 20.503906 13.917969 C 20.699219 13.863281 20.890625 13.777344 21.078125 13.660156 C 21.332031 13.507812 21.546875 13.332031 21.726562 13.136719 C 21.757812 13.105469 21.78125 13.078125 21.804688 13.050781 C 21.808594 13.046875 21.804688 13.039062 21.800781 13.035156 L 21.679688 12.878906 C 21.671875 12.867188 21.660156 12.867188 21.652344 12.871094 C 21.636719 12.878906 21.601562 12.90625 21.546875 12.945312 C 21.335938 13.097656 21.1875 13.199219 21.097656 13.253906 C 21.007812 13.304688 20.910156 13.355469 20.800781 13.398438 C 20.683594 13.445312 20.5625 13.460938 20.445312 13.445312 C 20.089844 13.402344 19.902344 13.136719 19.902344 12.792969 C 19.902344 12.363281 20.078125 12 20.335938 11.632812 C 20.339844 11.628906 20.34375 11.625 20.351562 11.625 Z M 2.972656 18.03125 L 2.792969 18.097656 C 2.789062 18.101562 2.789062 18.101562 2.789062 18.105469 C 2.832031 18.382812 2.878906 18.648438 2.933594 18.898438 C 2.9375 18.910156 2.945312 18.9375 2.957031 18.972656 C 2.957031 18.980469 2.960938 18.984375 2.96875 18.988281 C 3.167969 19.066406 3.324219 19.117188 3.425781 19.148438 C 3.71875 19.226562 4.007812 19.226562 4.300781 19.152344 C 4.828125 19.015625 5.167969 18.585938 5.160156 18.042969 C 5.160156 17.726562 5.039062 17.464844 4.796875 17.261719 C 4.6875 17.164062 4.570312 17.085938 4.445312 17.023438 C 4.371094 16.988281 4.234375 16.921875 4.039062 16.824219 C 3.75 16.6875 3.476562 16.472656 3.507812 16.113281 C 3.539062 15.800781 3.746094 15.597656 4.058594 15.589844 C 4.515625 15.578125 4.710938 15.933594 4.828125 16.308594 C 4.828125 16.316406 4.835938 16.316406 4.839844 16.316406 L 5.023438 16.285156 C 5.027344 16.285156 5.03125 16.28125 5.03125 16.277344 C 4.980469 16.007812 4.945312 15.753906 4.914062 15.511719 C 4.914062 15.503906 4.910156 15.5 4.90625 15.496094 C 4.707031 15.433594 4.589844 15.394531 4.554688 15.386719 C 4.417969 15.351562 4.25 15.339844 4.054688 15.347656 C 3.441406 15.371094 2.953125 15.761719 2.933594 16.402344 C 2.921875 17 3.453125 17.324219 3.921875 17.550781 C 4.183594 17.679688 4.480469 17.851562 4.542969 18.164062 C 4.644531 18.679688 4.253906 19.105469 3.726562 18.917969 C 3.59375 18.871094 3.476562 18.796875 3.378906 18.691406 C 3.199219 18.503906 3.066406 18.285156 2.980469 18.035156 C 2.976562 18.035156 2.976562 18.03125 2.972656 18.03125 Z M 9.03125 18.0625 L 8.875 18.035156 C 8.867188 18.03125 8.863281 18.035156 8.859375 18.042969 C 8.746094 18.285156 8.59375 18.539062 8.40625 18.707031 C 8.296875 18.804688 8.179688 18.871094 8.050781 18.910156 C 7.886719 18.957031 7.71875 18.972656 7.550781 18.957031 C 7.238281 18.921875 6.976562 18.789062 6.773438 18.550781 C 6.652344 18.410156 6.558594 18.257812 6.496094 18.09375 C 6.332031 17.648438 6.292969 17.183594 6.390625 16.703125 C 6.429688 16.523438 6.492188 16.351562 6.585938 16.191406 C 6.878906 15.695312 7.378906 15.527344 7.929688 15.609375 C 8.222656 15.652344 8.4375 15.800781 8.578125 16.050781 C 8.640625 16.164062 8.691406 16.285156 8.722656 16.417969 C 8.722656 16.425781 8.730469 16.425781 8.734375 16.425781 L 8.890625 16.410156 C 8.902344 16.410156 8.90625 16.40625 8.902344 16.394531 C 8.882812 16.160156 8.847656 15.863281 8.804688 15.503906 C 8.804688 15.496094 8.800781 15.492188 8.792969 15.488281 C 8.628906 15.453125 8.496094 15.421875 8.390625 15.402344 C 7.863281 15.304688 7.316406 15.316406 6.816406 15.511719 C 6.265625 15.730469 5.835938 16.164062 5.675781 16.734375 C 5.378906 17.75 5.863281 18.789062 6.910156 19.089844 C 7.257812 19.191406 7.613281 19.21875 7.984375 19.175781 C 8.222656 19.148438 8.46875 19.101562 8.726562 19.035156 C 8.742188 19.03125 8.753906 19.019531 8.757812 19.007812 C 8.867188 18.71875 8.960938 18.40625 9.039062 18.074219 C 9.039062 18.070312 9.035156 18.066406 9.03125 18.0625 Z M 20.464844 17.828125 C 20.574219 18.105469 20.671875 18.371094 20.761719 18.617188 C 20.777344 18.65625 20.824219 18.816406 20.78125 18.855469 C 20.75 18.886719 20.707031 18.90625 20.65625 18.910156 C 20.542969 18.925781 20.472656 18.933594 20.445312 18.9375 C 20.441406 18.9375 20.441406 18.9375 20.441406 18.941406 L 20.441406 19.113281 C 20.441406 19.117188 20.441406 19.117188 20.445312 19.117188 L 21.921875 19.117188 C 21.941406 19.117188 21.953125 19.109375 21.953125 19.085938 L 21.953125 18.964844 C 21.953125 18.945312 21.941406 18.933594 21.921875 18.933594 C 21.898438 18.933594 21.863281 18.933594 21.816406 18.925781 C 21.679688 18.90625 21.574219 18.835938 21.507812 18.722656 C 21.449219 18.628906 21.394531 18.5 21.335938 18.34375 C 20.933594 17.210938 20.574219 16.226562 20.265625 15.386719 C 20.261719 15.378906 20.257812 15.375 20.25 15.378906 L 20.023438 15.398438 C 20.019531 15.398438 20.011719 15.402344 20.011719 15.410156 C 19.265625 17.328125 18.878906 18.320312 18.851562 18.390625 C 18.808594 18.507812 18.757812 18.609375 18.707031 18.707031 C 18.605469 18.890625 18.453125 18.921875 18.25 18.9375 C 18.246094 18.9375 18.246094 18.941406 18.246094 18.945312 L 18.246094 19.113281 C 18.246094 19.117188 18.246094 19.117188 18.25 19.117188 L 19.515625 19.117188 C 19.519531 19.117188 19.519531 19.117188 19.519531 19.113281 L 19.519531 18.945312 C 19.519531 18.941406 19.519531 18.9375 19.515625 18.9375 C 19.386719 18.921875 19.320312 18.914062 19.316406 18.914062 C 19.238281 18.898438 19.191406 18.882812 19.175781 18.875 C 19.144531 18.847656 19.128906 18.824219 19.125 18.796875 C 19.113281 18.726562 19.125 18.652344 19.152344 18.574219 C 19.285156 18.1875 19.355469 17.972656 19.417969 17.824219 C 19.421875 17.820312 19.425781 17.816406 19.429688 17.816406 L 20.453125 17.816406 C 20.457031 17.816406 20.460938 17.820312 20.464844 17.828125 Z M 24.234375 17.074219 C 24.207031 17.074219 24.207031 17.066406 24.234375 17.0625 C 24.613281 16.972656 24.976562 16.691406 24.984375 16.269531 C 24.992188 16.035156 24.921875 15.84375 24.777344 15.699219 C 24.660156 15.578125 24.484375 15.488281 24.316406 15.453125 C 24.167969 15.425781 24 15.410156 23.820312 15.414062 C 23.800781 15.414062 23.777344 15.398438 23.753906 15.398438 C 23.144531 15.398438 22.640625 15.398438 22.238281 15.398438 C 22.214844 15.398438 22.203125 15.410156 22.207031 15.433594 C 22.210938 15.457031 22.210938 15.496094 22.210938 15.550781 C 22.207031 15.574219 22.21875 15.585938 22.242188 15.585938 C 22.261719 15.582031 22.300781 15.585938 22.355469 15.59375 C 22.496094 15.609375 22.601562 15.652344 22.636719 15.804688 C 22.65625 15.890625 22.667969 15.980469 22.667969 16.074219 C 22.667969 16.769531 22.667969 17.527344 22.667969 18.355469 C 22.667969 18.425781 22.664062 18.492188 22.660156 18.546875 C 22.644531 18.683594 22.625 18.796875 22.523438 18.859375 C 22.464844 18.898438 22.351562 18.917969 22.179688 18.925781 C 22.175781 18.925781 22.175781 18.925781 22.175781 18.929688 L 22.175781 19.101562 C 22.175781 19.105469 22.179688 19.105469 22.183594 19.105469 C 22.378906 19.105469 22.851562 19.105469 23.605469 19.105469 C 23.820312 19.105469 24.023438 19.085938 24.222656 19.046875 C 24.398438 19.015625 24.550781 18.957031 24.679688 18.882812 C 24.824219 18.800781 24.9375 18.699219 25.019531 18.589844 C 25.171875 18.375 25.226562 18.136719 25.1875 17.867188 C 25.144531 17.613281 25.015625 17.414062 24.796875 17.277344 C 24.625 17.167969 24.4375 17.101562 24.234375 17.074219 Z M 12.128906 17.023438 L 10.433594 17.023438 C 10.429688 17.023438 10.425781 17.019531 10.425781 17.015625 C 10.425781 16.730469 10.425781 16.429688 10.429688 16.113281 C 10.429688 16.039062 10.4375 15.953125 10.449219 15.855469 C 10.472656 15.714844 10.554688 15.632812 10.703125 15.613281 C 10.773438 15.601562 10.835938 15.59375 10.894531 15.59375 C 10.894531 15.59375 10.898438 15.589844 10.898438 15.585938 L 10.898438 15.417969 C 10.898438 15.414062 10.894531 15.410156 10.890625 15.410156 L 9.265625 15.410156 C 9.261719 15.410156 9.261719 15.414062 9.261719 15.417969 L 9.261719 15.585938 C 9.261719 15.589844 9.261719 15.589844 9.265625 15.589844 C 9.296875 15.59375 9.355469 15.597656 9.445312 15.605469 C 9.535156 15.617188 9.652344 15.640625 9.703125 15.710938 C 9.734375 15.75 9.753906 15.792969 9.761719 15.832031 C 9.792969 16 9.789062 16.175781 9.789062 16.355469 C 9.789062 17.230469 9.789062 17.929688 9.789062 18.453125 C 9.785156 18.542969 9.777344 18.628906 9.757812 18.710938 C 9.726562 18.839844 9.628906 18.894531 9.511719 18.914062 C 9.433594 18.925781 9.359375 18.933594 9.289062 18.9375 C 9.285156 18.941406 9.285156 18.941406 9.285156 18.945312 L 9.285156 19.113281 C 9.285156 19.117188 9.285156 19.117188 9.289062 19.117188 L 10.914062 19.117188 C 10.917969 19.117188 10.921875 19.117188 10.921875 19.113281 L 10.921875 18.945312 C 10.921875 18.941406 10.917969 18.9375 10.914062 18.9375 C 10.863281 18.933594 10.808594 18.929688 10.753906 18.921875 C 10.605469 18.90625 10.488281 18.855469 10.457031 18.695312 C 10.4375 18.601562 10.429688 18.492188 10.429688 18.371094 C 10.425781 17.929688 10.425781 17.578125 10.425781 17.308594 C 10.425781 17.304688 10.429688 17.304688 10.433594 17.304688 L 12.121094 17.304688 C 12.125 17.304688 12.128906 17.304688 12.128906 17.308594 C 12.128906 17.449219 12.128906 17.78125 12.128906 18.308594 C 12.128906 18.445312 12.125 18.566406 12.109375 18.667969 C 12.082031 18.839844 11.976562 18.898438 11.8125 18.917969 C 11.738281 18.929688 11.667969 18.9375 11.609375 18.9375 C 11.605469 18.9375 11.601562 18.941406 11.601562 18.945312 L 11.601562 19.113281 C 11.601562 19.117188 11.605469 19.117188 11.609375 19.117188 L 13.257812 19.117188 C 13.257812 19.117188 13.261719 19.117188 13.261719 19.113281 L 13.261719 18.941406 C 13.261719 18.941406 13.257812 18.9375 13.253906 18.9375 C 13.234375 18.9375 13.179688 18.933594 13.097656 18.925781 C 12.992188 18.914062 12.890625 18.886719 12.835938 18.800781 C 12.808594 18.757812 12.792969 18.707031 12.789062 18.648438 C 12.773438 18.511719 12.765625 18.371094 12.765625 18.222656 C 12.769531 16.863281 12.769531 16.152344 12.773438 16.089844 C 12.773438 16.003906 12.78125 15.917969 12.792969 15.832031 C 12.808594 15.738281 12.859375 15.675781 12.941406 15.640625 C 13 15.617188 13.105469 15.601562 13.253906 15.589844 C 13.257812 15.589844 13.261719 15.589844 13.261719 15.585938 L 13.273438 15.414062 C 13.273438 15.414062 13.273438 15.414062 13.269531 15.414062 C 13.269531 15.410156 13.269531 15.410156 13.265625 15.410156 L 11.664062 15.410156 C 11.660156 15.410156 11.660156 15.414062 11.660156 15.414062 L 11.660156 15.585938 C 11.660156 15.589844 11.664062 15.589844 11.667969 15.589844 C 11.6875 15.589844 11.742188 15.597656 11.828125 15.605469 C 11.90625 15.613281 11.972656 15.636719 12.019531 15.667969 C 12.132812 15.746094 12.136719 15.984375 12.136719 16.101562 C 12.140625 16.402344 12.144531 16.703125 12.140625 17.011719 C 12.140625 17.019531 12.136719 17.023438 12.128906 17.023438 Z M 15.382812 18.132812 C 15.167969 17.421875 14.960938 16.730469 14.757812 16.058594 C 14.730469 15.964844 14.699219 15.875 14.695312 15.785156 C 14.6875 15.660156 14.796875 15.625 14.894531 15.613281 C 14.917969 15.613281 14.976562 15.609375 15.078125 15.601562 C 15.082031 15.601562 15.085938 15.601562 15.085938 15.59375 L 15.085938 15.425781 C 15.085938 15.425781 15.085938 15.421875 15.082031 15.421875 L 13.566406 15.421875 C 13.546875 15.421875 13.539062 15.429688 13.539062 15.449219 L 13.539062 15.578125 C 13.539062 15.597656 13.550781 15.605469 13.570312 15.605469 C 13.578125 15.605469 13.609375 15.609375 13.664062 15.617188 C 13.8125 15.636719 13.921875 15.714844 13.984375 15.847656 C 14.03125 15.957031 14.070312 16.050781 14.097656 16.136719 C 14.3125 16.84375 14.625 17.851562 15.027344 19.167969 C 15.03125 19.171875 15.035156 19.175781 15.039062 19.175781 L 15.289062 19.175781 C 15.292969 19.175781 15.300781 19.171875 15.300781 19.164062 C 15.503906 18.5625 15.75 17.824219 16.039062 16.949219 C 16.085938 16.804688 16.128906 16.671875 16.164062 16.554688 C 16.167969 16.539062 16.175781 16.539062 16.179688 16.554688 L 17.140625 19.167969 C 17.144531 19.171875 17.148438 19.175781 17.152344 19.175781 L 17.390625 19.175781 C 17.398438 19.175781 17.402344 19.171875 17.40625 19.164062 C 17.695312 18.195312 18.011719 17.203125 18.351562 16.1875 C 18.398438 16.050781 18.449219 15.929688 18.507812 15.816406 C 18.566406 15.699219 18.664062 15.636719 18.792969 15.617188 C 18.871094 15.609375 18.921875 15.605469 18.945312 15.601562 C 18.949219 15.601562 18.949219 15.601562 18.949219 15.597656 L 18.949219 15.414062 C 18.949219 15.414062 18.949219 15.410156 18.945312 15.410156 L 17.644531 15.410156 C 17.640625 15.410156 17.640625 15.414062 17.640625 15.414062 L 17.640625 15.585938 C 17.640625 15.589844 17.640625 15.589844 17.644531 15.589844 C 17.683594 15.59375 17.730469 15.59375 17.792969 15.597656 C 17.878906 15.601562 17.972656 15.613281 18.027344 15.660156 C 18.078125 15.707031 18.066406 15.773438 18.0625 15.851562 C 18.058594 15.890625 18.050781 15.933594 18.042969 15.972656 C 17.859375 16.6875 17.667969 17.40625 17.460938 18.125 C 17.453125 18.148438 17.445312 18.148438 17.4375 18.128906 L 16.460938 15.476562 C 16.460938 15.46875 16.457031 15.46875 16.453125 15.46875 L 16.25 15.46875 C 16.242188 15.46875 16.238281 15.472656 16.238281 15.476562 L 15.394531 18.132812 C 15.390625 18.144531 15.386719 18.144531 15.382812 18.132812 Z M 15.382812 18.132812 "/>
<path style=" stroke:none;fill-rule:nonzero;fill:rgb(100%,100%,100%);fill-opacity:1;" d="M 7.3125 11.417969 C 7.320312 11.410156 7.328125 11.402344 7.335938 11.390625 C 7.503906 11.15625 7.585938 11.039062 7.59375 11.03125 C 7.757812 10.804688 7.933594 10.597656 8.121094 10.421875 C 8.390625 10.164062 8.730469 9.960938 9.109375 9.957031 C 9.285156 9.957031 9.425781 10.011719 9.53125 10.125 C 9.707031 10.320312 9.71875 10.640625 9.683594 10.882812 C 9.632812 11.21875 9.53125 11.558594 9.414062 11.871094 C 9.292969 12.203125 9.183594 12.480469 9.085938 12.714844 C 9.019531 12.863281 8.964844 12.996094 8.921875 13.105469 C 8.90625 13.152344 8.898438 13.199219 8.90625 13.25 C 8.910156 13.269531 8.917969 13.277344 8.9375 13.28125 C 8.964844 13.285156 8.992188 13.28125 9.015625 13.265625 C 9.066406 13.238281 9.125 13.195312 9.191406 13.140625 C 9.351562 13.003906 9.503906 12.859375 9.648438 12.707031 C 9.652344 12.703125 9.660156 12.699219 9.667969 12.699219 C 9.671875 12.699219 9.679688 12.703125 9.683594 12.707031 L 9.816406 12.875 C 9.824219 12.882812 9.824219 12.894531 9.816406 12.90625 C 9.640625 13.125 9.460938 13.324219 9.273438 13.507812 C 9.003906 13.769531 8.675781 13.980469 8.296875 13.988281 C 8.042969 13.992188 7.980469 13.769531 8.019531 13.5625 C 8.03125 13.484375 8.054688 13.40625 8.082031 13.320312 C 8.144531 13.152344 8.207031 12.988281 8.28125 12.824219 C 8.304688 12.769531 8.433594 12.484375 8.664062 11.972656 C 8.773438 11.726562 8.863281 11.488281 8.933594 11.261719 C 8.957031 11.179688 8.976562 11.085938 8.992188 10.980469 C 8.996094 10.953125 8.996094 10.898438 8.988281 10.824219 C 8.976562 10.734375 8.917969 10.675781 8.820312 10.660156 C 8.734375 10.644531 8.65625 10.648438 8.589844 10.671875 C 8.453125 10.71875 8.316406 10.800781 8.183594 10.917969 C 7.984375 11.089844 7.796875 11.289062 7.625 11.511719 C 7.09375 12.203125 6.699219 12.957031 6.441406 13.769531 C 6.429688 13.804688 6.363281 13.839844 6.324219 13.847656 C 6.203125 13.875 6.074219 13.882812 5.933594 13.871094 C 5.886719 13.871094 5.847656 13.859375 5.8125 13.839844 C 5.753906 13.808594 5.765625 13.730469 5.785156 13.667969 C 5.839844 13.488281 5.9375 13.214844 6.078125 12.855469 C 6.316406 12.234375 6.570312 11.566406 6.835938 10.851562 C 6.878906 10.738281 6.925781 10.613281 6.972656 10.480469 C 7.21875 9.789062 7.410156 9.25 7.546875 8.863281 C 7.597656 8.714844 7.648438 8.554688 7.695312 8.386719 C 7.714844 8.320312 7.722656 8.257812 7.726562 8.199219 C 7.734375 8.078125 7.578125 8.050781 7.484375 8.042969 C 7.480469 8.042969 7.398438 8.035156 7.242188 8.019531 C 7.226562 8.019531 7.214844 8.003906 7.214844 7.988281 L 7.214844 7.796875 C 7.214844 7.773438 7.226562 7.765625 7.246094 7.769531 C 7.257812 7.773438 7.273438 7.773438 7.292969 7.773438 C 7.371094 7.773438 7.753906 7.773438 8.4375 7.773438 C 8.519531 7.773438 8.609375 7.792969 8.585938 7.902344 C 8.578125 7.941406 8.5625 8.003906 8.535156 8.085938 C 8.453125 8.363281 8.347656 8.675781 8.226562 9.027344 C 7.949219 9.808594 7.644531 10.582031 7.308594 11.347656 C 7.304688 11.359375 7.296875 11.378906 7.292969 11.402344 C 7.285156 11.425781 7.292969 11.429688 7.3125 11.417969 Z M 7.3125 11.417969 "/>
<path style=" stroke:none;fill-rule:nonzero;fill:rgb(100%,100%,100%);fill-opacity:1;" d="M 17.820312 13.125 C 17.796875 13.226562 17.800781 13.375 17.957031 13.332031 C 18.007812 13.316406 18.050781 13.292969 18.097656 13.257812 C 18.175781 13.195312 18.257812 13.117188 18.347656 13.023438 C 18.527344 12.828125 18.625 12.722656 18.640625 12.707031 C 18.644531 12.699219 18.652344 12.699219 18.660156 12.699219 C 18.667969 12.699219 18.675781 12.703125 18.679688 12.707031 L 18.8125 12.875 C 18.824219 12.890625 18.824219 12.902344 18.8125 12.914062 C 18.777344 12.953125 18.738281 12.988281 18.707031 13.023438 C 18.585938 13.179688 18.457031 13.332031 18.324219 13.476562 C 18.191406 13.621094 18.050781 13.746094 17.898438 13.84375 C 17.703125 13.972656 17.460938 14.035156 17.246094 13.949219 C 17.03125 13.863281 16.976562 13.589844 17.007812 13.378906 C 17.019531 13.28125 17.042969 13.179688 17.074219 13.070312 C 17.222656 12.554688 17.40625 12.0625 17.597656 11.5625 C 17.785156 11.074219 18 10.53125 18.238281 9.9375 C 18.425781 9.464844 18.597656 9.023438 18.746094 8.613281 C 18.808594 8.453125 18.84375 8.339844 18.859375 8.273438 C 18.875 8.203125 18.851562 8.148438 18.792969 8.113281 C 18.738281 8.082031 18.664062 8.066406 18.597656 8.058594 C 18.527344 8.054688 18.457031 8.046875 18.386719 8.042969 C 18.375 8.042969 18.363281 8.03125 18.363281 8.015625 L 18.363281 7.8125 C 18.363281 7.796875 18.375 7.785156 18.390625 7.785156 C 19.078125 7.78125 19.476562 7.78125 19.589844 7.789062 C 19.609375 7.789062 19.621094 7.789062 19.632812 7.789062 C 19.707031 7.796875 19.738281 7.851562 19.714844 7.925781 C 19.6875 8 19.652344 8.097656 19.609375 8.214844 C 19.304688 9 18.964844 9.890625 18.589844 10.882812 C 18.355469 11.496094 18.144531 12.082031 17.960938 12.636719 C 17.90625 12.800781 17.859375 12.960938 17.820312 13.125 Z M 17.820312 13.125 "/>
<path style=" stroke:none;fill-rule:nonzero;fill:rgb(100%,100%,100%);fill-opacity:1;" d="M 12.316406 12.644531 C 12.3125 12.648438 12.300781 12.660156 12.289062 12.6875 C 12.085938 13.03125 11.832031 13.371094 11.546875 13.613281 C 11.285156 13.835938 10.96875 13.972656 10.640625 13.953125 C 10.351562 13.933594 10.167969 13.710938 10.109375 13.445312 C 10.054688 13.1875 10.085938 12.921875 10.148438 12.671875 C 10.289062 12.113281 10.53125 11.59375 10.867188 11.121094 C 11.328125 10.476562 12.007812 9.976562 12.835938 10.027344 C 12.945312 10.035156 13.066406 10.066406 13.171875 10.082031 C 13.28125 10.101562 13.324219 10.09375 13.382812 10 C 13.417969 9.941406 13.5 9.835938 13.578125 9.890625 C 13.6875 9.964844 13.78125 10.027344 13.859375 10.078125 C 13.894531 10.101562 13.90625 10.15625 13.890625 10.203125 C 13.832031 10.382812 13.792969 10.503906 13.773438 10.558594 C 13.503906 11.261719 13.300781 11.800781 13.160156 12.175781 C 13.089844 12.367188 13.019531 12.558594 12.949219 12.753906 C 12.886719 12.9375 12.84375 13.074219 12.824219 13.15625 C 12.816406 13.203125 12.792969 13.324219 12.847656 13.347656 C 12.894531 13.367188 12.9375 13.363281 12.984375 13.335938 C 13.042969 13.300781 13.097656 13.253906 13.152344 13.195312 C 13.277344 13.0625 13.417969 12.898438 13.570312 12.703125 C 13.585938 12.683594 13.605469 12.683594 13.621094 12.707031 L 13.761719 12.867188 C 13.765625 12.871094 13.761719 12.878906 13.757812 12.882812 C 13.699219 12.976562 13.628906 13.078125 13.546875 13.183594 C 13.390625 13.394531 13.21875 13.574219 13.035156 13.722656 C 12.875 13.847656 12.671875 13.949219 12.464844 13.964844 C 12.316406 13.976562 12.210938 13.933594 12.148438 13.828125 C 12.054688 13.683594 12.078125 13.453125 12.125 13.28125 C 12.15625 13.152344 12.1875 13.054688 12.214844 12.992188 C 12.273438 12.863281 12.316406 12.757812 12.351562 12.671875 C 12.375 12.613281 12.363281 12.605469 12.316406 12.644531 Z M 10.832031 12.34375 C 10.777344 12.574219 10.75 12.804688 10.753906 13.035156 C 10.753906 13.167969 10.777344 13.335938 10.941406 13.355469 C 11.054688 13.371094 11.171875 13.347656 11.289062 13.28125 C 11.394531 13.222656 11.484375 13.160156 11.558594 13.09375 C 11.738281 12.933594 11.902344 12.753906 12.058594 12.554688 C 12.367188 12.148438 12.628906 11.71875 12.839844 11.265625 C 12.886719 11.167969 12.929688 11.050781 12.972656 10.921875 C 13.011719 10.804688 13.015625 10.691406 12.984375 10.585938 C 12.925781 10.390625 12.789062 10.289062 12.574219 10.28125 C 12.230469 10.269531 11.910156 10.488281 11.679688 10.730469 C 11.261719 11.175781 10.976562 11.753906 10.832031 12.34375 Z M 10.832031 12.34375 "/>
<path style=" stroke:none;fill-rule:nonzero;fill:rgb(100%,100%,100%);fill-opacity:1;" d="M 15.585938 11.757812 C 15.601562 11.761719 15.609375 11.753906 15.621094 11.734375 C 15.804688 11.339844 16.011719 10.980469 16.242188 10.652344 C 16.292969 10.582031 16.363281 10.496094 16.453125 10.398438 C 16.671875 10.148438 16.941406 9.964844 17.269531 9.917969 C 17.375 9.90625 17.460938 9.914062 17.527344 9.949219 C 17.632812 10.003906 17.6875 10.101562 17.695312 10.242188 C 17.703125 10.417969 17.640625 10.628906 17.457031 10.683594 C 17.371094 10.707031 17.300781 10.691406 17.234375 10.632812 C 17.203125 10.601562 17.164062 10.5625 17.117188 10.503906 C 17.050781 10.429688 16.972656 10.410156 16.882812 10.449219 C 16.839844 10.464844 16.792969 10.492188 16.75 10.527344 C 16.578125 10.65625 16.429688 10.816406 16.304688 11.007812 C 16.121094 11.292969 15.941406 11.609375 15.761719 11.960938 C 15.464844 12.546875 15.257812 12.964844 15.140625 13.210938 C 15.078125 13.347656 14.996094 13.53125 14.902344 13.765625 C 14.890625 13.792969 14.871094 13.8125 14.847656 13.832031 C 14.828125 13.847656 14.804688 13.851562 14.769531 13.851562 C 14.652344 13.855469 14.542969 13.855469 14.449219 13.851562 C 14.417969 13.851562 14.398438 13.851562 14.382812 13.84375 C 14.292969 13.800781 14.359375 13.648438 14.382812 13.570312 C 14.585938 12.972656 14.902344 12.152344 15.125 11.417969 C 15.175781 11.253906 15.214844 11.09375 15.246094 10.925781 C 15.265625 10.832031 15.28125 10.695312 15.242188 10.601562 C 15.15625 10.402344 14.898438 10.671875 14.824219 10.75 C 14.710938 10.871094 14.601562 11.007812 14.492188 11.15625 C 14.488281 11.164062 14.480469 11.167969 14.472656 11.167969 C 14.464844 11.167969 14.457031 11.164062 14.453125 11.160156 L 14.320312 11.027344 C 14.3125 11.019531 14.3125 11.015625 14.316406 11.007812 C 14.46875 10.769531 14.652344 10.554688 14.855469 10.363281 C 15.050781 10.179688 15.445312 9.855469 15.730469 9.984375 C 15.859375 10.042969 15.890625 10.171875 15.878906 10.304688 C 15.871094 10.386719 15.851562 10.496094 15.824219 10.640625 C 15.761719 10.925781 15.691406 11.242188 15.605469 11.589844 C 15.589844 11.660156 15.578125 11.710938 15.578125 11.746094 C 15.578125 11.753906 15.582031 11.757812 15.585938 11.757812 Z M 15.585938 11.757812 "/>
<path style=" stroke:none;fill-rule:nonzero;fill:rgb(100%,100%,100%);fill-opacity:1;" d="M 23.707031 13.3125 C 23.832031 13.128906 23.804688 12.933594 23.6875 12.75 C 23.617188 12.640625 23.519531 12.503906 23.390625 12.339844 C 23.324219 12.257812 23.261719 12.160156 23.199219 12.050781 C 23.070312 11.828125 23.027344 11.597656 23.0625 11.351562 C 23.121094 10.976562 23.339844 10.609375 23.617188 10.34375 C 23.84375 10.125 24.128906 9.964844 24.445312 9.9375 C 24.5625 9.925781 24.671875 9.941406 24.78125 9.976562 C 24.921875 10.023438 25.0625 10.148438 25.074219 10.304688 C 25.082031 10.429688 25 10.550781 24.898438 10.621094 C 24.832031 10.671875 24.75 10.691406 24.664062 10.679688 C 24.597656 10.671875 24.546875 10.660156 24.503906 10.644531 C 24.386719 10.601562 24.292969 10.5625 24.222656 10.535156 C 23.855469 10.378906 23.546875 10.59375 23.542969 10.984375 C 23.542969 11.097656 23.574219 11.210938 23.636719 11.320312 C 23.6875 11.414062 23.726562 11.476562 23.753906 11.511719 C 23.824219 11.605469 23.917969 11.734375 24.03125 11.898438 C 24.175781 12.109375 24.296875 12.351562 24.320312 12.609375 C 24.351562 12.898438 24.21875 13.179688 24.023438 13.398438 C 23.8125 13.636719 23.53125 13.816406 23.226562 13.910156 C 23.09375 13.949219 22.964844 13.96875 22.84375 13.964844 C 22.585938 13.957031 22.359375 13.859375 22.171875 13.671875 C 22.132812 13.636719 22.105469 13.589844 22.085938 13.53125 C 22.074219 13.496094 22.074219 13.445312 22.082031 13.378906 C 22.101562 13.257812 22.132812 13 22.324219 13.058594 C 22.382812 13.074219 22.429688 13.101562 22.472656 13.136719 C 22.628906 13.273438 22.710938 13.34375 22.726562 13.359375 C 22.855469 13.460938 22.984375 13.523438 23.113281 13.542969 C 23.335938 13.578125 23.582031 13.496094 23.707031 13.3125 Z M 23.707031 13.3125 "/>
<path style=" stroke:none;fill-rule:nonzero;fill:rgb(100%,100%,100%);fill-opacity:1;" d="M 5.363281 10.316406 C 5.230469 10.320312 5.089844 10.398438 4.984375 10.476562 C 4.867188 10.5625 4.765625 10.652344 4.679688 10.742188 C 4.277344 11.171875 3.976562 11.652344 3.777344 12.183594 C 3.710938 12.367188 3.667969 12.542969 3.652344 12.71875 C 3.632812 12.984375 3.707031 13.273438 3.933594 13.429688 C 4.304688 13.6875 4.847656 13.339844 5.160156 13.09375 C 5.253906 13.015625 5.339844 12.945312 5.414062 12.878906 C 5.417969 12.875 5.425781 12.875 5.433594 12.878906 L 5.566406 13.015625 C 5.582031 13.027344 5.582031 13.046875 5.574219 13.0625 C 5.554688 13.097656 5.539062 13.125 5.523438 13.144531 C 5.25 13.476562 4.917969 13.71875 4.527344 13.871094 C 4.308594 13.953125 4.085938 13.984375 3.859375 13.957031 C 3.496094 13.914062 3.214844 13.707031 3.0625 13.375 C 2.996094 13.230469 2.957031 13.085938 2.945312 12.933594 C 2.84375 11.902344 3.507812 10.976562 4.339844 10.425781 C 4.75 10.152344 5.242188 9.949219 5.738281 9.957031 C 5.996094 9.960938 6.242188 10.066406 6.390625 10.28125 C 6.503906 10.445312 6.570312 10.742188 6.355469 10.859375 C 6.308594 10.886719 6.265625 10.898438 6.226562 10.898438 C 6.125 10.894531 6.023438 10.820312 5.964844 10.75 C 5.863281 10.632812 5.796875 10.558594 5.765625 10.523438 C 5.660156 10.40625 5.523438 10.308594 5.363281 10.316406 Z M 5.363281 10.316406 "/>
<path style=" stroke:none;fill-rule:nonzero;fill:rgb(100%,100%,100%);fill-opacity:1;" d="M 20.335938 11.632812 C 20.078125 12 19.902344 12.363281 19.902344 12.792969 C 19.902344 13.136719 20.089844 13.402344 20.445312 13.445312 C 20.5625 13.460938 20.683594 13.445312 20.800781 13.398438 C 20.910156 13.355469 21.007812 13.304688 21.097656 13.253906 C 21.1875 13.199219 21.335938 13.097656 21.546875 12.945312 C 21.601562 12.90625 21.636719 12.878906 21.652344 12.871094 C 21.660156 12.867188 21.671875 12.867188 21.679688 12.878906 L 21.800781 13.035156 C 21.804688 13.039062 21.808594 13.046875 21.804688 13.050781 C 21.78125 13.078125 21.757812 13.105469 21.726562 13.136719 C 21.546875 13.332031 21.332031 13.507812 21.078125 13.660156 C 20.890625 13.777344 20.699219 13.863281 20.503906 13.917969 C 19.933594 14.078125 19.363281 13.832031 19.191406 13.238281 C 19.144531 13.078125 19.128906 12.902344 19.144531 12.722656 C 19.191406 12.222656 19.394531 11.757812 19.683594 11.347656 C 20.023438 10.871094 20.441406 10.492188 20.941406 10.214844 C 21.089844 10.132812 21.257812 10.0625 21.449219 10.007812 C 21.847656 9.898438 22.386719 9.941406 22.585938 10.371094 C 22.691406 10.589844 22.613281 10.859375 22.453125 11.039062 C 22.347656 11.15625 22.21875 11.253906 22.0625 11.332031 C 21.699219 11.515625 21.296875 11.613281 20.855469 11.632812 C 20.710938 11.640625 20.519531 11.628906 20.351562 11.625 C 20.34375 11.625 20.339844 11.628906 20.335938 11.632812 Z M 20.535156 11.304688 C 20.53125 11.308594 20.535156 11.3125 20.539062 11.3125 C 20.800781 11.308594 21.050781 11.28125 21.28125 11.226562 C 21.539062 11.167969 21.839844 11.042969 21.96875 10.8125 C 22.082031 10.613281 22.082031 10.347656 21.851562 10.234375 C 21.667969 10.144531 21.425781 10.261719 21.28125 10.375 C 21.128906 10.492188 20.984375 10.644531 20.847656 10.824219 C 20.726562 10.984375 20.621094 11.144531 20.535156 11.304688 Z M 20.535156 11.304688 "/>
<path style=" stroke:none;fill-rule:nonzero;fill:rgb(0%,62.745098%,87.45098%);fill-opacity:1;" d="M 20.535156 11.304688 C 20.621094 11.144531 20.726562 10.984375 20.847656 10.824219 C 20.984375 10.644531 21.128906 10.492188 21.28125 10.375 C 21.425781 10.261719 21.667969 10.144531 21.851562 10.234375 C 22.082031 10.347656 22.082031 10.613281 21.96875 10.8125 C 21.839844 11.042969 21.539062 11.167969 21.28125 11.226562 C 21.050781 11.28125 20.800781 11.308594 20.539062 11.3125 C 20.535156 11.3125 20.53125 11.308594 20.535156 11.304688 Z M 20.535156 11.304688 "/>
<path style=" stroke:none;fill-rule:nonzero;fill:rgb(0%,62.745098%,87.45098%);fill-opacity:1;" d="M 10.832031 12.34375 C 10.976562 11.753906 11.261719 11.175781 11.679688 10.730469 C 11.910156 10.488281 12.230469 10.269531 12.574219 10.28125 C 12.789062 10.289062 12.925781 10.390625 12.984375 10.585938 C 13.015625 10.691406 13.011719 10.804688 12.972656 10.921875 C 12.929688 11.050781 12.886719 11.167969 12.839844 11.265625 C 12.628906 11.71875 12.367188 12.148438 12.058594 12.554688 C 11.902344 12.753906 11.738281 12.933594 11.558594 13.09375 C 11.484375 13.160156 11.394531 13.222656 11.289062 13.28125 C 11.171875 13.347656 11.054688 13.371094 10.941406 13.355469 C 10.777344 13.335938 10.753906 13.167969 10.753906 13.035156 C 10.75 12.804688 10.777344 12.574219 10.832031 12.34375 Z M 10.832031 12.34375 "/>
<path style=" stroke:none;fill-rule:nonzero;fill:rgb(100%,100%,100%);fill-opacity:1;" d="M 2.972656 18.03125 C 2.976562 18.03125 2.976562 18.035156 2.980469 18.035156 C 3.066406 18.285156 3.199219 18.503906 3.378906 18.691406 C 3.476562 18.796875 3.59375 18.871094 3.726562 18.917969 C 4.253906 19.105469 4.644531 18.679688 4.542969 18.164062 C 4.480469 17.851562 4.183594 17.679688 3.921875 17.550781 C 3.453125 17.324219 2.921875 17 2.933594 16.402344 C 2.953125 15.761719 3.441406 15.371094 4.054688 15.347656 C 4.25 15.339844 4.417969 15.351562 4.554688 15.386719 C 4.589844 15.394531 4.707031 15.433594 4.90625 15.496094 C 4.910156 15.5 4.914062 15.503906 4.914062 15.511719 C 4.945312 15.753906 4.980469 16.007812 5.03125 16.277344 C 5.03125 16.28125 5.027344 16.285156 5.023438 16.285156 L 4.839844 16.316406 C 4.835938 16.316406 4.828125 16.316406 4.828125 16.308594 C 4.710938 15.933594 4.515625 15.578125 4.058594 15.589844 C 3.746094 15.597656 3.539062 15.800781 3.507812 16.113281 C 3.476562 16.472656 3.75 16.6875 4.039062 16.824219 C 4.234375 16.921875 4.371094 16.988281 4.445312 17.023438 C 4.570312 17.085938 4.6875 17.164062 4.796875 17.261719 C 5.039062 17.464844 5.160156 17.726562 5.160156 18.042969 C 5.167969 18.585938 4.828125 19.015625 4.300781 19.152344 C 4.007812 19.226562 3.71875 19.226562 3.425781 19.148438 C 3.324219 19.117188 3.167969 19.066406 2.96875 18.988281 C 2.960938 18.984375 2.957031 18.980469 2.957031 18.972656 C 2.945312 18.9375 2.9375 18.910156 2.933594 18.898438 C 2.878906 18.648438 2.832031 18.382812 2.789062 18.105469 C 2.789062 18.101562 2.789062 18.101562 2.792969 18.097656 Z M 2.972656 18.03125 "/>
<path style=" stroke:none;fill-rule:nonzero;fill:rgb(100%,100%,100%);fill-opacity:1;" d="M 8.875 18.035156 L 9.03125 18.0625 C 9.035156 18.066406 9.039062 18.070312 9.039062 18.074219 C 8.960938 18.40625 8.867188 18.71875 8.757812 19.007812 C 8.753906 19.019531 8.742188 19.03125 8.726562 19.035156 C 8.46875 19.101562 8.222656 19.148438 7.984375 19.175781 C 7.613281 19.21875 7.257812 19.191406 6.910156 19.089844 C 5.863281 18.789062 5.378906 17.75 5.675781 16.734375 C 5.835938 16.164062 6.265625 15.730469 6.816406 15.511719 C 7.316406 15.316406 7.863281 15.304688 8.390625 15.402344 C 8.496094 15.421875 8.628906 15.453125 8.792969 15.488281 C 8.800781 15.492188 8.804688 15.496094 8.804688 15.503906 C 8.847656 15.863281 8.882812 16.160156 8.902344 16.394531 C 8.90625 16.40625 8.902344 16.410156 8.890625 16.410156 L 8.734375 16.425781 C 8.730469 16.425781 8.722656 16.425781 8.722656 16.417969 C 8.691406 16.285156 8.640625 16.164062 8.578125 16.050781 C 8.4375 15.800781 8.222656 15.652344 7.929688 15.609375 C 7.378906 15.527344 6.878906 15.695312 6.585938 16.191406 C 6.492188 16.351562 6.429688 16.523438 6.390625 16.703125 C 6.292969 17.183594 6.332031 17.648438 6.496094 18.09375 C 6.558594 18.257812 6.652344 18.410156 6.773438 18.550781 C 6.976562 18.789062 7.238281 18.921875 7.550781 18.957031 C 7.71875 18.972656 7.886719 18.957031 8.050781 18.910156 C 8.179688 18.871094 8.296875 18.804688 8.40625 18.707031 C 8.59375 18.539062 8.746094 18.285156 8.859375 18.042969 C 8.863281 18.035156 8.867188 18.03125 8.875 18.035156 Z M 8.875 18.035156 "/>
<path style=" stroke:none;fill-rule:nonzero;fill:rgb(100%,100%,100%);fill-opacity:1;" d="M 20.464844 17.828125 C 20.460938 17.820312 20.457031 17.816406 20.453125 17.816406 L 19.429688 17.816406 C 19.425781 17.816406 19.421875 17.820312 19.417969 17.824219 C 19.355469 17.972656 19.285156 18.1875 19.152344 18.574219 C 19.125 18.652344 19.113281 18.726562 19.125 18.796875 C 19.128906 18.824219 19.144531 18.847656 19.175781 18.875 C 19.191406 18.882812 19.238281 18.898438 19.316406 18.914062 C 19.320312 18.914062 19.386719 18.921875 19.515625 18.9375 C 19.519531 18.9375 19.519531 18.941406 19.519531 18.945312 L 19.519531 19.113281 C 19.519531 19.117188 19.519531 19.117188 19.515625 19.117188 L 18.25 19.117188 C 18.246094 19.117188 18.246094 19.117188 18.246094 19.113281 L 18.246094 18.945312 C 18.246094 18.941406 18.246094 18.9375 18.25 18.9375 C 18.453125 18.921875 18.605469 18.890625 18.707031 18.707031 C 18.757812 18.609375 18.808594 18.507812 18.851562 18.390625 C 18.878906 18.320312 19.265625 17.328125 20.011719 15.410156 C 20.011719 15.402344 20.019531 15.398438 20.023438 15.398438 L 20.25 15.378906 C 20.257812 15.375 20.261719 15.378906 20.265625 15.386719 C 20.574219 16.226562 20.933594 17.210938 21.335938 18.34375 C 21.394531 18.5 21.449219 18.628906 21.507812 18.722656 C 21.574219 18.835938 21.679688 18.90625 21.816406 18.925781 C 21.863281 18.933594 21.898438 18.933594 21.921875 18.933594 C 21.941406 18.933594 21.953125 18.945312 21.953125 18.964844 L 21.953125 19.085938 C 21.953125 19.109375 21.941406 19.117188 21.921875 19.117188 L 20.445312 19.117188 C 20.441406 19.117188 20.441406 19.117188 20.441406 19.113281 L 20.441406 18.941406 C 20.441406 18.9375 20.441406 18.9375 20.445312 18.9375 C 20.472656 18.933594 20.542969 18.925781 20.65625 18.910156 C 20.707031 18.90625 20.75 18.886719 20.78125 18.855469 C 20.824219 18.816406 20.777344 18.65625 20.761719 18.617188 C 20.671875 18.371094 20.574219 18.105469 20.464844 17.828125 Z M 19.480469 17.519531 C 19.480469 17.519531 19.480469 17.523438 19.484375 17.523438 C 19.484375 17.527344 19.484375 17.527344 19.488281 17.527344 L 20.339844 17.527344 C 20.34375 17.527344 20.34375 17.527344 20.347656 17.527344 C 20.347656 17.523438 20.347656 17.523438 20.347656 17.519531 L 19.921875 16.324219 C 19.921875 16.320312 19.917969 16.320312 19.917969 16.320312 C 19.914062 16.320312 19.910156 16.320312 19.910156 16.324219 Z M 19.480469 17.519531 "/>
<path style=" stroke:none;fill-rule:nonzero;fill:rgb(100%,100%,100%);fill-opacity:1;" d="M 24.234375 17.074219 C 24.4375 17.101562 24.625 17.167969 24.796875 17.277344 C 25.015625 17.414062 25.144531 17.613281 25.1875 17.867188 C 25.226562 18.136719 25.171875 18.375 25.019531 18.589844 C 24.9375 18.699219 24.824219 18.800781 24.679688 18.882812 C 24.550781 18.957031 24.398438 19.015625 24.222656 19.046875 C 24.023438 19.085938 23.820312 19.105469 23.605469 19.105469 C 22.851562 19.105469 22.378906 19.105469 22.183594 19.105469 C 22.179688 19.105469 22.175781 19.105469 22.175781 19.101562 L 22.175781 18.929688 C 22.175781 18.925781 22.175781 18.925781 22.179688 18.925781 C 22.351562 18.917969 22.464844 18.898438 22.523438 18.859375 C 22.625 18.796875 22.644531 18.683594 22.660156 18.546875 C 22.664062 18.492188 22.667969 18.425781 22.667969 18.355469 C 22.667969 17.527344 22.667969 16.769531 22.667969 16.074219 C 22.667969 15.980469 22.65625 15.890625 22.636719 15.804688 C 22.601562 15.652344 22.496094 15.609375 22.355469 15.59375 C 22.300781 15.585938 22.261719 15.582031 22.242188 15.585938 C 22.21875 15.585938 22.207031 15.574219 22.210938 15.550781 C 22.210938 15.496094 22.210938 15.457031 22.207031 15.433594 C 22.203125 15.410156 22.214844 15.398438 22.238281 15.398438 C 22.640625 15.398438 23.144531 15.398438 23.753906 15.398438 C 23.777344 15.398438 23.800781 15.414062 23.820312 15.414062 C 24 15.410156 24.167969 15.425781 24.316406 15.453125 C 24.484375 15.488281 24.660156 15.578125 24.777344 15.699219 C 24.921875 15.84375 24.992188 16.035156 24.984375 16.269531 C 24.976562 16.691406 24.613281 16.972656 24.234375 17.0625 C 24.207031 17.066406 24.207031 17.074219 24.234375 17.074219 Z M 23.328125 15.679688 C 23.292969 15.722656 23.296875 15.8125 23.296875 15.902344 C 23.296875 16.292969 23.296875 16.664062 23.292969 17.015625 C 23.292969 17.019531 23.296875 17.023438 23.300781 17.023438 C 23.433594 17.027344 23.554688 17.023438 23.664062 17.015625 C 23.890625 16.996094 24.125 16.890625 24.226562 16.683594 C 24.316406 16.5 24.328125 16.296875 24.269531 16.082031 C 24.1875 15.792969 23.902344 15.652344 23.625 15.648438 C 23.496094 15.648438 23.40625 15.652344 23.359375 15.664062 C 23.34375 15.667969 23.332031 15.675781 23.328125 15.679688 Z M 23.320312 17.25 C 23.3125 17.25 23.308594 17.253906 23.308594 17.261719 C 23.304688 17.855469 23.304688 18.183594 23.304688 18.246094 C 23.304688 18.355469 23.3125 18.460938 23.328125 18.566406 C 23.347656 18.71875 23.402344 18.839844 23.574219 18.859375 C 24.007812 18.917969 24.382812 18.734375 24.46875 18.277344 C 24.496094 18.125 24.488281 17.980469 24.453125 17.84375 C 24.386719 17.589844 24.226562 17.414062 23.976562 17.324219 C 23.894531 17.292969 23.816406 17.273438 23.746094 17.265625 C 23.617188 17.25 23.476562 17.242188 23.320312 17.25 Z M 23.320312 17.25 "/>
<path style=" stroke:none;fill-rule:nonzero;fill:rgb(100%,100%,100%);fill-opacity:1;" d="M 12.140625 17.011719 C 12.144531 16.703125 12.140625 16.402344 12.136719 16.101562 C 12.136719 15.984375 12.132812 15.746094 12.019531 15.667969 C 11.972656 15.636719 11.90625 15.613281 11.828125 15.605469 C 11.742188 15.597656 11.6875 15.589844 11.667969 15.589844 C 11.664062 15.589844 11.660156 15.589844 11.660156 15.585938 L 11.660156 15.414062 C 11.660156 15.414062 11.660156 15.410156 11.664062 15.410156 L 13.265625 15.410156 C 13.269531 15.410156 13.269531 15.410156 13.269531 15.414062 C 13.273438 15.414062 13.273438 15.414062 13.273438 15.414062 L 13.261719 15.585938 C 13.261719 15.589844 13.257812 15.589844 13.253906 15.589844 C 13.105469 15.601562 13 15.617188 12.941406 15.640625 C 12.859375 15.675781 12.808594 15.738281 12.792969 15.832031 C 12.78125 15.917969 12.773438 16.003906 12.773438 16.089844 C 12.769531 16.152344 12.769531 16.863281 12.765625 18.222656 C 12.765625 18.371094 12.773438 18.511719 12.789062 18.648438 C 12.792969 18.707031 12.808594 18.757812 12.835938 18.800781 C 12.890625 18.886719 12.992188 18.914062 13.097656 18.925781 C 13.179688 18.933594 13.234375 18.9375 13.253906 18.9375 C 13.257812 18.9375 13.261719 18.941406 13.261719 18.941406 L 13.261719 19.113281 C 13.261719 19.117188 13.257812 19.117188 13.257812 19.117188 L 11.609375 19.117188 C 11.605469 19.117188 11.601562 19.117188 11.601562 19.113281 L 11.601562 18.945312 C 11.601562 18.941406 11.605469 18.9375 11.609375 18.9375 C 11.667969 18.9375 11.738281 18.929688 11.8125 18.917969 C 11.976562 18.898438 12.082031 18.839844 12.109375 18.667969 C 12.125 18.566406 12.128906 18.445312 12.128906 18.308594 C 12.128906 17.78125 12.128906 17.449219 12.128906 17.308594 C 12.128906 17.304688 12.125 17.304688 12.121094 17.304688 L 10.433594 17.304688 C 10.429688 17.304688 10.425781 17.304688 10.425781 17.308594 C 10.425781 17.578125 10.425781 17.929688 10.429688 18.371094 C 10.429688 18.492188 10.4375 18.601562 10.457031 18.695312 C 10.488281 18.855469 10.605469 18.90625 10.753906 18.921875 C 10.808594 18.929688 10.863281 18.933594 10.914062 18.9375 C 10.917969 18.9375 10.921875 18.941406 10.921875 18.945312 L 10.921875 19.113281 C 10.921875 19.117188 10.917969 19.117188 10.914062 19.117188 L 9.289062 19.117188 C 9.285156 19.117188 9.285156 19.117188 9.285156 19.113281 L 9.285156 18.945312 C 9.285156 18.941406 9.285156 18.941406 9.289062 18.9375 C 9.359375 18.933594 9.433594 18.925781 9.511719 18.914062 C 9.628906 18.894531 9.726562 18.839844 9.757812 18.710938 C 9.777344 18.628906 9.785156 18.542969 9.789062 18.453125 C 9.789062 17.929688 9.789062 17.230469 9.789062 16.355469 C 9.789062 16.175781 9.792969 16 9.761719 15.832031 C 9.753906 15.792969 9.734375 15.75 9.703125 15.710938 C 9.652344 15.640625 9.535156 15.617188 9.445312 15.605469 C 9.355469 15.597656 9.296875 15.59375 9.265625 15.589844 C 9.261719 15.589844 9.261719 15.589844 9.261719 15.585938 L 9.261719 15.417969 C 9.261719 15.414062 9.261719 15.410156 9.265625 15.410156 L 10.890625 15.410156 C 10.894531 15.410156 10.898438 15.414062 10.898438 15.417969 L 10.898438 15.585938 C 10.898438 15.589844 10.894531 15.59375 10.894531 15.59375 C 10.835938 15.59375 10.773438 15.601562 10.703125 15.613281 C 10.554688 15.632812 10.472656 15.714844 10.449219 15.855469 C 10.4375 15.953125 10.429688 16.039062 10.429688 16.113281 C 10.425781 16.429688 10.425781 16.730469 10.425781 17.015625 C 10.425781 17.019531 10.429688 17.023438 10.433594 17.023438 L 12.128906 17.023438 C 12.136719 17.023438 12.140625 17.019531 12.140625 17.011719 Z M 12.140625 17.011719 "/>
<path style=" stroke:none;fill-rule:nonzero;fill:rgb(100%,100%,100%);fill-opacity:1;" d="M 15.382812 18.132812 C 15.386719 18.144531 15.390625 18.144531 15.394531 18.132812 L 16.238281 15.476562 C 16.238281 15.472656 16.242188 15.46875 16.25 15.46875 L 16.453125 15.46875 C 16.457031 15.46875 16.460938 15.46875 16.460938 15.476562 L 17.4375 18.128906 C 17.445312 18.148438 17.453125 18.148438 17.460938 18.125 C 17.667969 17.40625 17.859375 16.6875 18.042969 15.972656 C 18.050781 15.933594 18.058594 15.890625 18.0625 15.851562 C 18.066406 15.773438 18.078125 15.707031 18.027344 15.660156 C 17.972656 15.613281 17.878906 15.601562 17.792969 15.597656 C 17.730469 15.59375 17.683594 15.59375 17.644531 15.589844 C 17.640625 15.589844 17.640625 15.589844 17.640625 15.585938 L 17.640625 15.414062 C 17.640625 15.414062 17.640625 15.410156 17.644531 15.410156 L 18.945312 15.410156 C 18.949219 15.410156 18.949219 15.414062 18.949219 15.414062 L 18.949219 15.597656 C 18.949219 15.601562 18.949219 15.601562 18.945312 15.601562 C 18.921875 15.605469 18.871094 15.609375 18.792969 15.617188 C 18.664062 15.636719 18.566406 15.699219 18.507812 15.816406 C 18.449219 15.929688 18.398438 16.050781 18.351562 16.1875 C 18.011719 17.203125 17.695312 18.195312 17.40625 19.164062 C 17.402344 19.171875 17.398438 19.175781 17.390625 19.175781 L 17.152344 19.175781 C 17.148438 19.175781 17.144531 19.171875 17.140625 19.167969 L 16.179688 16.554688 C 16.175781 16.539062 16.167969 16.539062 16.164062 16.554688 C 16.128906 16.671875 16.085938 16.804688 16.039062 16.949219 C 15.75 17.824219 15.503906 18.5625 15.300781 19.164062 C 15.300781 19.171875 15.292969 19.175781 15.289062 19.175781 L 15.039062 19.175781 C 15.035156 19.175781 15.03125 19.171875 15.027344 19.167969 C 14.625 17.851562 14.3125 16.84375 14.097656 16.136719 C 14.070312 16.050781 14.03125 15.957031 13.984375 15.847656 C 13.921875 15.714844 13.8125 15.636719 13.664062 15.617188 C 13.609375 15.609375 13.578125 15.605469 13.570312 15.605469 C 13.550781 15.605469 13.539062 15.597656 13.539062 15.578125 L 13.539062 15.449219 C 13.539062 15.429688 13.546875 15.421875 13.566406 15.421875 L 15.082031 15.421875 C 15.085938 15.421875 15.085938 15.425781 15.085938 15.425781 L 15.085938 15.59375 C 15.085938 15.601562 15.082031 15.601562 15.078125 15.601562 C 14.976562 15.609375 14.917969 15.613281 14.894531 15.613281 C 14.796875 15.625 14.6875 15.660156 14.695312 15.785156 C 14.699219 15.875 14.730469 15.964844 14.757812 16.058594 C 14.960938 16.730469 15.167969 17.421875 15.382812 18.132812 Z M 15.382812 18.132812 "/>
<path style=" stroke:none;fill-rule:nonzero;fill:rgb(0%,62.745098%,87.45098%);fill-opacity:1;" d="M 23.359375 15.664062 C 23.40625 15.652344 23.496094 15.648438 23.625 15.648438 C 23.902344 15.652344 24.1875 15.792969 24.269531 16.082031 C 24.328125 16.296875 24.316406 16.5 24.226562 16.683594 C 24.125 16.890625 23.890625 16.996094 23.664062 17.015625 C 23.554688 17.023438 23.433594 17.027344 23.300781 17.023438 C 23.296875 17.023438 23.292969 17.019531 23.292969 17.015625 C 23.296875 16.664062 23.296875 16.292969 23.296875 15.902344 C 23.296875 15.8125 23.292969 15.722656 23.328125 15.679688 C 23.332031 15.675781 23.34375 15.667969 23.359375 15.664062 Z M 23.359375 15.664062 "/>
<path style=" stroke:none;fill-rule:nonzero;fill:rgb(0%,62.745098%,87.45098%);fill-opacity:1;" d="M 19.480469 17.519531 L 19.910156 16.324219 C 19.910156 16.320312 19.914062 16.320312 19.917969 16.320312 C 19.917969 16.320312 19.921875 16.320312 19.921875 16.324219 L 20.347656 17.519531 C 20.347656 17.523438 20.347656 17.523438 20.347656 17.527344 C 20.34375 17.527344 20.34375 17.527344 20.339844 17.527344 L 19.488281 17.527344 C 19.484375 17.527344 19.484375 17.527344 19.484375 17.523438 C 19.480469 17.523438 19.480469 17.519531 19.480469 17.519531 Z M 19.480469 17.519531 "/>
<path style=" stroke:none;fill-rule:nonzero;fill:rgb(0%,62.745098%,87.45098%);fill-opacity:1;" d="M 23.320312 17.25 C 23.476562 17.242188 23.617188 17.25 23.746094 17.265625 C 23.816406 17.273438 23.894531 17.292969 23.976562 17.324219 C 24.226562 17.414062 24.386719 17.589844 24.453125 17.84375 C 24.488281 17.980469 24.496094 18.125 24.46875 18.277344 C 24.382812 18.734375 24.007812 18.917969 23.574219 18.859375 C 23.402344 18.839844 23.347656 18.71875 23.328125 18.566406 C 23.3125 18.460938 23.304688 18.355469 23.304688 18.246094 C 23.304688 18.183594 23.304688 17.855469 23.308594 17.261719 C 23.308594 17.253906 23.3125 17.25 23.320312 17.25 Z M 23.320312 17.25 "/>
</g>
</svg>