<?xml version="1.0" encoding="UTF-8"?>
<svg xmlns="http://www.w3.org/2000/svg" xmlns:xlink="http://www.w3.org/1999/xlink" width="28px" height="28px" viewBox="0 0 28 28" version="1.1">
<g id="surface1">
<path style=" stroke:none;fill-rule:nonzero;fill:rgb(9.019608%,19.215686%,28.235294%);fill-opacity:1;" d="M 0 0 C 9.238281 0 18.480469 0 28 0 C 28 9.238281 28 18.480469 28 28 C 18.761719 28 9.519531 28 0 28 C 0 18.761719 0 9.519531 0 0 Z M 0 0 "/>
<path style=" stroke:none;fill-rule:nonzero;fill:rgb(10.196078%,19.607843%,28.235294%);fill-opacity:1;" d="M 14.875 11.726562 C 15.121094 11.722656 15.371094 11.71875 15.617188 11.71875 C 15.703125 11.71875 15.785156 11.714844 15.871094 11.714844 C 15.992188 11.714844 16.113281 11.710938 16.234375 11.710938 C 16.289062 11.710938 16.289062 11.710938 16.347656 11.710938 C 16.453125 11.710938 16.453125 11.710938 16.625 11.726562 C 16.652344 11.769531 16.683594 11.8125 16.710938 11.855469 C 16.726562 11.8125 16.742188 11.769531 16.757812 11.726562 C 16.84375 11.722656 16.933594 11.722656 17.023438 11.71875 C 17.097656 11.71875 17.097656 11.71875 17.175781 11.714844 C 17.339844 11.726562 17.441406 11.738281 17.585938 11.8125 C 17.679688 11.921875 17.75 12.042969 17.824219 12.167969 C 17.84375 12.199219 17.863281 12.234375 17.882812 12.269531 C 17.929688 12.347656 17.976562 12.429688 18.023438 12.511719 C 18.082031 12.429688 18.140625 12.34375 18.195312 12.257812 C 18.246094 12.1875 18.246094 12.1875 18.292969 12.113281 C 18.378906 11.992188 18.378906 11.992188 18.417969 11.855469 C 18.359375 11.84375 18.304688 11.828125 18.242188 11.8125 C 18.242188 11.796875 18.242188 11.785156 18.242188 11.769531 C 18.429688 11.769531 18.617188 11.769531 18.8125 11.769531 C 18.726562 11.855469 18.726562 11.855469 18.640625 11.890625 C 18.515625 11.964844 18.46875 12.054688 18.394531 12.179688 C 18.25 12.421875 18.25 12.421875 18.164062 12.515625 C 18.148438 12.542969 18.128906 12.570312 18.113281 12.601562 C 18.164062 12.753906 18.238281 12.890625 18.320312 13.035156 C 18.355469 13.09375 18.355469 13.09375 18.390625 13.152344 C 18.414062 13.195312 18.4375 13.234375 18.460938 13.277344 C 18.511719 13.359375 18.558594 13.441406 18.605469 13.523438 C 18.625 13.558594 18.648438 13.59375 18.667969 13.632812 C 18.726562 13.738281 18.726562 13.738281 18.769531 13.859375 C 18.78125 13.890625 18.796875 13.921875 18.8125 13.957031 C 18.878906 13.976562 18.878906 13.976562 18.945312 14 C 18.375 14.054688 18.375 14.054688 18.183594 13.9375 C 18.101562 13.84375 18.042969 13.753906 17.980469 13.648438 C 17.960938 13.613281 17.9375 13.578125 17.914062 13.542969 C 17.761719 13.285156 17.761719 13.285156 17.761719 13.167969 C 17.734375 13.167969 17.703125 13.167969 17.675781 13.167969 C 17.664062 13.199219 17.652344 13.230469 17.640625 13.265625 C 17.585938 13.394531 17.515625 13.5 17.429688 13.613281 C 17.328125 13.757812 17.328125 13.757812 17.238281 13.914062 C 17.367188 13.933594 17.367188 13.933594 17.5 13.957031 C 17.5 13.984375 17.5 14.015625 17.5 14.042969 C 17.269531 14.042969 17.039062 14.042969 16.800781 14.042969 C 16.800781 14.117188 16.800781 14.1875 16.800781 14.261719 C 16.757812 14.261719 16.714844 14.261719 16.667969 14.261719 C 16.675781 14.230469 16.683594 14.203125 16.691406 14.167969 C 16.714844 14.035156 16.71875 13.910156 16.71875 13.777344 C 16.71875 13.730469 16.71875 13.683594 16.71875 13.640625 C 16.71875 13.515625 16.71875 13.515625 16.667969 13.386719 C 16.539062 13.367188 16.539062 13.367188 16.40625 13.34375 C 16.40625 13.285156 16.40625 13.226562 16.40625 13.167969 C 16.378906 13.191406 16.355469 13.214844 16.328125 13.238281 C 16.296875 13.257812 16.265625 13.277344 16.230469 13.300781 C 16.167969 13.277344 16.167969 13.277344 16.101562 13.257812 C 16.082031 13.214844 16.066406 13.167969 16.046875 13.125 C 16.023438 13.082031 15.996094 13.039062 15.96875 12.992188 C 15.851562 12.980469 15.738281 12.964844 15.617188 12.949219 C 15.617188 13.269531 15.617188 13.585938 15.617188 13.914062 C 15.863281 13.914062 16.109375 13.914062 16.363281 13.914062 C 16.375 13.824219 16.390625 13.738281 16.40625 13.648438 C 16.464844 13.523438 16.464844 13.523438 16.539062 13.429688 C 16.582031 13.429688 16.625 13.429688 16.667969 13.429688 C 16.667969 13.632812 16.667969 13.835938 16.667969 14.042969 C 16.078125 14.042969 15.484375 14.042969 14.875 14.042969 C 14.875 14.015625 14.875 13.984375 14.875 13.957031 C 14.960938 13.933594 14.960938 13.933594 15.050781 13.914062 C 15.050781 13.21875 15.050781 12.527344 15.050781 11.8125 C 14.992188 11.8125 14.933594 11.8125 14.875 11.8125 C 14.875 11.785156 14.875 11.753906 14.875 11.726562 Z M 14.875 11.726562 "/>
<path style=" stroke:none;fill-rule:nonzero;fill:rgb(97.647059%,99.215686%,99.215686%);fill-opacity:1;" d="M 14.875 11.726562 C 15.453125 11.726562 16.03125 11.726562 16.625 11.726562 C 16.625 11.925781 16.625 12.128906 16.625 12.335938 C 16.449219 12.292969 16.449219 12.292969 16.394531 12.226562 C 16.375 12.1875 16.375 12.1875 16.351562 12.144531 C 16.335938 12.121094 16.320312 12.09375 16.308594 12.066406 C 16.273438 11.988281 16.273438 11.988281 16.273438 11.855469 C 16.058594 11.855469 15.84375 11.855469 15.617188 11.855469 C 15.617188 12.1875 15.617188 12.519531 15.617188 12.863281 C 15.734375 12.863281 15.851562 12.863281 15.96875 12.863281 C 15.980469 12.820312 15.996094 12.78125 16.007812 12.738281 C 16.054688 12.601562 16.054688 12.601562 16.101562 12.511719 C 16.144531 12.511719 16.1875 12.511719 16.230469 12.511719 C 16.230469 12.757812 16.230469 13.003906 16.230469 13.257812 C 16.1875 13.257812 16.144531 13.257812 16.101562 13.257812 C 16.085938 13.214844 16.070312 13.171875 16.054688 13.128906 C 16.011719 13.0625 16.011719 13.0625 15.96875 12.992188 C 15.851562 12.980469 15.738281 12.964844 15.617188 12.949219 C 15.617188 13.269531 15.617188 13.585938 15.617188 13.914062 C 15.863281 13.914062 16.109375 13.914062 16.363281 13.914062 C 16.375 13.824219 16.390625 13.738281 16.40625 13.648438 C 16.464844 13.523438 16.464844 13.523438 16.539062 13.429688 C 16.582031 13.429688 16.625 13.429688 16.667969 13.429688 C 16.667969 13.632812 16.667969 13.835938 16.667969 14.042969 C 16.078125 14.042969 15.484375 14.042969 14.875 14.042969 C 14.875 14.015625 14.875 13.984375 14.875 13.957031 C 14.960938 13.933594 14.960938 13.933594 15.050781 13.914062 C 15.050781 13.21875 15.050781 12.527344 15.050781 11.8125 C 14.992188 11.8125 14.933594 11.8125 14.875 11.8125 C 14.875 11.785156 14.875 11.753906 14.875 11.726562 Z M 14.875 11.726562 "/>
<path style=" stroke:none;fill-rule:nonzero;fill:rgb(98.039216%,99.607843%,98.823529%);fill-opacity:1;" d="M 9.230469 11.769531 C 9.792969 11.769531 10.355469 11.769531 10.9375 11.769531 C 10.9375 11.957031 10.9375 12.144531 10.9375 12.335938 C 10.71875 12.25 10.71875 12.25 10.660156 12.148438 C 10.632812 12.03125 10.632812 12.03125 10.632812 11.8125 C 10.398438 11.8125 10.167969 11.8125 9.929688 11.8125 C 9.929688 12.160156 9.929688 12.503906 9.929688 12.863281 C 10.0625 12.863281 10.191406 12.863281 10.324219 12.863281 C 10.335938 12.800781 10.335938 12.800781 10.34375 12.738281 C 10.367188 12.601562 10.367188 12.601562 10.414062 12.511719 C 10.457031 12.511719 10.5 12.511719 10.542969 12.511719 C 10.542969 12.757812 10.542969 13.003906 10.542969 13.257812 C 10.5 13.257812 10.457031 13.257812 10.414062 13.257812 C 10.347656 13.140625 10.324219 13.085938 10.324219 12.949219 C 10.195312 12.949219 10.066406 12.949219 9.929688 12.949219 C 9.929688 13.269531 9.929688 13.585938 9.929688 13.914062 C 10.175781 13.914062 10.421875 13.914062 10.675781 13.914062 C 10.6875 13.824219 10.703125 13.738281 10.71875 13.648438 C 10.804688 13.523438 10.804688 13.523438 10.894531 13.429688 C 10.921875 13.429688 10.953125 13.429688 10.980469 13.429688 C 10.980469 13.617188 10.980469 13.804688 10.980469 14 C 10.402344 14 9.828125 14 9.230469 14 C 9.273438 13.972656 9.316406 13.941406 9.363281 13.914062 C 9.382812 13.820312 9.382812 13.820312 9.378906 13.714844 C 9.378906 13.675781 9.378906 13.632812 9.378906 13.589844 C 9.378906 13.546875 9.378906 13.503906 9.378906 13.457031 C 9.378906 13.410156 9.378906 13.367188 9.378906 13.320312 C 9.378906 13.222656 9.378906 13.128906 9.378906 13.03125 C 9.378906 12.886719 9.378906 12.738281 9.378906 12.589844 C 9.378906 12.496094 9.378906 12.40625 9.378906 12.3125 C 9.378906 12.265625 9.378906 12.222656 9.378906 12.175781 C 9.378906 12.117188 9.378906 12.117188 9.378906 12.054688 C 9.378906 12.015625 9.378906 11.980469 9.378906 11.945312 C 9.375 11.914062 9.367188 11.886719 9.363281 11.855469 C 9.320312 11.828125 9.277344 11.796875 9.230469 11.769531 Z M 9.230469 11.769531 "/>
<path style=" stroke:none;fill-rule:nonzero;fill:rgb(95.294118%,96.862745%,97.254902%);fill-opacity:1;" d="M 16.800781 11.769531 C 16.914062 11.765625 17.027344 11.761719 17.140625 11.757812 C 17.171875 11.757812 17.203125 11.753906 17.234375 11.753906 C 17.382812 11.75 17.476562 11.753906 17.597656 11.839844 C 17.691406 11.96875 17.777344 12.101562 17.859375 12.238281 C 17.875 12.265625 17.894531 12.292969 17.910156 12.320312 C 17.949219 12.382812 17.988281 12.449219 18.023438 12.511719 C 18.082031 12.429688 18.140625 12.34375 18.195312 12.257812 C 18.230469 12.210938 18.261719 12.164062 18.292969 12.113281 C 18.378906 11.992188 18.378906 11.992188 18.417969 11.855469 C 18.359375 11.84375 18.304688 11.828125 18.242188 11.8125 C 18.242188 11.796875 18.242188 11.785156 18.242188 11.769531 C 18.429688 11.769531 18.617188 11.769531 18.8125 11.769531 C 18.726562 11.855469 18.726562 11.855469 18.640625 11.890625 C 18.515625 11.964844 18.46875 12.054688 18.394531 12.179688 C 18.25 12.421875 18.25 12.421875 18.164062 12.515625 C 18.136719 12.558594 18.136719 12.558594 18.113281 12.601562 C 18.164062 12.753906 18.238281 12.890625 18.320312 13.035156 C 18.34375 13.074219 18.367188 13.113281 18.390625 13.152344 C 18.414062 13.195312 18.4375 13.234375 18.460938 13.277344 C 18.511719 13.359375 18.558594 13.441406 18.605469 13.523438 C 18.625 13.558594 18.648438 13.59375 18.667969 13.632812 C 18.726562 13.738281 18.726562 13.738281 18.769531 13.859375 C 18.78125 13.890625 18.796875 13.921875 18.8125 13.957031 C 18.855469 13.96875 18.898438 13.984375 18.945312 14 C 18.375 14.054688 18.375 14.054688 18.183594 13.9375 C 18.101562 13.84375 18.042969 13.753906 17.980469 13.648438 C 17.960938 13.613281 17.9375 13.578125 17.914062 13.542969 C 17.761719 13.285156 17.761719 13.285156 17.761719 13.167969 C 17.734375 13.167969 17.703125 13.167969 17.675781 13.167969 C 17.664062 13.199219 17.652344 13.230469 17.640625 13.265625 C 17.585938 13.394531 17.515625 13.5 17.429688 13.613281 C 17.328125 13.757812 17.328125 13.757812 17.238281 13.914062 C 17.308594 13.925781 17.382812 13.941406 17.457031 13.957031 C 17.457031 13.96875 17.457031 13.984375 17.457031 14 C 17.269531 14 17.082031 14 16.886719 14 C 16.902344 13.972656 16.917969 13.941406 16.929688 13.914062 C 16.984375 13.90625 16.984375 13.90625 17.039062 13.898438 C 17.09375 13.882812 17.09375 13.882812 17.148438 13.867188 C 17.179688 13.796875 17.210938 13.722656 17.238281 13.648438 C 17.328125 13.515625 17.421875 13.386719 17.519531 13.257812 C 17.597656 13.132812 17.597656 13.132812 17.59375 13.003906 C 17.519531 12.789062 17.402344 12.609375 17.285156 12.417969 C 17.261719 12.378906 17.234375 12.339844 17.210938 12.296875 C 17.042969 12 17.042969 12 16.800781 11.769531 Z M 16.800781 11.769531 "/>
<path style=" stroke:none;fill-rule:nonzero;fill:rgb(98.039216%,99.215686%,98.823529%);fill-opacity:1;" d="M 12.730469 11.769531 C 13.351562 11.769531 13.972656 11.769531 14.613281 11.769531 C 14.613281 11.957031 14.613281 12.144531 14.613281 12.335938 C 14.570312 12.335938 14.527344 12.335938 14.480469 12.335938 C 14.375 12.152344 14.335938 12.027344 14.351562 11.8125 C 14.21875 11.8125 14.089844 11.8125 13.957031 11.8125 C 13.957031 12.519531 13.957031 13.226562 13.957031 13.957031 C 14.015625 13.96875 14.070312 13.984375 14.132812 14 C 13.84375 14 13.554688 14 13.257812 14 C 13.34375 13.976562 13.34375 13.976562 13.429688 13.957031 C 13.429688 13.25 13.429688 12.542969 13.429688 11.8125 C 13.300781 11.8125 13.171875 11.8125 13.039062 11.8125 C 13.03125 11.859375 13.027344 11.90625 13.023438 11.953125 C 12.996094 12.113281 12.964844 12.207031 12.863281 12.335938 C 12.820312 12.335938 12.777344 12.335938 12.730469 12.335938 C 12.730469 12.148438 12.730469 11.960938 12.730469 11.769531 Z M 12.730469 11.769531 "/>
<path style=" stroke:none;fill-rule:nonzero;fill:rgb(8.627451%,20.392157%,29.411765%);fill-opacity:1;" d="M 13.476562 15.589844 C 13.605469 15.601562 13.648438 15.617188 13.757812 15.699219 C 13.894531 15.890625 13.890625 16.089844 13.867188 16.320312 C 13.808594 16.449219 13.75 16.523438 13.648438 16.625 C 13.472656 16.644531 13.382812 16.65625 13.238281 16.542969 C 13.082031 16.339844 13.101562 16.128906 13.125 15.882812 C 13.203125 15.6875 13.265625 15.605469 13.476562 15.589844 Z M 13.476562 15.589844 "/>
<path style=" stroke:none;fill-rule:nonzero;fill:rgb(15.294118%,20.392157%,28.627451%);fill-opacity:1;" d="M 15.3125 15.617188 C 15.375 15.613281 15.4375 15.613281 15.5 15.609375 C 15.554688 15.609375 15.554688 15.609375 15.605469 15.605469 C 15.707031 15.617188 15.707031 15.617188 15.78125 15.675781 C 15.917969 15.859375 15.902344 16.101562 15.882812 16.320312 C 15.785156 16.5625 15.785156 16.5625 15.664062 16.625 C 15.539062 16.640625 15.539062 16.640625 15.398438 16.625 C 15.265625 16.511719 15.191406 16.441406 15.136719 16.273438 C 15.113281 15.992188 15.15625 15.855469 15.3125 15.617188 Z M 15.3125 15.617188 "/>
<path style=" stroke:none;fill-rule:nonzero;fill:rgb(15.294118%,22.352941%,25.098039%);fill-opacity:1;" d="M 14.699219 15.617188 C 14.789062 15.667969 14.789062 15.667969 14.832031 15.75 C 14.859375 15.867188 14.859375 15.867188 14.832031 16.011719 C 14.761719 16.109375 14.683594 16.195312 14.601562 16.28125 C 14.515625 16.367188 14.515625 16.367188 14.4375 16.492188 C 14.566406 16.492188 14.699219 16.492188 14.832031 16.492188 C 14.832031 16.550781 14.832031 16.609375 14.832031 16.667969 C 14.667969 16.722656 14.53125 16.707031 14.363281 16.695312 C 14.316406 16.691406 14.316406 16.691406 14.269531 16.6875 C 14.195312 16.679688 14.121094 16.675781 14.042969 16.667969 C 14.058594 16.519531 14.058594 16.519531 14.085938 16.363281 C 14.222656 16.277344 14.222656 16.277344 14.351562 16.230469 C 14.292969 16.21875 14.234375 16.203125 14.175781 16.1875 C 14.183594 16.15625 14.191406 16.121094 14.199219 16.089844 C 14.226562 15.972656 14.226562 15.972656 14.1875 15.878906 C 14.175781 15.792969 14.175781 15.792969 14.238281 15.695312 C 14.402344 15.582031 14.5 15.597656 14.699219 15.617188 Z M 14.699219 15.617188 "/>
<path style=" stroke:none;fill-rule:nonzero;fill:rgb(78.039216%,78.039216%,70.588235%);fill-opacity:1;" d="M 13.476562 15.589844 C 13.605469 15.601562 13.648438 15.617188 13.757812 15.699219 C 13.894531 15.890625 13.890625 16.089844 13.867188 16.320312 C 13.808594 16.449219 13.75 16.523438 13.648438 16.625 C 13.472656 16.644531 13.382812 16.65625 13.238281 16.542969 C 13.082031 16.339844 13.101562 16.128906 13.125 15.882812 C 13.203125 15.6875 13.265625 15.605469 13.476562 15.589844 Z M 13.386719 15.707031 C 13.238281 15.875 13.238281 15.996094 13.242188 16.214844 C 13.257812 16.347656 13.304688 16.433594 13.386719 16.539062 C 13.570312 16.527344 13.570312 16.527344 13.710938 16.425781 C 13.761719 16.226562 13.753906 16.039062 13.710938 15.839844 C 13.65625 15.734375 13.65625 15.734375 13.511719 15.714844 C 13.472656 15.710938 13.429688 15.710938 13.386719 15.707031 Z M 13.386719 15.707031 "/>
<path style=" stroke:none;fill-rule:nonzero;fill:rgb(79.607843%,80%,73.72549%);fill-opacity:1;" d="M 15.3125 15.617188 C 15.375 15.613281 15.4375 15.613281 15.5 15.609375 C 15.554688 15.609375 15.554688 15.609375 15.605469 15.605469 C 15.707031 15.617188 15.707031 15.617188 15.78125 15.675781 C 15.917969 15.859375 15.902344 16.101562 15.882812 16.320312 C 15.785156 16.5625 15.785156 16.5625 15.664062 16.625 C 15.539062 16.640625 15.539062 16.640625 15.398438 16.625 C 15.265625 16.511719 15.191406 16.441406 15.136719 16.273438 C 15.113281 15.992188 15.15625 15.855469 15.3125 15.617188 Z M 15.320312 15.789062 C 15.25 15.972656 15.234375 16.128906 15.269531 16.320312 C 15.347656 16.453125 15.347656 16.453125 15.445312 16.539062 C 15.550781 16.527344 15.550781 16.527344 15.664062 16.492188 C 15.75 16.363281 15.761719 16.253906 15.761719 16.101562 C 15.765625 16.0625 15.765625 16.027344 15.765625 15.988281 C 15.746094 15.859375 15.707031 15.800781 15.617188 15.707031 C 15.472656 15.671875 15.425781 15.679688 15.320312 15.789062 Z M 15.320312 15.789062 "/>
<path style=" stroke:none;fill-rule:nonzero;fill:rgb(69.019608%,73.333333%,76.862745%);fill-opacity:1;" d="M 14.875 11.726562 C 15.453125 11.726562 16.03125 11.726562 16.625 11.726562 C 16.625 11.925781 16.625 12.128906 16.625 12.335938 C 16.449219 12.292969 16.449219 12.292969 16.394531 12.226562 C 16.375 12.1875 16.375 12.1875 16.351562 12.144531 C 16.335938 12.121094 16.320312 12.09375 16.308594 12.066406 C 16.273438 11.988281 16.273438 11.988281 16.273438 11.855469 C 16.058594 11.855469 15.84375 11.855469 15.617188 11.855469 C 15.617188 12.1875 15.617188 12.519531 15.617188 12.863281 C 15.605469 12.863281 15.589844 12.863281 15.574219 12.863281 C 15.574219 12.515625 15.574219 12.167969 15.574219 11.8125 C 15.820312 11.8125 16.066406 11.8125 16.320312 11.8125 C 16.339844 11.855469 16.339844 11.855469 16.363281 11.898438 C 16.375 11.871094 16.390625 11.84375 16.40625 11.8125 C 15.902344 11.8125 15.394531 11.8125 14.875 11.8125 C 14.875 11.785156 14.875 11.753906 14.875 11.726562 Z M 14.875 11.726562 "/>
<path style=" stroke:none;fill-rule:nonzero;fill:rgb(12.941176%,19.215686%,21.960784%);fill-opacity:1;" d="M 14.597656 15.460938 C 14.632812 15.46875 14.664062 15.476562 14.699219 15.488281 C 14.699219 15.515625 14.699219 15.546875 14.699219 15.574219 C 14.726562 15.582031 14.757812 15.585938 14.785156 15.59375 C 14.875 15.617188 14.875 15.617188 14.917969 15.664062 C 14.921875 15.734375 14.921875 15.808594 14.921875 15.882812 C 14.921875 15.925781 14.921875 15.964844 14.921875 16.003906 C 14.917969 16.035156 14.917969 16.066406 14.917969 16.101562 C 14.960938 16.101562 15.003906 16.101562 15.050781 16.101562 C 15.050781 15.984375 15.050781 15.867188 15.050781 15.75 C 15.078125 15.75 15.109375 15.75 15.136719 15.75 C 15.152344 15.707031 15.167969 15.664062 15.179688 15.617188 C 15.210938 15.617188 15.238281 15.617188 15.269531 15.617188 C 15.257812 15.652344 15.257812 15.652344 15.25 15.6875 C 15.21875 15.8125 15.199219 15.941406 15.179688 16.066406 C 15.171875 16.113281 15.164062 16.160156 15.15625 16.210938 C 15.148438 16.246094 15.144531 16.28125 15.136719 16.320312 C 15.121094 16.296875 15.101562 16.277344 15.082031 16.253906 C 15 16.167969 15 16.167969 14.832031 16.1875 C 14.855469 16.320312 14.886719 16.449219 14.917969 16.582031 C 14.90625 16.550781 14.890625 16.523438 14.875 16.492188 C 14.730469 16.492188 14.585938 16.492188 14.4375 16.492188 C 14.511719 16.347656 14.550781 16.285156 14.660156 16.175781 C 14.769531 16.054688 14.804688 15.980469 14.804688 15.816406 C 14.796875 15.742188 14.796875 15.742188 14.789062 15.664062 C 14.644531 15.621094 14.5 15.574219 14.351562 15.53125 C 14.480469 15.445312 14.480469 15.445312 14.597656 15.460938 Z M 14.597656 15.460938 "/>
<path style=" stroke:none;fill-rule:nonzero;fill:rgb(84.313725%,88.627451%,90.196078%);fill-opacity:1;" d="M 9.886719 12.90625 C 10.015625 12.90625 10.148438 12.90625 10.28125 12.90625 C 10.28125 12.921875 10.28125 12.933594 10.28125 12.949219 C 10.164062 12.949219 10.050781 12.949219 9.929688 12.949219 C 9.929688 13.269531 9.929688 13.585938 9.929688 13.914062 C 10.175781 13.914062 10.421875 13.914062 10.675781 13.914062 C 10.6875 13.824219 10.703125 13.738281 10.71875 13.648438 C 10.804688 13.523438 10.804688 13.523438 10.894531 13.429688 C 10.921875 13.429688 10.953125 13.429688 10.980469 13.429688 C 10.980469 13.617188 10.980469 13.804688 10.980469 14 C 10.816406 14 10.648438 14.003906 10.484375 14.003906 C 10.4375 14.003906 10.390625 14.003906 10.339844 14.003906 C 10.273438 14.003906 10.273438 14.003906 10.203125 14.003906 C 10.160156 14.003906 10.121094 14.003906 10.078125 14.003906 C 9.976562 14 9.976562 14 9.886719 13.957031 C 9.886719 13.609375 9.886719 13.261719 9.886719 12.90625 Z M 9.886719 12.90625 "/>
<path style=" stroke:none;fill-rule:nonzero;fill:rgb(78.039216%,77.647059%,68.235294%);fill-opacity:1;" d="M 14.699219 15.617188 C 14.789062 15.667969 14.789062 15.667969 14.832031 15.75 C 14.859375 15.867188 14.859375 15.867188 14.832031 16.011719 C 14.761719 16.109375 14.683594 16.195312 14.601562 16.28125 C 14.515625 16.367188 14.515625 16.367188 14.4375 16.492188 C 14.566406 16.492188 14.699219 16.492188 14.832031 16.492188 C 14.832031 16.535156 14.832031 16.582031 14.832031 16.625 C 14.613281 16.625 14.398438 16.625 14.175781 16.625 C 14.175781 16.492188 14.175781 16.492188 14.246094 16.421875 C 14.277344 16.394531 14.308594 16.371094 14.34375 16.34375 C 14.464844 16.242188 14.570312 16.148438 14.65625 16.011719 C 14.667969 15.894531 14.667969 15.894531 14.65625 15.792969 C 14.554688 15.761719 14.554688 15.761719 14.4375 15.75 C 14.363281 15.808594 14.363281 15.808594 14.304688 15.882812 C 14.277344 15.882812 14.25 15.882812 14.21875 15.882812 C 14.21875 15.824219 14.21875 15.765625 14.21875 15.707031 C 14.386719 15.59375 14.503906 15.59375 14.699219 15.617188 Z M 14.699219 15.617188 "/>
<path style=" stroke:none;fill-rule:nonzero;fill:rgb(87.843137%,90.588235%,93.333333%);fill-opacity:1;" d="M 13.824219 11.769531 C 14.085938 11.769531 14.34375 11.769531 14.613281 11.769531 C 14.613281 11.957031 14.613281 12.144531 14.613281 12.335938 C 14.570312 12.335938 14.527344 12.335938 14.480469 12.335938 C 14.375 12.152344 14.335938 12.027344 14.351562 11.8125 C 14.21875 11.8125 14.089844 11.8125 13.957031 11.8125 C 13.957031 12.503906 13.957031 13.199219 13.957031 13.914062 C 13.941406 13.914062 13.925781 13.914062 13.914062 13.914062 C 13.910156 13.886719 13.910156 13.863281 13.910156 13.835938 C 13.90625 13.578125 13.902344 13.320312 13.894531 13.058594 C 13.894531 12.964844 13.890625 12.867188 13.890625 12.769531 C 13.886719 12.628906 13.886719 12.492188 13.882812 12.351562 C 13.882812 12.308594 13.882812 12.265625 13.878906 12.222656 C 13.878906 12.179688 13.878906 12.140625 13.878906 12.101562 C 13.878906 12.0625 13.875 12.027344 13.875 11.992188 C 13.871094 11.890625 13.871094 11.890625 13.824219 11.769531 Z M 13.824219 11.769531 "/>
<path style=" stroke:none;fill-rule:nonzero;fill:rgb(75.686275%,74.901961%,67.843137%);fill-opacity:1;" d="M 12.644531 15.617188 C 12.726562 15.664062 12.726562 15.664062 12.773438 15.75 C 12.804688 15.882812 12.804688 15.882812 12.773438 16.054688 C 12.671875 16.214844 12.550781 16.355469 12.425781 16.492188 C 12.554688 16.492188 12.683594 16.492188 12.820312 16.492188 C 12.820312 16.535156 12.820312 16.582031 12.820312 16.625 C 12.601562 16.625 12.386719 16.625 12.164062 16.625 C 12.175781 16.566406 12.191406 16.507812 12.207031 16.449219 C 12.234375 16.449219 12.265625 16.449219 12.292969 16.449219 C 12.304688 16.425781 12.3125 16.402344 12.324219 16.375 C 12.382812 16.273438 12.382812 16.273438 12.492188 16.171875 C 12.613281 16.039062 12.636719 15.96875 12.644531 15.792969 C 12.597656 15.738281 12.597656 15.738281 12.492188 15.738281 C 12.457031 15.742188 12.417969 15.746094 12.382812 15.75 C 12.339844 15.816406 12.339844 15.816406 12.292969 15.882812 C 12.265625 15.882812 12.234375 15.882812 12.207031 15.882812 C 12.222656 15.773438 12.222656 15.773438 12.25 15.664062 C 12.382812 15.597656 12.496094 15.609375 12.644531 15.617188 Z M 12.644531 15.617188 "/>
<path style=" stroke:none;fill-rule:nonzero;fill:rgb(13.72549%,20.784314%,24.313725%);fill-opacity:1;" d="M 13.648438 15.53125 C 13.792969 15.609375 13.792969 15.609375 13.914062 15.707031 C 13.9375 15.726562 13.960938 15.746094 13.984375 15.765625 C 14.042969 15.835938 14.042969 15.835938 14.046875 15.933594 C 14.039062 15.984375 14.039062 15.984375 14.03125 16.035156 C 14.011719 16.148438 14 16.246094 14 16.363281 C 13.898438 16.480469 13.898438 16.480469 13.78125 16.582031 C 13.738281 16.582031 13.695312 16.582031 13.648438 16.582031 C 13.671875 16.5625 13.691406 16.542969 13.710938 16.523438 C 13.851562 16.375 13.832031 16.210938 13.828125 16.023438 C 13.824219 15.914062 13.808594 15.8125 13.78125 15.707031 C 13.667969 15.667969 13.589844 15.652344 13.476562 15.644531 C 13.445312 15.644531 13.414062 15.640625 13.382812 15.640625 C 13.289062 15.65625 13.289062 15.65625 13.222656 15.753906 C 13.160156 15.902344 13.15625 16 13.160156 16.15625 C 13.160156 16.203125 13.164062 16.25 13.164062 16.300781 C 13.167969 16.351562 13.167969 16.351562 13.167969 16.40625 C 13.125 16.40625 13.082031 16.40625 13.039062 16.40625 C 13.042969 16.316406 13.046875 16.226562 13.054688 16.136719 C 13.058594 16.085938 13.058594 16.035156 13.0625 15.984375 C 13.082031 15.84375 13.105469 15.742188 13.167969 15.617188 C 13.332031 15.511719 13.460938 15.5 13.648438 15.53125 Z M 13.648438 15.53125 "/>
<path style=" stroke:none;fill-rule:nonzero;fill:rgb(21.960784%,27.843137%,32.941176%);fill-opacity:1;" d="M 9.929688 11.8125 C 10.164062 11.8125 10.394531 11.8125 10.632812 11.8125 C 10.660156 11.941406 10.6875 12.074219 10.71875 12.207031 C 10.660156 12.207031 10.601562 12.207031 10.542969 12.207031 C 10.542969 12.105469 10.542969 12.003906 10.542969 11.898438 C 10.386719 11.898438 10.226562 11.898438 10.0625 11.898438 C 10.0625 12.175781 10.0625 12.449219 10.0625 12.730469 C 10.132812 12.746094 10.207031 12.761719 10.28125 12.773438 C 10.296875 12.746094 10.308594 12.71875 10.324219 12.6875 C 10.324219 12.746094 10.324219 12.804688 10.324219 12.863281 C 10.195312 12.863281 10.066406 12.863281 9.929688 12.863281 C 9.929688 12.515625 9.929688 12.167969 9.929688 11.8125 Z M 9.929688 11.8125 "/>
<path style=" stroke:none;fill-rule:nonzero;fill:rgb(91.764706%,95.294118%,96.862745%);fill-opacity:1;" d="M 9.800781 11.769531 C 10.175781 11.769531 10.550781 11.769531 10.9375 11.769531 C 10.9375 11.957031 10.9375 12.144531 10.9375 12.335938 C 10.71875 12.25 10.71875 12.25 10.660156 12.148438 C 10.632812 12.03125 10.632812 12.03125 10.632812 11.8125 C 10.398438 11.8125 10.167969 11.8125 9.929688 11.8125 C 9.929688 12.160156 9.929688 12.503906 9.929688 12.863281 C 9.917969 12.863281 9.902344 12.863281 9.886719 12.863281 C 9.886719 12.53125 9.886719 12.199219 9.886719 11.855469 C 9.859375 11.855469 9.828125 11.855469 9.800781 11.855469 C 9.800781 11.828125 9.800781 11.796875 9.800781 11.769531 Z M 9.800781 11.769531 "/>
<path style=" stroke:none;fill-rule:nonzero;fill:rgb(85.490196%,89.803922%,91.372549%);fill-opacity:1;" d="M 16.101562 12.511719 C 16.144531 12.511719 16.1875 12.511719 16.230469 12.511719 C 16.230469 12.757812 16.230469 13.003906 16.230469 13.257812 C 16.1875 13.257812 16.144531 13.257812 16.101562 13.257812 C 16.085938 13.214844 16.070312 13.171875 16.054688 13.128906 C 15.984375 12.988281 15.984375 12.988281 15.882812 12.964844 C 15.792969 12.957031 15.707031 12.953125 15.617188 12.949219 C 15.617188 12.921875 15.617188 12.890625 15.617188 12.863281 C 15.734375 12.863281 15.851562 12.863281 15.96875 12.863281 C 15.980469 12.820312 15.996094 12.78125 16.007812 12.738281 C 16.054688 12.601562 16.054688 12.601562 16.101562 12.511719 Z M 16.101562 12.511719 "/>
<path style=" stroke:none;fill-rule:nonzero;fill:rgb(58.039216%,64.705882%,69.019608%);fill-opacity:1;" d="M 15.050781 11.855469 C 15.0625 11.855469 15.078125 11.855469 15.09375 11.855469 C 15.09375 12.5625 15.09375 13.269531 15.09375 14 C 15.613281 14 16.132812 14 16.667969 14 C 16.667969 14.015625 16.667969 14.027344 16.667969 14.042969 C 16.078125 14.042969 15.484375 14.042969 14.875 14.042969 C 14.875 14.015625 14.875 13.984375 14.875 13.957031 C 14.960938 13.933594 14.960938 13.933594 15.050781 13.914062 C 15.050781 13.234375 15.050781 12.554688 15.050781 11.855469 Z M 15.050781 11.855469 "/>
<path style=" stroke:none;fill-rule:nonzero;fill:rgb(78.039216%,81.176471%,83.137255%);fill-opacity:1;" d="M 15.574219 12.949219 C 15.589844 12.949219 15.605469 12.949219 15.617188 12.949219 C 15.617188 13.269531 15.617188 13.585938 15.617188 13.914062 C 15.863281 13.914062 16.109375 13.914062 16.363281 13.914062 C 16.375 13.824219 16.390625 13.738281 16.40625 13.648438 C 16.476562 13.523438 16.476562 13.523438 16.539062 13.429688 C 16.566406 13.445312 16.59375 13.460938 16.625 13.476562 C 16.625 13.519531 16.625 13.5625 16.625 13.605469 C 16.625 13.660156 16.625 13.710938 16.628906 13.765625 C 16.625 13.914062 16.625 13.914062 16.582031 13.957031 C 16.507812 13.960938 16.433594 13.960938 16.355469 13.960938 C 16.316406 13.960938 16.273438 13.960938 16.234375 13.960938 C 16.15625 13.960938 16.15625 13.960938 16.074219 13.960938 C 15.910156 13.957031 15.746094 13.957031 15.574219 13.957031 C 15.574219 13.625 15.574219 13.292969 15.574219 12.949219 Z M 15.574219 12.949219 "/>
<path style=" stroke:none;fill-rule:nonzero;fill:rgb(10.196078%,17.254902%,26.666667%);fill-opacity:1;" d="M 12.488281 15.699219 C 12.601562 15.707031 12.601562 15.707031 12.6875 15.792969 C 12.671875 15.960938 12.648438 16.046875 12.554688 16.1875 C 12.441406 16.195312 12.441406 16.195312 12.335938 16.1875 C 12.324219 16.128906 12.308594 16.070312 12.292969 16.011719 C 12.25 16.011719 12.207031 16.011719 12.164062 16.011719 C 12.164062 15.984375 12.164062 15.953125 12.164062 15.925781 C 12.207031 15.925781 12.25 15.925781 12.292969 15.925781 C 12.304688 15.882812 12.304688 15.882812 12.3125 15.839844 C 12.347656 15.710938 12.351562 15.707031 12.488281 15.699219 Z M 12.488281 15.699219 "/>
<path style=" stroke:none;fill-rule:nonzero;fill:rgb(94.509804%,99.215686%,99.607843%);fill-opacity:1;" d="M 11.242188 12.90625 C 11.664062 12.90625 12.082031 12.90625 12.511719 12.90625 C 12.511719 12.949219 12.511719 12.992188 12.511719 13.039062 C 12.09375 13.039062 11.675781 13.039062 11.242188 13.039062 C 11.242188 12.996094 11.242188 12.949219 11.242188 12.90625 Z M 11.242188 12.90625 "/>
<path style=" stroke:none;fill-rule:nonzero;fill:rgb(93.72549%,96.862745%,98.039216%);fill-opacity:1;" d="M 12.730469 11.769531 C 12.949219 11.769531 13.164062 11.769531 13.386719 11.769531 C 13.386719 11.78125 13.386719 11.796875 13.386719 11.8125 C 13.273438 11.8125 13.15625 11.8125 13.039062 11.8125 C 13.03125 11.859375 13.027344 11.90625 13.023438 11.953125 C 12.996094 12.113281 12.964844 12.207031 12.863281 12.335938 C 12.820312 12.335938 12.777344 12.335938 12.730469 12.335938 C 12.730469 12.148438 12.730469 11.960938 12.730469 11.769531 Z M 12.730469 11.769531 "/>
<path style=" stroke:none;fill-rule:nonzero;fill:rgb(81.568627%,87.45098%,91.372549%);fill-opacity:1;" d="M 17.585938 12.949219 C 17.617188 12.949219 17.644531 12.949219 17.675781 12.949219 C 17.699219 13.210938 17.636719 13.351562 17.480469 13.554688 C 17.445312 13.605469 17.40625 13.652344 17.371094 13.703125 C 17.34375 13.742188 17.3125 13.785156 17.28125 13.824219 C 17.265625 13.855469 17.253906 13.882812 17.238281 13.914062 C 17.308594 13.925781 17.382812 13.941406 17.457031 13.957031 C 17.457031 13.96875 17.457031 13.984375 17.457031 14 C 17.269531 14 17.082031 14 16.886719 14 C 16.902344 13.972656 16.917969 13.941406 16.929688 13.914062 C 16.964844 13.90625 17 13.902344 17.039062 13.898438 C 17.09375 13.882812 17.09375 13.882812 17.148438 13.867188 C 17.179688 13.796875 17.210938 13.722656 17.238281 13.648438 C 17.328125 13.515625 17.421875 13.382812 17.515625 13.25 C 17.601562 13.125 17.601562 13.125 17.585938 12.949219 Z M 17.585938 12.949219 "/>
<path style=" stroke:none;fill-rule:nonzero;fill:rgb(14.509804%,20.784314%,20.392157%);fill-opacity:1;" d="M 15.488281 15.488281 C 15.617188 15.492188 15.714844 15.496094 15.835938 15.53125 C 16.003906 15.734375 16.011719 16.019531 16.011719 16.273438 C 15.996094 16.375 15.996094 16.375 15.96875 16.449219 C 15.878906 16.503906 15.878906 16.503906 15.792969 16.539062 C 15.800781 16.507812 15.808594 16.480469 15.816406 16.453125 C 15.855469 16.207031 15.886719 15.925781 15.75 15.707031 C 15.617188 15.609375 15.617188 15.609375 15.488281 15.53125 C 15.488281 15.515625 15.488281 15.503906 15.488281 15.488281 Z M 15.488281 15.488281 "/>
<path style=" stroke:none;fill-rule:nonzero;fill:rgb(19.607843%,23.921569%,20.784314%);fill-opacity:1;" d="M 13.386719 15.707031 C 13.511719 15.714844 13.511719 15.714844 13.648438 15.75 C 13.765625 15.925781 13.75 16.117188 13.738281 16.320312 C 13.710938 16.425781 13.710938 16.425781 13.648438 16.492188 C 13.511719 16.527344 13.511719 16.527344 13.386719 16.539062 C 13.386719 16.496094 13.386719 16.449219 13.386719 16.40625 C 13.460938 16.390625 13.53125 16.378906 13.605469 16.363281 C 13.605469 16.1875 13.605469 16.015625 13.605469 15.835938 C 13.5625 15.835938 13.519531 15.835938 13.476562 15.835938 C 13.476562 15.808594 13.476562 15.78125 13.476562 15.75 C 13.445312 15.734375 13.417969 15.722656 13.386719 15.707031 Z M 13.386719 15.707031 "/>
<path style=" stroke:none;fill-rule:nonzero;fill:rgb(18.431373%,22.352941%,21.960784%);fill-opacity:1;" d="M 15.515625 15.691406 C 15.550781 15.695312 15.585938 15.703125 15.617188 15.707031 C 15.605469 15.734375 15.589844 15.765625 15.574219 15.792969 C 15.53125 15.808594 15.488281 15.824219 15.445312 15.835938 C 15.429688 15.996094 15.414062 16.15625 15.398438 16.320312 C 15.535156 16.371094 15.535156 16.371094 15.707031 16.363281 C 15.675781 16.421875 15.648438 16.476562 15.617188 16.539062 C 15.496094 16.523438 15.417969 16.507812 15.320312 16.429688 C 15.242188 16.261719 15.246094 16.105469 15.269531 15.925781 C 15.351562 15.710938 15.351562 15.710938 15.515625 15.691406 Z M 15.515625 15.691406 "/>
<path style=" stroke:none;fill-rule:nonzero;fill:rgb(82.745098%,82.352941%,76.470588%);fill-opacity:1;" d="M 12.644531 15.617188 C 12.726562 15.664062 12.726562 15.664062 12.773438 15.75 C 12.796875 15.898438 12.804688 16.003906 12.730469 16.132812 C 12.671875 16.207031 12.671875 16.207031 12.554688 16.320312 C 12.527344 16.320312 12.5 16.320312 12.46875 16.320312 C 12.519531 16.1875 12.566406 16.085938 12.644531 15.96875 C 12.628906 15.851562 12.628906 15.851562 12.601562 15.75 C 12.496094 15.738281 12.496094 15.738281 12.382812 15.75 C 12.339844 15.816406 12.339844 15.816406 12.292969 15.882812 C 12.265625 15.882812 12.234375 15.882812 12.207031 15.882812 C 12.222656 15.773438 12.222656 15.773438 12.25 15.664062 C 12.382812 15.597656 12.496094 15.609375 12.644531 15.617188 Z M 12.644531 15.617188 "/>
<path style=" stroke:none;fill-rule:nonzero;fill:rgb(80.392157%,86.666667%,90.588235%);fill-opacity:1;" d="M 18.242188 11.769531 C 18.429688 11.769531 18.617188 11.769531 18.8125 11.769531 C 18.726562 11.855469 18.726562 11.855469 18.640625 11.890625 C 18.480469 11.984375 18.414062 12.160156 18.320312 12.320312 C 18.242188 12.425781 18.242188 12.425781 18.148438 12.460938 C 18.121094 12.464844 18.09375 12.464844 18.070312 12.46875 C 18.089844 12.433594 18.113281 12.402344 18.132812 12.367188 C 18.175781 12.304688 18.175781 12.304688 18.21875 12.234375 C 18.261719 12.171875 18.261719 12.171875 18.304688 12.105469 C 18.378906 11.988281 18.378906 11.988281 18.417969 11.855469 C 18.359375 11.84375 18.304688 11.828125 18.242188 11.8125 C 18.242188 11.796875 18.242188 11.785156 18.242188 11.769531 Z M 18.242188 11.769531 "/>
<path style=" stroke:none;fill-rule:nonzero;fill:rgb(9.803922%,16.862745%,23.529412%);fill-opacity:1;" d="M 16.449219 11.550781 C 16.535156 11.550781 16.625 11.550781 16.710938 11.550781 C 16.710938 11.578125 16.710938 11.609375 16.710938 11.636719 C 16.828125 11.636719 16.945312 11.636719 17.0625 11.636719 C 17.078125 11.667969 17.089844 11.695312 17.105469 11.726562 C 16.992188 11.726562 16.875 11.726562 16.757812 11.726562 C 16.769531 11.78125 16.785156 11.839844 16.800781 11.898438 C 16.769531 11.898438 16.742188 11.898438 16.710938 11.898438 C 16.699219 12.015625 16.683594 12.132812 16.667969 12.25 C 16.65625 12.25 16.640625 12.25 16.625 12.25 C 16.625 12.078125 16.625 11.902344 16.625 11.726562 C 16.496094 11.726562 16.363281 11.726562 16.230469 11.726562 C 16.230469 11.695312 16.230469 11.667969 16.230469 11.636719 C 16.304688 11.636719 16.375 11.636719 16.449219 11.636719 C 16.449219 11.609375 16.449219 11.578125 16.449219 11.550781 Z M 16.449219 11.550781 "/>
<path style=" stroke:none;fill-rule:nonzero;fill:rgb(74.901961%,74.901961%,68.627451%);fill-opacity:1;" d="M 15.3125 15.617188 C 15.339844 15.632812 15.371094 15.648438 15.398438 15.664062 C 15.386719 15.699219 15.371094 15.734375 15.355469 15.769531 C 15.289062 16.011719 15.265625 16.222656 15.378906 16.453125 C 15.398438 16.480469 15.421875 16.507812 15.445312 16.539062 C 15.402344 16.550781 15.355469 16.566406 15.3125 16.582031 C 15.167969 16.398438 15.121094 16.257812 15.125 16.019531 C 15.148438 15.859375 15.222656 15.75 15.3125 15.617188 Z M 15.3125 15.617188 "/>
<path style=" stroke:none;fill-rule:nonzero;fill:rgb(13.72549%,18.823529%,24.313725%);fill-opacity:1;" d="M 13.957031 12.554688 C 13.96875 12.554688 13.984375 12.554688 14 12.554688 C 14 12.945312 14 13.335938 14 13.738281 C 14.070312 13.722656 14.144531 13.707031 14.21875 13.695312 C 14.246094 13.738281 14.277344 13.78125 14.304688 13.824219 C 14.261719 13.824219 14.21875 13.824219 14.175781 13.824219 C 14.1875 13.855469 14.203125 13.882812 14.21875 13.914062 C 14.132812 13.925781 14.046875 13.941406 13.957031 13.957031 C 13.957031 13.496094 13.957031 13.03125 13.957031 12.554688 Z M 13.957031 12.554688 "/>
<path style=" stroke:none;fill-rule:nonzero;fill:rgb(9.411765%,16.470588%,22.745098%);fill-opacity:1;" d="M 15.007812 11.898438 C 15.019531 11.898438 15.035156 11.898438 15.050781 11.898438 C 15.050781 12.5625 15.050781 13.226562 15.050781 13.914062 C 15.019531 13.914062 14.992188 13.914062 14.960938 13.914062 C 14.960938 13.882812 14.960938 13.855469 14.960938 13.824219 C 14.933594 13.8125 14.90625 13.796875 14.875 13.78125 C 14.875 13.753906 14.875 13.722656 14.875 13.695312 C 14.902344 13.695312 14.933594 13.695312 14.960938 13.695312 C 14.976562 13.101562 14.992188 12.511719 15.007812 11.898438 Z M 15.007812 11.898438 "/>
<path style=" stroke:none;fill-rule:nonzero;fill:rgb(11.372549%,18.823529%,28.235294%);fill-opacity:1;" d="M 9.976562 11.898438 C 10.003906 11.898438 10.03125 11.898438 10.0625 11.898438 C 10.0625 12.175781 10.0625 12.449219 10.0625 12.730469 C 10.132812 12.746094 10.207031 12.761719 10.28125 12.773438 C 10.296875 12.746094 10.308594 12.71875 10.324219 12.6875 C 10.324219 12.746094 10.324219 12.804688 10.324219 12.863281 C 10.195312 12.863281 10.066406 12.863281 9.929688 12.863281 C 9.960938 12.832031 9.988281 12.804688 10.019531 12.773438 C 10.003906 12.730469 9.988281 12.6875 9.976562 12.644531 C 9.972656 12.585938 9.96875 12.527344 9.972656 12.46875 C 9.972656 12.433594 9.972656 12.402344 9.972656 12.367188 C 9.972656 12.332031 9.972656 12.300781 9.972656 12.261719 C 9.972656 12.230469 9.972656 12.195312 9.972656 12.15625 C 9.972656 12.070312 9.972656 11.984375 9.976562 11.898438 Z M 9.976562 11.898438 "/>
<path style=" stroke:none;fill-rule:nonzero;fill:rgb(10.588235%,19.215686%,27.058824%);fill-opacity:1;" d="M 13.039062 11.855469 C 13.136719 11.855469 13.238281 11.855469 13.34375 11.855469 C 13.34375 11.984375 13.34375 12.117188 13.34375 12.25 C 13.285156 12.191406 13.226562 12.132812 13.167969 12.074219 C 13.140625 12.132812 13.109375 12.191406 13.082031 12.25 C 13.039062 12.234375 12.996094 12.222656 12.949219 12.207031 C 12.980469 12.089844 13.007812 11.976562 13.039062 11.855469 Z M 13.039062 11.855469 "/>
<path style=" stroke:none;fill-rule:nonzero;fill:rgb(13.333333%,20.784314%,27.45098%);fill-opacity:1;" d="M 10.980469 11.636719 C 11.011719 11.636719 11.039062 11.636719 11.070312 11.636719 C 11.117188 11.871094 11.117188 12.097656 11.113281 12.335938 C 11.011719 12.351562 10.910156 12.367188 10.804688 12.382812 C 10.792969 12.351562 10.777344 12.324219 10.761719 12.292969 C 10.820312 12.308594 10.878906 12.324219 10.9375 12.335938 C 10.9375 12.148438 10.9375 11.960938 10.9375 11.769531 C 10.964844 11.769531 10.996094 11.769531 11.023438 11.769531 C 11.011719 11.726562 10.996094 11.683594 10.980469 11.636719 Z M 10.980469 11.636719 "/>
<path style=" stroke:none;fill-rule:nonzero;fill:rgb(81.568627%,80%,73.333333%);fill-opacity:1;" d="M 13.167969 16.054688 C 13.199219 16.054688 13.226562 16.054688 13.257812 16.054688 C 13.285156 16.1875 13.3125 16.316406 13.34375 16.449219 C 13.445312 16.480469 13.445312 16.480469 13.5625 16.492188 C 13.605469 16.464844 13.648438 16.4375 13.695312 16.40625 C 13.738281 16.421875 13.78125 16.433594 13.824219 16.449219 C 13.71875 16.585938 13.671875 16.621094 13.492188 16.644531 C 13.34375 16.625 13.34375 16.625 13.269531 16.574219 C 13.195312 16.46875 13.191406 16.394531 13.183594 16.265625 C 13.179688 16.226562 13.175781 16.1875 13.171875 16.148438 C 13.171875 16.117188 13.171875 16.085938 13.167969 16.054688 Z M 13.167969 16.054688 "/>
<path style=" stroke:none;fill-rule:nonzero;fill:rgb(20.392157%,25.098039%,26.27451%);fill-opacity:1;" d="M 15.007812 16.1875 C 15.148438 16.238281 15.179688 16.273438 15.253906 16.410156 C 15.273438 16.453125 15.292969 16.492188 15.3125 16.539062 C 15.441406 16.601562 15.5625 16.582031 15.707031 16.582031 C 15.707031 16.609375 15.707031 16.640625 15.707031 16.667969 C 15.621094 16.675781 15.535156 16.679688 15.453125 16.683594 C 15.382812 16.6875 15.382812 16.6875 15.308594 16.691406 C 15.179688 16.667969 15.179688 16.667969 15.101562 16.566406 C 15.046875 16.441406 15.023438 16.324219 15.007812 16.1875 Z M 15.007812 16.1875 "/>
<path style=" stroke:none;fill-rule:nonzero;fill:rgb(86.666667%,91.372549%,94.509804%);fill-opacity:1;" d="M 10.414062 12.511719 C 10.457031 12.511719 10.5 12.511719 10.542969 12.511719 C 10.542969 12.757812 10.542969 13.003906 10.542969 13.257812 C 10.5 13.257812 10.457031 13.257812 10.414062 13.257812 C 10.382812 13.183594 10.355469 13.113281 10.324219 13.039062 C 10.367188 13.023438 10.410156 13.007812 10.457031 12.992188 C 10.457031 12.90625 10.457031 12.820312 10.457031 12.730469 C 10.414062 12.746094 10.371094 12.761719 10.324219 12.773438 C 10.355469 12.6875 10.382812 12.601562 10.414062 12.511719 Z M 10.414062 12.511719 "/>
<path style=" stroke:none;fill-rule:nonzero;fill:rgb(8.235294%,19.215686%,22.352941%);fill-opacity:1;" d="M 12.207031 16.320312 C 12.25 16.332031 12.292969 16.347656 12.335938 16.363281 C 12.28125 16.421875 12.222656 16.476562 12.164062 16.539062 C 12.175781 16.582031 12.191406 16.625 12.207031 16.667969 C 12.207031 16.710938 12.207031 16.753906 12.207031 16.800781 C 12.164062 16.800781 12.121094 16.800781 12.074219 16.800781 C 12.0625 16.773438 12.050781 16.742188 12.035156 16.714844 C 11.996094 16.617188 11.996094 16.617188 11.898438 16.582031 C 11.898438 16.523438 11.898438 16.464844 11.898438 16.40625 C 11.929688 16.40625 11.957031 16.40625 11.988281 16.40625 C 11.988281 16.433594 11.988281 16.464844 11.988281 16.492188 C 12.03125 16.492188 12.074219 16.492188 12.117188 16.492188 C 12.148438 16.4375 12.175781 16.378906 12.207031 16.320312 Z M 12.207031 16.320312 "/>
<path style=" stroke:none;fill-rule:nonzero;fill:rgb(9.803922%,17.647059%,22.745098%);fill-opacity:1;" d="M 12.992188 16.230469 C 13.007812 16.289062 13.023438 16.347656 13.039062 16.40625 C 13.082031 16.40625 13.125 16.40625 13.167969 16.40625 C 13.15625 16.449219 13.140625 16.492188 13.125 16.539062 C 13.125 16.507812 13.125 16.480469 13.125 16.449219 C 13.097656 16.449219 13.066406 16.449219 13.039062 16.449219 C 13.007812 16.535156 12.980469 16.625 12.949219 16.710938 C 12.863281 16.726562 12.777344 16.742188 12.6875 16.757812 C 12.6875 16.726562 12.6875 16.699219 12.6875 16.667969 C 12.730469 16.667969 12.773438 16.667969 12.820312 16.667969 C 12.820312 16.597656 12.820312 16.523438 12.820312 16.449219 C 12.875 16.4375 12.933594 16.421875 12.992188 16.40625 C 12.992188 16.347656 12.992188 16.289062 12.992188 16.230469 Z M 12.992188 16.230469 "/>
<path style=" stroke:none;fill-rule:nonzero;fill:rgb(13.333333%,22.745098%,29.411765%);fill-opacity:1;" d="M 18.242188 12.335938 C 18.289062 12.46875 18.289062 12.46875 18.289062 12.511719 C 18.300781 12.554688 18.316406 12.597656 18.332031 12.644531 C 18.359375 12.644531 18.390625 12.644531 18.417969 12.644531 C 18.417969 12.671875 18.417969 12.703125 18.417969 12.730469 C 18.375 12.746094 18.332031 12.761719 18.289062 12.773438 C 18.246094 12.839844 18.246094 12.839844 18.199219 12.90625 C 18.128906 12.808594 18.128906 12.808594 18.070312 12.6875 C 18.105469 12.546875 18.164062 12.457031 18.242188 12.335938 Z M 18.242188 12.335938 "/>
<path style=" stroke:none;fill-rule:nonzero;fill:rgb(14.901961%,20.784314%,20.392157%);fill-opacity:1;" d="M 13.300781 15.53125 C 13.34375 15.546875 13.386719 15.558594 13.429688 15.574219 C 13.378906 15.625 13.378906 15.625 13.324219 15.679688 C 13.164062 15.84375 13.164062 15.921875 13.164062 16.148438 C 13.167969 16.222656 13.167969 16.222656 13.167969 16.292969 C 13.167969 16.332031 13.167969 16.367188 13.167969 16.40625 C 13.125 16.40625 13.082031 16.40625 13.039062 16.40625 C 13.042969 16.316406 13.046875 16.226562 13.054688 16.136719 C 13.058594 16.085938 13.058594 16.035156 13.0625 15.984375 C 13.082031 15.84375 13.105469 15.742188 13.167969 15.617188 C 13.210938 15.589844 13.253906 15.5625 13.300781 15.53125 Z M 13.300781 15.53125 "/>
<path style=" stroke:none;fill-rule:nonzero;fill:rgb(25.098039%,32.156863%,38.431373%);fill-opacity:1;" d="M 13.957031 11.8125 C 14.085938 11.8125 14.214844 11.8125 14.351562 11.8125 C 14.371094 11.914062 14.394531 12.011719 14.414062 12.113281 C 14.433594 12.207031 14.433594 12.207031 14.480469 12.292969 C 14.4375 12.292969 14.394531 12.292969 14.351562 12.292969 C 14.320312 12.222656 14.292969 12.148438 14.261719 12.074219 C 14.234375 12.074219 14.203125 12.074219 14.175781 12.074219 C 14.175781 12.003906 14.175781 11.929688 14.175781 11.855469 C 14.101562 11.855469 14.03125 11.855469 13.957031 11.855469 C 13.957031 11.84375 13.957031 11.828125 13.957031 11.8125 Z M 13.957031 11.8125 "/>
<path style=" stroke:none;fill-rule:nonzero;fill:rgb(7.45098%,17.647059%,25.098039%);fill-opacity:1;" d="M 12.820312 15.792969 C 12.863281 15.824219 12.90625 15.851562 12.949219 15.882812 C 12.980469 15.867188 13.007812 15.851562 13.039062 15.835938 C 13.050781 15.9375 13.066406 16.039062 13.082031 16.144531 C 13.023438 16.144531 12.964844 16.144531 12.90625 16.144531 C 12.890625 16.171875 12.878906 16.203125 12.863281 16.230469 C 12.773438 16.257812 12.773438 16.257812 12.6875 16.273438 C 12.703125 16.21875 12.714844 16.160156 12.730469 16.101562 C 12.761719 16.101562 12.789062 16.101562 12.820312 16.101562 C 12.820312 16 12.820312 15.898438 12.820312 15.792969 Z M 12.820312 15.792969 "/>
<path style=" stroke:none;fill-rule:nonzero;fill:rgb(16.470588%,25.098039%,32.54902%);fill-opacity:1;" d="M 17.28125 12.425781 C 17.585938 12.792969 17.585938 12.792969 17.585938 12.992188 C 17.558594 12.992188 17.53125 12.992188 17.5 12.992188 C 17.5 12.964844 17.5 12.9375 17.5 12.90625 C 17.472656 12.90625 17.441406 12.90625 17.414062 12.90625 C 17.414062 12.878906 17.414062 12.847656 17.414062 12.820312 C 17.355469 12.804688 17.296875 12.789062 17.238281 12.773438 C 17.25 12.660156 17.265625 12.542969 17.28125 12.425781 Z M 17.28125 12.425781 "/>
<path style=" stroke:none;fill-rule:nonzero;fill:rgb(28.627451%,36.470588%,42.745098%);fill-opacity:1;" d="M 17.195312 13.78125 C 17.105469 13.878906 17.0625 13.914062 16.929688 13.957031 C 17.117188 13.957031 17.304688 13.957031 17.5 13.957031 C 17.5 13.984375 17.5 14.015625 17.5 14.042969 C 17.285156 14.042969 17.066406 14.042969 16.84375 14.042969 C 16.859375 13.972656 16.871094 13.898438 16.886719 13.824219 C 17.074219 13.71875 17.074219 13.71875 17.195312 13.78125 Z M 17.195312 13.78125 "/>
<path style=" stroke:none;fill-rule:nonzero;fill:rgb(25.490196%,27.058824%,24.705882%);fill-opacity:1;" d="M 12.492188 15.695312 C 12.601562 15.707031 12.601562 15.707031 12.6875 15.792969 C 12.679688 15.9375 12.667969 16.027344 12.574219 16.136719 C 12.542969 16.164062 12.542969 16.164062 12.511719 16.1875 C 12.5 16.144531 12.484375 16.101562 12.46875 16.054688 C 12.496094 16.042969 12.527344 16.027344 12.554688 16.011719 C 12.585938 15.902344 12.585938 15.902344 12.601562 15.792969 C 12.457031 15.828125 12.457031 15.828125 12.382812 15.96875 C 12.382812 15.925781 12.382812 15.882812 12.382812 15.835938 C 12.351562 15.824219 12.324219 15.808594 12.292969 15.792969 C 12.382812 15.707031 12.382812 15.707031 12.492188 15.695312 Z M 12.492188 15.695312 "/>
<path style=" stroke:none;fill-rule:nonzero;fill:rgb(9.803922%,18.039216%,21.176471%);fill-opacity:1;" d="M 12.511719 15.574219 C 12.476562 15.582031 12.441406 15.585938 12.40625 15.589844 C 12.351562 15.605469 12.351562 15.605469 12.292969 15.617188 C 12.28125 15.648438 12.265625 15.675781 12.25 15.707031 C 12.222656 15.707031 12.191406 15.707031 12.164062 15.707031 C 12.148438 15.777344 12.132812 15.851562 12.117188 15.925781 C 12.074219 15.910156 12.03125 15.894531 11.988281 15.882812 C 11.988281 15.851562 11.988281 15.824219 11.988281 15.792969 C 12.015625 15.792969 12.046875 15.792969 12.074219 15.792969 C 12.0625 15.707031 12.046875 15.621094 12.03125 15.53125 C 12.355469 15.46875 12.355469 15.46875 12.511719 15.574219 Z M 12.511719 15.574219 "/>
<path style=" stroke:none;fill-rule:nonzero;fill:rgb(25.098039%,32.156863%,38.823529%);fill-opacity:1;" d="M 10.980469 13.429688 C 11.113281 13.429688 11.113281 13.429688 11.199219 13.476562 C 11.179688 13.511719 11.179688 13.511719 11.15625 13.550781 C 11.109375 13.65625 11.09375 13.742188 11.085938 13.859375 C 11.082031 13.894531 11.078125 13.929688 11.074219 13.964844 C 11.074219 13.988281 11.070312 14.015625 11.070312 14.042969 C 11.039062 14.042969 11.011719 14.042969 10.980469 14.042969 C 10.980469 13.839844 10.980469 13.640625 10.980469 13.429688 Z M 10.980469 13.429688 "/>
<path style=" stroke:none;fill-rule:nonzero;fill:rgb(23.921569%,28.235294%,27.45098%);fill-opacity:1;" d="M 14.65625 15.75 C 14.699219 15.792969 14.699219 15.792969 14.703125 15.90625 C 14.703125 15.941406 14.699219 15.976562 14.699219 16.011719 C 14.671875 15.953125 14.640625 15.898438 14.613281 15.835938 C 14.539062 15.835938 14.46875 15.835938 14.394531 15.835938 C 14.394531 15.878906 14.394531 15.925781 14.394531 15.96875 C 14.320312 15.953125 14.25 15.941406 14.175781 15.925781 C 14.1875 15.882812 14.203125 15.839844 14.21875 15.792969 C 14.21875 15.824219 14.21875 15.851562 14.21875 15.882812 C 14.246094 15.882812 14.277344 15.882812 14.304688 15.882812 C 14.320312 15.839844 14.335938 15.792969 14.351562 15.75 C 14.46875 15.691406 14.53125 15.71875 14.65625 15.75 Z M 14.65625 15.75 "/>
<path style=" stroke:none;fill-rule:nonzero;fill:rgb(9.803922%,16.862745%,23.529412%);fill-opacity:1;" d="M 14.917969 11.59375 C 14.960938 11.59375 15.003906 11.59375 15.050781 11.59375 C 15.050781 11.621094 15.050781 11.652344 15.050781 11.679688 C 15.101562 11.664062 15.152344 11.648438 15.203125 11.632812 C 15.410156 11.578125 15.550781 11.617188 15.75 11.679688 C 15.75 11.695312 15.75 11.710938 15.75 11.726562 C 15.476562 11.726562 15.203125 11.726562 14.917969 11.726562 C 14.917969 11.683594 14.917969 11.636719 14.917969 11.59375 Z M 14.917969 11.59375 "/>
<path style=" stroke:none;fill-rule:nonzero;fill:rgb(16.470588%,23.137255%,30.196078%);fill-opacity:1;" d="M 16.320312 12.074219 C 16.375 12.148438 16.433594 12.21875 16.492188 12.292969 C 16.363281 12.292969 16.363281 12.292969 16.273438 12.25 C 16.289062 12.191406 16.304688 12.132812 16.320312 12.074219 Z M 16.101562 12.292969 C 16.199219 12.308594 16.300781 12.324219 16.40625 12.335938 C 16.328125 12.507812 16.328125 12.507812 16.230469 12.554688 C 16.203125 12.527344 16.171875 12.5 16.144531 12.46875 C 16.171875 12.46875 16.203125 12.46875 16.230469 12.46875 C 16.230469 12.425781 16.230469 12.382812 16.230469 12.335938 C 16.1875 12.324219 16.144531 12.308594 16.101562 12.292969 Z M 16.101562 12.292969 "/>
<path style=" stroke:none;fill-rule:nonzero;fill:rgb(7.45098%,19.215686%,29.019608%);fill-opacity:1;" d="M 15.574219 16.144531 C 15.652344 16.203125 15.652344 16.203125 15.707031 16.273438 C 15.707031 16.304688 15.707031 16.332031 15.707031 16.363281 C 15.621094 16.375 15.53125 16.390625 15.445312 16.40625 C 15.429688 16.335938 15.414062 16.261719 15.398438 16.1875 C 15.480469 16.15625 15.480469 16.15625 15.574219 16.144531 Z M 15.574219 16.144531 "/>
<path style=" stroke:none;fill-rule:nonzero;fill:rgb(9.411765%,17.647059%,21.568627%);fill-opacity:1;" d="M 14.21875 15.617188 C 14.234375 15.648438 14.246094 15.675781 14.261719 15.707031 C 14.222656 15.820312 14.222656 15.820312 14.175781 15.925781 C 14.21875 15.9375 14.261719 15.953125 14.304688 15.96875 C 14.277344 15.96875 14.25 15.96875 14.21875 15.96875 C 14.203125 16.039062 14.191406 16.113281 14.175781 16.1875 C 14.144531 16.1875 14.117188 16.1875 14.085938 16.1875 C 14.027344 15.839844 14.027344 15.839844 14.085938 15.707031 C 14.128906 15.675781 14.175781 15.648438 14.21875 15.617188 Z M 14.21875 15.617188 "/>
<path style=" stroke:none;fill-rule:nonzero;fill:rgb(90.588235%,94.901961%,96.078431%);fill-opacity:1;" d="M 17.457031 13.957031 C 17.457031 13.96875 17.457031 13.984375 17.457031 14 C 17.269531 14 17.082031 14 16.886719 14 C 16.929688 13.914062 16.929688 13.914062 17.023438 13.855469 C 17.207031 13.8125 17.292969 13.871094 17.457031 13.957031 Z M 17.457031 13.957031 "/>
<path style=" stroke:none;fill-rule:nonzero;fill:rgb(13.72549%,23.137255%,31.372549%);fill-opacity:1;" d="M 14.226562 13.734375 C 14.253906 13.75 14.277344 13.765625 14.304688 13.78125 C 14.261719 13.796875 14.21875 13.808594 14.175781 13.824219 C 14.1875 13.855469 14.203125 13.882812 14.21875 13.914062 C 14.132812 13.925781 14.046875 13.941406 13.957031 13.957031 C 13.96875 13.882812 13.984375 13.8125 14 13.738281 C 14.132812 13.695312 14.132812 13.695312 14.226562 13.734375 Z M 14.226562 13.734375 "/>
<path style=" stroke:none;fill-rule:nonzero;fill:rgb(91.764706%,95.294118%,97.254902%);fill-opacity:1;" d="M 18.242188 11.769531 C 18.429688 11.769531 18.617188 11.769531 18.8125 11.769531 C 18.703125 11.875 18.605469 11.898438 18.460938 11.945312 C 18.460938 11.914062 18.460938 11.886719 18.460938 11.855469 C 18.390625 11.84375 18.316406 11.828125 18.242188 11.8125 C 18.242188 11.796875 18.242188 11.785156 18.242188 11.769531 Z M 18.242188 11.769531 "/>
<path style=" stroke:none;fill-rule:nonzero;fill:rgb(16.078431%,23.529412%,29.019608%);fill-opacity:1;" d="M 17.894531 13.476562 C 18 13.601562 18.089844 13.71875 18.15625 13.867188 C 18.03125 13.839844 18.03125 13.839844 17.894531 13.78125 C 17.832031 13.667969 17.832031 13.667969 17.804688 13.5625 C 17.835938 13.535156 17.863281 13.503906 17.894531 13.476562 Z M 17.894531 13.476562 "/>
<path style=" stroke:none;fill-rule:nonzero;fill:rgb(19.607843%,26.27451%,31.764706%);fill-opacity:1;" d="M 17.675781 13.167969 C 17.703125 13.167969 17.734375 13.167969 17.761719 13.167969 C 17.835938 13.273438 17.835938 13.273438 17.894531 13.386719 C 17.851562 13.476562 17.851562 13.476562 17.761719 13.519531 C 17.761719 13.488281 17.761719 13.460938 17.761719 13.429688 C 17.703125 13.417969 17.648438 13.402344 17.585938 13.386719 C 17.617188 13.316406 17.644531 13.242188 17.675781 13.167969 Z M 17.675781 13.167969 "/>
<path style=" stroke:none;fill-rule:nonzero;fill:rgb(21.176471%,24.313725%,21.960784%);fill-opacity:1;" d="M 15.882812 16.011719 C 15.925781 16.042969 15.96875 16.070312 16.011719 16.101562 C 15.996094 16.363281 15.996094 16.363281 15.96875 16.449219 C 15.882812 16.492188 15.882812 16.492188 15.792969 16.539062 C 15.824219 16.363281 15.851562 16.191406 15.882812 16.011719 Z M 15.882812 16.011719 "/>
<path style=" stroke:none;fill-rule:nonzero;fill:rgb(80%,78.039216%,72.156863%);fill-opacity:1;" d="M 14.53125 15.613281 C 14.617188 15.617188 14.617188 15.617188 14.699219 15.617188 C 14.570312 15.707031 14.570312 15.707031 14.453125 15.75 C 14.34375 15.785156 14.34375 15.785156 14.304688 15.882812 C 14.277344 15.882812 14.25 15.882812 14.21875 15.882812 C 14.21875 15.824219 14.21875 15.765625 14.21875 15.707031 C 14.355469 15.617188 14.382812 15.609375 14.53125 15.613281 Z M 14.53125 15.613281 "/>
<path style=" stroke:none;fill-rule:nonzero;fill:rgb(13.72549%,18.823529%,19.607843%);fill-opacity:1;" d="M 14.597656 15.460938 C 14.632812 15.46875 14.664062 15.476562 14.699219 15.488281 C 14.699219 15.515625 14.699219 15.546875 14.699219 15.574219 C 14.742188 15.574219 14.785156 15.574219 14.832031 15.574219 C 14.816406 15.632812 14.800781 15.691406 14.789062 15.75 C 14.789062 15.722656 14.789062 15.691406 14.789062 15.664062 C 14.644531 15.621094 14.5 15.574219 14.351562 15.53125 C 14.480469 15.445312 14.480469 15.445312 14.597656 15.460938 Z M 14.597656 15.460938 "/>
<path style=" stroke:none;fill-rule:nonzero;fill:rgb(89.019608%,92.941176%,94.901961%);fill-opacity:1;" d="M 14.394531 11.988281 C 14.4375 12.03125 14.480469 12.074219 14.523438 12.117188 C 14.554688 12.089844 14.582031 12.0625 14.613281 12.03125 C 14.613281 12.132812 14.613281 12.234375 14.613281 12.335938 C 14.570312 12.335938 14.527344 12.335938 14.480469 12.335938 C 14.4375 12.238281 14.394531 12.136719 14.351562 12.03125 C 14.363281 12.015625 14.378906 12.003906 14.394531 11.988281 Z M 14.394531 11.988281 "/>
<path style=" stroke:none;fill-rule:nonzero;fill:rgb(12.54902%,18.823529%,25.098039%);fill-opacity:1;" d="M 13.957031 11.855469 C 14.027344 11.855469 14.101562 11.855469 14.175781 11.855469 C 14.132812 11.878906 14.132812 11.878906 14.085938 11.898438 C 14.066406 11.984375 14.066406 11.984375 14.058594 12.078125 C 14.054688 12.132812 14.050781 12.191406 14.042969 12.25 C 14.015625 12.25 13.984375 12.25 13.957031 12.25 C 13.957031 12.121094 13.957031 11.988281 13.957031 11.855469 Z M 13.957031 11.855469 "/>
<path style=" stroke:none;fill-rule:nonzero;fill:rgb(21.960784%,22.352941%,21.176471%);fill-opacity:1;" d="M 13.300781 15.835938 C 13.3125 15.835938 13.328125 15.835938 13.34375 15.835938 C 13.40625 16.210938 13.40625 16.210938 13.300781 16.363281 C 13.257812 16.320312 13.257812 16.320312 13.25 16.21875 C 13.25 16.179688 13.25 16.140625 13.25 16.101562 C 13.25 16.058594 13.25 16.019531 13.25 15.980469 C 13.257812 15.882812 13.257812 15.882812 13.300781 15.835938 Z M 13.300781 15.835938 "/>
<path style=" stroke:none;fill-rule:nonzero;fill:rgb(15.294118%,22.745098%,25.490196%);fill-opacity:1;" d="M 14.480469 15.792969 C 14.539062 15.808594 14.597656 15.824219 14.65625 15.835938 C 14.664062 15.964844 14.664062 15.964844 14.65625 16.101562 C 14.613281 16.128906 14.570312 16.15625 14.523438 16.1875 C 14.511719 16.058594 14.496094 15.925781 14.480469 15.792969 Z M 14.480469 15.792969 "/>
<path style=" stroke:none;fill-rule:nonzero;fill:rgb(7.45098%,18.823529%,25.098039%);fill-opacity:1;" d="M 15.574219 15.75 C 15.589844 15.777344 15.605469 15.808594 15.617188 15.835938 C 15.574219 15.902344 15.574219 15.902344 15.53125 15.96875 C 15.546875 16.011719 15.558594 16.054688 15.574219 16.101562 C 15.515625 16.101562 15.460938 16.101562 15.398438 16.101562 C 15.398438 16.011719 15.398438 15.925781 15.398438 15.835938 C 15.457031 15.808594 15.515625 15.78125 15.574219 15.75 Z M 15.574219 15.75 "/>
<path style=" stroke:none;fill-rule:nonzero;fill:rgb(23.137255%,25.882353%,24.705882%);fill-opacity:1;" d="M 13.429688 15.53125 C 13.714844 15.558594 13.714844 15.558594 13.820312 15.644531 C 13.835938 15.664062 13.851562 15.683594 13.867188 15.707031 C 13.839844 15.734375 13.8125 15.765625 13.78125 15.792969 C 13.78125 15.765625 13.78125 15.734375 13.78125 15.707031 C 13.585938 15.664062 13.585938 15.664062 13.386719 15.617188 C 13.402344 15.589844 13.417969 15.5625 13.429688 15.53125 Z M 13.429688 15.53125 "/>
<path style=" stroke:none;fill-rule:nonzero;fill:rgb(14.901961%,22.352941%,29.019608%);fill-opacity:1;" d="M 18.460938 13.300781 C 18.550781 13.300781 18.636719 13.300781 18.726562 13.300781 C 18.738281 13.359375 18.753906 13.414062 18.769531 13.476562 C 18.738281 13.460938 18.710938 13.445312 18.679688 13.429688 C 18.667969 13.472656 18.652344 13.519531 18.636719 13.5625 C 18.539062 13.472656 18.507812 13.429688 18.460938 13.300781 Z M 18.460938 13.300781 "/>
<path style=" stroke:none;fill-rule:nonzero;fill:rgb(23.529412%,31.764706%,38.039216%);fill-opacity:1;" d="M 10.019531 12.644531 C 10.03125 12.671875 10.046875 12.703125 10.0625 12.730469 C 10.171875 12.761719 10.171875 12.761719 10.28125 12.773438 C 10.296875 12.746094 10.308594 12.71875 10.324219 12.6875 C 10.324219 12.746094 10.324219 12.804688 10.324219 12.863281 C 10.195312 12.863281 10.066406 12.863281 9.929688 12.863281 C 9.960938 12.832031 9.988281 12.804688 10.019531 12.773438 C 10.019531 12.730469 10.019531 12.6875 10.019531 12.644531 Z M 10.019531 12.644531 "/>
<path style=" stroke:none;fill-rule:nonzero;fill:rgb(17.254902%,18.823529%,17.647059%);fill-opacity:1;" d="M 14.523438 16.320312 C 14.738281 16.394531 14.738281 16.394531 14.789062 16.492188 C 14.671875 16.492188 14.554688 16.492188 14.4375 16.492188 C 14.464844 16.4375 14.496094 16.378906 14.523438 16.320312 Z M 14.523438 16.320312 "/>
<path style=" stroke:none;fill-rule:nonzero;fill:rgb(10.980392%,17.254902%,24.705882%);fill-opacity:1;" d="M 12.730469 15.488281 C 12.839844 15.53125 12.839844 15.53125 12.949219 15.574219 C 12.949219 15.605469 12.949219 15.632812 12.949219 15.664062 C 12.921875 15.664062 12.890625 15.664062 12.863281 15.664062 C 12.863281 15.691406 12.863281 15.71875 12.863281 15.75 C 12.832031 15.75 12.804688 15.75 12.773438 15.75 C 12.726562 15.667969 12.726562 15.667969 12.6875 15.574219 C 12.703125 15.546875 12.714844 15.515625 12.730469 15.488281 Z M 12.730469 15.488281 "/>
<path style=" stroke:none;fill-rule:nonzero;fill:rgb(19.607843%,24.705882%,29.803922%);fill-opacity:1;" d="M 18.070312 12.25 C 18.097656 12.265625 18.125 12.277344 18.15625 12.292969 C 18.078125 12.507812 18.078125 12.507812 17.980469 12.554688 C 17.953125 12.484375 17.921875 12.410156 17.894531 12.335938 C 17.976562 12.289062 17.976562 12.289062 18.070312 12.25 Z M 18.070312 12.25 "/>
<path style=" stroke:none;fill-rule:nonzero;fill:rgb(78.431373%,77.647059%,71.372549%);fill-opacity:1;" d="M 12.644531 15.96875 C 12.6875 15.996094 12.730469 16.027344 12.773438 16.054688 C 12.703125 16.144531 12.632812 16.234375 12.554688 16.320312 C 12.527344 16.320312 12.5 16.320312 12.46875 16.320312 C 12.519531 16.1875 12.566406 16.085938 12.644531 15.96875 Z M 12.644531 15.96875 "/>
<path style=" stroke:none;fill-rule:nonzero;fill:rgb(18.431373%,24.313725%,31.372549%);fill-opacity:1;" d="M 18.242188 12.335938 C 18.296875 12.496094 18.265625 12.539062 18.199219 12.6875 C 18.15625 12.6875 18.113281 12.6875 18.070312 12.6875 C 18.117188 12.558594 18.164062 12.453125 18.242188 12.335938 Z M 18.289062 12.511719 C 18.300781 12.542969 18.316406 12.570312 18.332031 12.601562 C 18.300781 12.585938 18.273438 12.570312 18.242188 12.554688 C 18.257812 12.542969 18.273438 12.527344 18.289062 12.511719 Z M 18.289062 12.511719 "/>
<path style=" stroke:none;fill-rule:nonzero;fill:rgb(16.470588%,25.098039%,31.764706%);fill-opacity:1;" d="M 13.039062 11.855469 C 13.125 11.988281 13.125 11.988281 13.109375 12.125 C 13.097656 12.167969 13.089844 12.207031 13.082031 12.25 C 13.039062 12.234375 12.996094 12.222656 12.949219 12.207031 C 12.980469 12.089844 13.007812 11.976562 13.039062 11.855469 Z M 13.039062 11.855469 "/>
<path style=" stroke:none;fill-rule:nonzero;fill:rgb(19.215686%,21.568627%,21.568627%);fill-opacity:1;" d="M 15.707031 16.363281 C 15.675781 16.421875 15.648438 16.476562 15.617188 16.539062 C 15.5625 16.539062 15.503906 16.539062 15.445312 16.539062 C 15.445312 16.496094 15.445312 16.449219 15.445312 16.40625 C 15.53125 16.363281 15.53125 16.363281 15.707031 16.363281 Z M 15.707031 16.363281 "/>
<path style=" stroke:none;fill-rule:nonzero;fill:rgb(29.019608%,30.980392%,29.803922%);fill-opacity:1;" d="M 15.269531 15.925781 C 15.28125 15.925781 15.296875 15.925781 15.3125 15.925781 C 15.316406 15.953125 15.324219 15.976562 15.332031 16.003906 C 15.339844 16.058594 15.339844 16.058594 15.351562 16.109375 C 15.359375 16.144531 15.367188 16.179688 15.375 16.214844 C 15.398438 16.308594 15.421875 16.402344 15.445312 16.492188 C 15.355469 16.429688 15.355469 16.429688 15.269531 16.320312 C 15.253906 16.1875 15.257812 16.058594 15.269531 15.925781 Z M 15.269531 15.925781 "/>
<path style=" stroke:none;fill-rule:nonzero;fill:rgb(16.078431%,17.254902%,17.647059%);fill-opacity:1;" d="M 12.554688 16.273438 C 12.570312 16.316406 12.585938 16.363281 12.601562 16.40625 C 12.644531 16.421875 12.6875 16.433594 12.730469 16.449219 C 12.730469 16.464844 12.730469 16.480469 12.730469 16.492188 C 12.628906 16.492188 12.527344 16.492188 12.425781 16.492188 C 12.507812 16.324219 12.507812 16.324219 12.554688 16.273438 Z M 12.554688 16.273438 "/>
<path style=" stroke:none;fill-rule:nonzero;fill:rgb(14.509804%,17.254902%,20%);fill-opacity:1;" d="M 15.617188 15.925781 C 15.660156 15.9375 15.707031 15.953125 15.75 15.96875 C 15.75 16.085938 15.75 16.199219 15.75 16.320312 C 15.683594 16.269531 15.683594 16.269531 15.617188 16.1875 C 15.609375 16.046875 15.609375 16.046875 15.617188 15.925781 Z M 15.617188 15.925781 "/>
<path style=" stroke:none;fill-rule:nonzero;fill:rgb(10.196078%,17.647059%,30.588235%);fill-opacity:1;" d="M 14.394531 15.835938 C 14.4375 15.835938 14.480469 15.835938 14.523438 15.835938 C 14.523438 15.925781 14.523438 16.011719 14.523438 16.101562 C 14.46875 16.085938 14.410156 16.070312 14.351562 16.054688 C 14.363281 15.984375 14.378906 15.910156 14.394531 15.835938 Z M 14.394531 15.835938 "/>
<path style=" stroke:none;fill-rule:nonzero;fill:rgb(74.509804%,74.117647%,67.843137%);fill-opacity:1;" d="M 13.824219 15.925781 C 13.839844 15.925781 13.855469 15.925781 13.867188 15.925781 C 13.871094 15.988281 13.871094 16.050781 13.871094 16.117188 C 13.871094 16.152344 13.871094 16.1875 13.871094 16.222656 C 13.867188 16.320312 13.867188 16.320312 13.824219 16.40625 C 13.78125 16.40625 13.738281 16.40625 13.695312 16.40625 C 13.707031 16.382812 13.722656 16.359375 13.734375 16.335938 C 13.792969 16.203125 13.808594 16.070312 13.824219 15.925781 Z M 13.824219 15.925781 "/>
<path style=" stroke:none;fill-rule:nonzero;fill:rgb(10.588235%,17.254902%,21.960784%);fill-opacity:1;" d="M 12.820312 15.792969 C 12.832031 15.792969 12.847656 15.792969 12.863281 15.792969 C 12.863281 15.9375 12.863281 16.082031 12.863281 16.230469 C 12.804688 16.246094 12.746094 16.261719 12.6875 16.273438 C 12.703125 16.21875 12.714844 16.160156 12.730469 16.101562 C 12.761719 16.101562 12.789062 16.101562 12.820312 16.101562 C 12.820312 16 12.820312 15.898438 12.820312 15.792969 Z M 12.820312 15.792969 "/>
<path style=" stroke:none;fill-rule:nonzero;fill:rgb(90.196078%,94.509804%,95.686275%);fill-opacity:1;" d="M 10.675781 12.03125 C 10.785156 12.054688 10.785156 12.054688 10.894531 12.074219 C 10.878906 12.132812 10.863281 12.191406 10.851562 12.25 C 10.808594 12.25 10.761719 12.25 10.71875 12.25 C 10.703125 12.179688 10.691406 12.105469 10.675781 12.03125 Z M 10.675781 12.03125 "/>
<path style=" stroke:none;fill-rule:nonzero;fill:rgb(16.078431%,19.215686%,21.568627%);fill-opacity:1;" d="M 12.207031 16.320312 C 12.25 16.332031 12.292969 16.347656 12.335938 16.363281 C 12.265625 16.4375 12.195312 16.511719 12.117188 16.582031 C 12.089844 16.582031 12.0625 16.582031 12.03125 16.582031 C 12.03125 16.550781 12.03125 16.523438 12.03125 16.492188 C 12.058594 16.492188 12.089844 16.492188 12.117188 16.492188 C 12.148438 16.4375 12.175781 16.378906 12.207031 16.320312 Z M 12.207031 16.320312 "/>
<path style=" stroke:none;fill-rule:nonzero;fill:rgb(14.117647%,22.352941%,29.411765%);fill-opacity:1;" d="M 18.375 12.164062 C 18.433594 12.175781 18.492188 12.191406 18.550781 12.207031 C 18.550781 12.234375 18.550781 12.265625 18.550781 12.292969 C 18.464844 12.308594 18.375 12.324219 18.289062 12.335938 C 18.316406 12.28125 18.34375 12.222656 18.375 12.164062 Z M 18.375 12.164062 "/>
</g>
</svg>