<svg xmlns="http://www.w3.org/2000/svg" xmlns:xlink="http://www.w3.org/1999/xlink" width="28px" height="28px" viewBox="0 0 28 28" version="1.1">
<g id="surface1">
<path style=" stroke:none;fill-rule:nonzero;fill:rgb(98.823529%,98.823529%,98.823529%);fill-opacity:1;" d="M 0 0 C 9.238281 0 18.480469 0 28 0 C 28 9.238281 28 18.480469 28 28 C 18.761719 28 9.519531 28 0 28 C 0 18.761719 0 9.519531 0 0 Z M 0 0 "/>
<path style=" stroke:none;fill-rule:nonzero;fill:rgb(7.45098%,7.45098%,7.45098%);fill-opacity:1;" d="M 7.933594 10.421875 C 8.574219 10.410156 9.214844 10.398438 9.878906 10.382812 C 10.078125 10.378906 10.277344 10.371094 10.484375 10.367188 C 11.722656 10.355469 12.574219 10.5 13.53125 11.304688 C 14.21875 12.152344 14.730469 12.980469 14.675781 14.117188 C 14.503906 15.246094 14.144531 16.191406 13.25 16.921875 C 12.058594 17.589844 11.0625 17.636719 9.722656 17.605469 C 9.132812 17.597656 8.542969 17.585938 7.933594 17.578125 C 7.933594 15.214844 7.933594 12.855469 7.933594 10.421875 Z M 7.933594 10.421875 "/>
<path style=" stroke:none;fill-rule:nonzero;fill:rgb(7.45098%,7.45098%,7.45098%);fill-opacity:1;" d="M 14.933594 10.421875 C 16.332031 10.421875 16.332031 10.421875 16.640625 10.648438 C 16.699219 10.753906 16.761719 10.859375 16.824219 10.96875 C 16.890625 11.082031 16.960938 11.199219 17.035156 11.316406 C 17.101562 11.4375 17.167969 11.558594 17.238281 11.6875 C 17.308594 11.804688 17.378906 11.921875 17.449219 12.042969 C 17.585938 12.277344 17.722656 12.507812 17.855469 12.742188 C 18.105469 13.175781 18.382812 13.585938 18.667969 14 C 19.417969 12.992188 20.128906 11.972656 20.789062 10.90625 C 21 10.578125 21 10.578125 21.15625 10.421875 C 21.617188 10.421875 22.078125 10.421875 22.554688 10.421875 C 22.554688 12.785156 22.554688 15.144531 22.554688 17.578125 C 21.992188 17.578125 21.425781 17.578125 20.84375 17.578125 C 20.792969 16.449219 20.742188 15.320312 20.6875 14.15625 C 20.273438 14.921875 20.273438 14.921875 19.867188 15.691406 C 19.695312 15.992188 19.53125 16.242188 19.289062 16.488281 C 18.746094 16.628906 18.746094 16.628906 18.199219 16.488281 C 17.863281 16.167969 17.65625 15.804688 17.433594 15.398438 C 17.222656 15.039062 17.015625 14.679688 16.800781 14.3125 C 16.75 15.390625 16.699219 16.46875 16.644531 17.578125 C 16.078125 17.578125 15.515625 17.578125 14.933594 17.578125 C 14.933594 15.214844 14.933594 12.855469 14.933594 10.421875 Z M 14.933594 10.421875 "/>
<path style=" stroke:none;fill-rule:nonzero;fill:rgb(6.27451%,6.27451%,6.27451%);fill-opacity:1;" d="M 2.332031 10.421875 C 4.027344 10.421875 5.722656 10.421875 7.464844 10.421875 C 7.464844 10.9375 7.464844 11.449219 7.464844 11.976562 C 6.335938 11.976562 5.207031 11.976562 4.042969 11.976562 C 4.042969 12.492188 4.042969 13.003906 4.042969 13.535156 C 5.019531 13.535156 5.996094 13.535156 7 13.535156 C 7 14.046875 7 14.558594 7 15.089844 C 6.023438 15.089844 5.050781 15.089844 4.042969 15.089844 C 4.042969 15.910156 4.042969 16.730469 4.042969 17.578125 C 3.480469 17.578125 2.914062 17.578125 2.332031 17.578125 C 2.332031 15.214844 2.332031 12.855469 2.332031 10.421875 Z M 2.332031 10.421875 "/>
<path style=" stroke:none;fill-rule:nonzero;fill:rgb(8.235294%,8.235294%,8.235294%);fill-opacity:1;" d="M 23.332031 5.289062 C 23.742188 5.699219 24.046875 6.085938 24.375 6.5625 C 24.46875 6.703125 24.566406 6.84375 24.667969 6.988281 C 24.777344 7.148438 24.777344 7.148438 24.890625 7.3125 C 25.003906 7.277344 25.117188 7.246094 25.234375 7.214844 C 25.386719 7.171875 25.539062 7.128906 25.695312 7.085938 C 25.921875 7.023438 25.921875 7.023438 26.148438 6.960938 C 26.558594 6.855469 26.964844 6.765625 27.378906 6.6875 C 27.066406 7.246094 26.773438 7.757812 26.386719 8.265625 C 26.300781 8.410156 26.21875 8.558594 26.132812 8.710938 C 26.304688 9.285156 26.59375 9.746094 26.929688 10.238281 C 27.015625 10.359375 27.097656 10.484375 27.183594 10.609375 C 27.25 10.703125 27.3125 10.792969 27.378906 10.890625 C 26.792969 11.085938 26.609375 10.964844 26.046875 10.742188 C 25.484375 10.503906 25.484375 10.503906 24.890625 10.421875 C 24.621094 10.757812 24.621094 10.757812 24.355469 11.171875 C 24.03125 11.652344 23.746094 12.03125 23.332031 12.445312 C 23.332031 11.519531 23.332031 10.597656 23.332031 9.644531 C 23.023438 9.59375 22.71875 9.542969 22.398438 9.488281 C 22.144531 9.414062 21.890625 9.332031 21.640625 9.246094 C 21.519531 9.203125 21.398438 9.160156 21.273438 9.117188 C 21.183594 9.085938 21.09375 9.054688 21 9.023438 C 21 8.917969 21 8.816406 21 8.710938 C 21.273438 8.605469 21.542969 8.503906 21.816406 8.398438 C 22.042969 8.3125 22.042969 8.3125 22.277344 8.226562 C 22.710938 8.089844 22.710938 8.089844 23.332031 8.089844 C 23.332031 7.164062 23.332031 6.242188 23.332031 5.289062 Z M 23.332031 5.289062 "/>
<path style=" stroke:none;fill-rule:nonzero;fill:rgb(95.686275%,95.686275%,95.686275%);fill-opacity:1;" d="M 9.644531 11.976562 C 11.613281 11.976562 11.613281 11.976562 12.503906 12.773438 C 12.855469 13.402344 12.878906 13.917969 12.753906 14.621094 C 12.480469 15.195312 12.238281 15.480469 11.726562 15.847656 C 11.199219 16.023438 11.199219 16.023438 9.644531 16.023438 C 9.644531 14.6875 9.644531 13.351562 9.644531 11.976562 Z M 9.644531 11.976562 "/>
<path style=" stroke:none;fill-rule:nonzero;fill:rgb(11.764706%,11.764706%,11.764706%);fill-opacity:1;" d="M 27.066406 6.6875 C 27.167969 6.738281 27.273438 6.792969 27.378906 6.84375 C 27.070312 7.304688 27.070312 7.304688 26.753906 7.777344 C 26.550781 7.726562 26.34375 7.675781 26.132812 7.621094 C 26.132812 7.46875 26.132812 7.3125 26.132812 7.15625 C 26.601562 6.84375 26.601562 6.84375 27.066406 6.6875 Z M 27.066406 6.6875 "/>
<path style=" stroke:none;fill-rule:nonzero;fill:rgb(5.882353%,5.882353%,5.882353%);fill-opacity:1;" d="M 23.644531 5.910156 C 23.875 6.066406 23.875 6.066406 24.109375 6.222656 C 23.976562 6.960938 23.976562 6.960938 23.800781 7.3125 C 23.699219 7.3125 23.59375 7.3125 23.488281 7.3125 C 23.472656 6.355469 23.472656 6.355469 23.488281 6.066406 C 23.539062 6.015625 23.589844 5.964844 23.644531 5.910156 Z M 23.644531 5.910156 "/>
<path style=" stroke:none;fill-rule:nonzero;fill:rgb(13.333333%,13.333333%,13.333333%);fill-opacity:1;" d="M 22.089844 8.710938 C 22.140625 8.917969 22.191406 9.121094 22.246094 9.332031 C 21.351562 9.195312 21.351562 9.195312 21 9.023438 C 21 8.917969 21 8.816406 21 8.710938 C 21.488281 8.546875 21.621094 8.566406 22.089844 8.710938 Z M 22.089844 8.710938 "/>
<path style=" stroke:none;fill-rule:nonzero;fill:rgb(88.235294%,88.235294%,88.235294%);fill-opacity:1;" d="M 24.890625 10.265625 C 25.09375 10.371094 25.300781 10.472656 25.511719 10.578125 C 25.324219 10.640625 25.324219 10.640625 25.132812 10.703125 C 25 10.765625 24.867188 10.824219 24.734375 10.890625 C 24.683594 11.042969 24.628906 11.195312 24.578125 11.355469 C 24.476562 11.355469 24.371094 11.355469 24.265625 11.355469 C 24.453125 10.96875 24.648438 10.628906 24.890625 10.265625 Z M 24.890625 10.265625 "/>
<path style=" stroke:none;fill-rule:nonzero;fill:rgb(13.72549%,13.72549%,13.72549%);fill-opacity:1;" d="M 24.109375 6.378906 C 24.316406 6.582031 24.523438 6.789062 24.734375 7 C 24.683594 7.152344 24.628906 7.308594 24.578125 7.464844 C 24.371094 7.414062 24.167969 7.363281 23.957031 7.3125 C 24.007812 7.003906 24.058594 6.695312 24.109375 6.378906 Z M 24.109375 6.378906 "/>
<path style=" stroke:none;fill-rule:nonzero;fill:rgb(14.117647%,14.117647%,14.117647%);fill-opacity:1;" d="M 23.332031 5.289062 C 23.488281 5.441406 23.640625 5.597656 23.800781 5.753906 C 23.75 5.859375 23.699219 5.960938 23.644531 6.066406 C 23.609375 6.304688 23.582031 6.546875 23.558594 6.785156 C 23.542969 6.914062 23.53125 7.039062 23.515625 7.171875 C 23.507812 7.269531 23.5 7.367188 23.488281 7.464844 C 23.4375 7.464844 23.386719 7.464844 23.332031 7.464844 C 23.332031 6.746094 23.332031 6.03125 23.332031 5.289062 Z M 23.332031 5.289062 "/>
<path style=" stroke:none;fill-rule:nonzero;fill:rgb(93.72549%,93.72549%,93.72549%);fill-opacity:1;" d="M 20.535156 14.3125 C 20.585938 14.3125 20.636719 14.3125 20.6875 14.3125 C 20.738281 14.671875 20.738281 14.671875 20.6875 15.089844 C 20.300781 15.371094 20.300781 15.371094 19.910156 15.554688 C 20.085938 15.09375 20.257812 14.726562 20.535156 14.3125 Z M 20.535156 14.3125 "/>
</g>
</svg>